<svg height="233.222" width="360.431" xmlns="http://www.w3.org/2000/svg"><defs><clipPath clipPathUnits="userSpaceOnUse" id="i"><path d="M-333.14 250.672h500v-500h-500z" style="stroke-width:1"/></clipPath><clipPath clipPathUnits="userSpaceOnUse" id="f"><path d="M-333.116 248.937h500v-500h-500z" style="stroke-width:1"/></clipPath><clipPath clipPathUnits="userSpaceOnUse" id="e"><path d="M-327.136 246.67h500v-500h-500z" style="stroke-width:1"/></clipPath><clipPath clipPathUnits="userSpaceOnUse" id="L"><path d="M-196.034 342.929h500v-500h-500Z" style="stroke-width:.999995"/></clipPath><clipPath clipPathUnits="userSpaceOnUse" id="I"><path d="M-214.01 327.925h500v-500h-500Z" style="stroke-width:.999995"/></clipPath><clipPath clipPathUnits="userSpaceOnUse" id="J"><path d="M-211.008 325.924h500v-500h-500Z" style="stroke-width:.999995"/></clipPath><clipPath clipPathUnits="userSpaceOnUse" id="H"><path d="M-217.011 329.927h500v-500h-500z" style="stroke-width:.999995"/></clipPath><clipPath clipPathUnits="userSpaceOnUse" id="K"><path d="M-184.03 313.08h500v-500h-500z" style="stroke-width:.999995"/></clipPath><clipPath clipPathUnits="userSpaceOnUse" id="g"><path d="M-315.954 225.021h500v-500h-500z" style="stroke-width:1"/></clipPath><clipPath clipPathUnits="userSpaceOnUse" id="c"><path d="M-333.14 250.672h500v-500h-500Z" style="stroke-width:1"/></clipPath><clipPath clipPathUnits="userSpaceOnUse" id="j"><path d="M-330.137 248.671h500v-500h-500z" style="stroke-width:1"/></clipPath><clipPath clipPathUnits="userSpaceOnUse" id="k"><path d="M-327.136 246.67h500v-500h-500z" style="stroke-width:1"/></clipPath><clipPath clipPathUnits="userSpaceOnUse" id="l"><path d="M-333.116 248.937h500v-500h-500z" style="stroke-width:1"/></clipPath><clipPath clipPathUnits="userSpaceOnUse" id="m"><path d="M-315.954 225.021h500v-500h-500z" style="stroke-width:1"/></clipPath><clipPath clipPathUnits="userSpaceOnUse" id="d"><path d="M-330.137 248.671h500v-500h-500z" style="stroke-width:1"/></clipPath><clipPath clipPathUnits="userSpaceOnUse" id="x"><path d="M-202.758 126.148h500v-500h-500z" style="stroke-width:.999995"/></clipPath><clipPath clipPathUnits="userSpaceOnUse" id="w"><path d="M-205.76 128.15h500v-500h-500z" style="stroke-width:.999995"/></clipPath><clipPath clipPathUnits="userSpaceOnUse" id="v"><path d="M-208.761 130.15h500v-500h-500z" style="stroke-width:.999995"/></clipPath><clipPath clipPathUnits="userSpaceOnUse" id="y"><path d="M-250.818 155.786h500v-500h-500z" style="stroke-width:.999995"/></clipPath><clipPath clipPathUnits="userSpaceOnUse" id="D"><path d="M-249.695 369.538h500v-500h-500Z" style="stroke-width:.999997"/></clipPath><clipPath clipPathUnits="userSpaceOnUse" id="E"><path d="M-252.981 306.087h500v-500h-500z" style="stroke-width:.999997"/></clipPath><clipPath clipPathUnits="userSpaceOnUse" id="C"><path d="M-252.697 371.539h500v-500h-500z" style="stroke-width:.999997"/></clipPath><clipPath clipPathUnits="userSpaceOnUse" id="B"><path d="M-255.699 373.54h500v-500h-500Z" style="stroke-width:.999997"/></clipPath><clipPath clipPathUnits="userSpaceOnUse" id="F"><path d="M-235.492 341.03h500v-500h-500z" style="stroke-width:.999997"/></clipPath><clipPath clipPathUnits="userSpaceOnUse" id="o"><path d="M-120.186 52.966h500v-500h-500Z" style="stroke-width:.999996"/></clipPath><clipPath clipPathUnits="userSpaceOnUse" id="r"><path d="M-109.573 70.597h500v-500h-500Z" style="stroke-width:.999996"/></clipPath><clipPath clipPathUnits="userSpaceOnUse" id="z"><path d="M-216.752 161.031h500v-500h-500z" style="stroke-width:.999995"/></clipPath><clipPath clipPathUnits="userSpaceOnUse" id="s"><path d="M-114.182 48.964h500v-500h-500z" style="stroke-width:.999996"/></clipPath><clipPath clipPathUnits="userSpaceOnUse" id="p"><path d="M-117.184 50.965h500v-500h-500Z" style="stroke-width:.999996"/></clipPath><clipPath clipPathUnits="userSpaceOnUse" id="q"><path d="M-114.182 48.964h500v-500h-500z" style="stroke-width:.999996"/></clipPath><filter style="color-interpolation-filters:sRGB" id="a" x="-.134" y="-.098" width="1.287" height="1.21"><feFlood flood-opacity=".498" flood-color="#000" result="flood"/><feComposite in="flood" in2="SourceGraphic" operator="in" result="composite1"/><feGaussianBlur in="composite1" stdDeviation="3" result="blur"/><feOffset dx="1" dy="1" result="offset"/><feComposite in="SourceGraphic" in2="offset" result="composite2"/></filter><filter style="color-interpolation-filters:sRGB" id="b" x="-.114" y="-.098" width="1.243" height="1.21"><feFlood flood-opacity=".498" flood-color="#000" result="flood"/><feComposite in="flood" in2="SourceGraphic" operator="in" result="composite1"/><feGaussianBlur in="composite1" stdDeviation="3" result="blur"/><feOffset dx="1" dy="1" result="offset"/><feComposite in="SourceGraphic" in2="offset" result="composite2"/></filter><filter style="color-interpolation-filters:sRGB" id="h" x="-.114" y="-.098" width="1.243" height="1.21"><feFlood flood-opacity=".498" flood-color="#000" result="flood"/><feComposite in="flood" in2="SourceGraphic" operator="in" result="composite1"/><feGaussianBlur in="composite1" stdDeviation="3" result="blur"/><feOffset dx="1" dy="1" result="offset"/><feComposite in="SourceGraphic" in2="offset" result="composite2"/></filter><filter style="color-interpolation-filters:sRGB" id="G" x="-.141" y="-.098" width="1.303" height="1.21"><feFlood flood-opacity=".498" flood-color="#000" result="flood"/><feComposite in="flood" in2="SourceGraphic" operator="in" result="composite1"/><feGaussianBlur in="composite1" stdDeviation="3" result="blur"/><feOffset dx="1" dy="1" result="offset"/><feComposite in="SourceGraphic" in2="offset" result="composite2"/></filter><filter style="color-interpolation-filters:sRGB" id="u" x="-.121" y="-.098" width="1.259" height="1.21"><feFlood flood-opacity=".498" flood-color="#000" result="flood"/><feComposite in="flood" in2="SourceGraphic" operator="in" result="composite1"/><feGaussianBlur in="composite1" stdDeviation="3" result="blur"/><feOffset dx="1" dy="1" result="offset"/><feComposite in="SourceGraphic" in2="offset" result="composite2"/></filter><filter style="color-interpolation-filters:sRGB" id="A" x="-.149" y="-.098" width="1.319" height="1.21"><feFlood flood-opacity=".498" flood-color="#000" result="flood"/><feComposite in="flood" in2="SourceGraphic" operator="in" result="composite1"/><feGaussianBlur in="composite1" stdDeviation="3" result="blur"/><feOffset dx="1" dy="1" result="offset"/><feComposite in="SourceGraphic" in2="offset" result="composite2"/></filter><filter style="color-interpolation-filters:sRGB" id="n" x="-.129" y="-.098" width="1.275" height="1.21"><feFlood flood-opacity=".498" flood-color="#000" result="flood"/><feComposite in="flood" in2="SourceGraphic" operator="in" result="composite1"/><feGaussianBlur in="composite1" stdDeviation="3" result="blur"/><feOffset dx="1" dy="1" result="offset"/><feComposite in="SourceGraphic" in2="offset" result="composite2"/></filter><filter style="color-interpolation-filters:sRGB" id="t" x="-.134" y="-.098" width="1.287" height="1.21"><feFlood flood-opacity=".498" flood-color="#000" result="flood"/><feComposite in="flood" in2="SourceGraphic" operator="in" result="composite1"/><feGaussianBlur in="composite1" stdDeviation="3" result="blur"/><feOffset dx="1" dy="1" result="offset"/><feComposite in="SourceGraphic" in2="offset" result="composite2"/></filter></defs><g style="filter:url(#a)" transform="matrix(1.33333 0 0 -1.33333 -190 459.374)"><path d="M170.394 278.61c.031.992.062 1.982.071 2.96.05 5.758.13 11.628.24 17.448.117 6.162.27 12.432.455 18.653l.052-.005c7.173-.595 14.083-5.537 16.8-12.015 2.701-6.435 1.52-14.275-3.01-19.976-2.107-2.654-4.986-4.885-8.325-6.454-2.283-1.072-4.477-1.83-6.331-2.206.013.521.03 1.054.048 1.594m-4.948-15.631c.813-.102 1.63-.147 2.452-.147 5.386 0 10.847 1.99 14.694 3.797 5.269 2.476 9.87 6.07 13.305 10.393 7.639 9.615 9.58 22.966 4.947 34.012-4.717 11.24-16.163 19.477-28.484 20.498-6.152.512-11.072-1.617-13.492-5.836-1.46-2.546-1.539-5.1-1.586-6.627v-.004a1759.9 1759.9 0 0 1-.488-19.785c-.11-5.866-.191-11.784-.242-17.587-.008-.872-.036-1.752-.065-2.637-.07-2.141-.14-4.356.03-6.677.378-5.165 3.799-8.767 8.929-9.4" style="fill:#df801a;fill-opacity:1;fill-rule:nonzero;stroke:none;stroke-width:.993801"/><path d="M167.41 280.598c.032.993.063 1.983.072 2.962.05 5.757.13 11.627.24 17.447.117 6.161.269 12.432.455 18.652l.051-.005c7.174-.594 14.084-5.536 16.802-12.015 2.7-6.434 1.518-14.275-3.01-19.975-2.108-2.654-4.987-4.886-8.327-6.454-2.282-1.072-4.476-1.83-6.33-2.206.013.52.03 1.053.048 1.594m-4.949-15.631c.813-.102 1.631-.147 2.453-.147 5.385 0 10.846 1.99 14.693 3.797 5.27 2.475 9.87 6.069 13.305 10.393 7.64 9.615 9.582 22.966 4.948 34.012-4.717 11.24-16.164 19.476-28.484 20.498-6.152.512-11.073-1.617-13.493-5.837-1.458-2.545-1.538-5.099-1.586-6.626v-.004a1759.9 1759.9 0 0 1-.488-19.785c-.109-5.866-.19-11.784-.241-17.587-.008-.872-.036-1.752-.065-2.637-.07-2.141-.14-4.357.03-6.677.378-5.165 3.798-8.767 8.928-9.4" style="fill:#fda032;fill-opacity:1;fill-rule:nonzero;stroke:none;stroke-width:.993801"/><path d="M164.427 282.587c.032.993.063 1.983.072 2.961.05 5.758.13 11.628.24 17.448.117 6.161.269 12.432.455 18.652l.051-.005c7.173-.594 14.083-5.536 16.801-12.015 2.7-6.435 1.519-14.275-3.01-19.975-2.108-2.655-4.987-4.886-8.326-6.454-2.283-1.072-4.476-1.83-6.33-2.206.013.52.03 1.053.047 1.594m-4.948-15.632c.813-.101 1.631-.147 2.453-.147 5.385 0 10.846 1.99 14.693 3.798 5.27 2.475 9.87 6.069 13.305 10.393 7.64 9.615 9.581 22.966 4.947 34.012-4.716 11.24-16.163 19.476-28.483 20.498-6.153.512-11.073-1.617-13.493-5.837-1.459-2.545-1.538-5.099-1.586-6.626v-.004a1759.9 1759.9 0 0 1-.488-19.785c-.11-5.866-.19-11.785-.241-17.587-.008-.872-.036-1.752-.065-2.637-.07-2.142-.14-4.357.03-6.677.378-5.165 3.798-8.768 8.928-9.4" style="fill:#ffc586;fill-opacity:1;fill-rule:nonzero;stroke:none;stroke-width:.993801"/><path d="M187.513 295.558c-2.534-8.296-8.613-15.289-16.344-19.174-1.969-.988-4.11-1.9-6.294-2.263-2.25-.374-4.909.15-6.019 2.366-.513 1.023-.622 2.204-.662 3.332-.044 1.24-.026 2.482-.029 3.723a605.925 605.925 0 0 0 .876 33.606c.094 1.73.209 3.458.319 5.186.091 1.416.04 2.888.247 4.288.049.331.127.666.305.948.311.491.966.634 1.496.762a18.82 18.82 0 0 0 3.361.491c2.25.129 4.504-.11 6.681-.684 4.288-1.13 8.125-3.542 11.058-6.86 6.19-6.997 7.694-16.918 5.005-25.721m-3.613 25.611c-2.943 3.636-6.923 6.351-11.405 7.707a22.498 22.498 0 0 1-6.918.972 19.264 19.264 0 0 1-4.908-.719c-1.545-.445-2.048-.853-2.138-2.467-.047-.836.002-1.674-.053-2.51a625.3 625.3 0 0 1-.556-9.594 604.607 604.607 0 0 1-.69-21.386c-.04-2.88-.061-5.761-.06-8.642 0-1.435-.01-2.871.017-4.307.023-1.168.098-2.38.491-3.49.754-2.126 2.638-3.394 4.833-3.666 2.473-.307 4.963.611 7.204 1.558 8.325 3.52 15.075 10.51 18.195 19.005 3.384 9.212 2.24 19.814-4.012 27.539" style="fill:#feac53;fill-opacity:1;fill-rule:nonzero;stroke:none;stroke-width:.993801"/><path d="M164.427 282.587h.01zm1.487 38.237a1716.48 1716.48 0 0 1-.67-35.282c-.009-.985-.04-1.981-.071-2.979l-.004-.1-.017-.528c1.608.411 3.4 1.073 5.241 1.938 3.237 1.52 6.022 3.68 8.06 6.244 4.361 5.49 5.502 13.036 2.907 19.223-2.524 6.014-8.803 10.65-15.446 11.484m-1.535-40.576a.745.745 0 0 0-.745.763c.012.49.028.992.045 1.5l.003.1c.032.988.062 1.97.071 2.944.05 5.77.13 11.643.24 17.455.118 6.19.27 12.47.455 18.66a.746.746 0 0 0 .811.72c7.487-.62 14.654-5.749 17.475-12.474 2.804-6.68 1.581-14.817-3.115-20.726-2.177-2.743-5.15-5.049-8.59-6.666-2.31-1.084-4.557-1.866-6.5-2.262a.692.692 0 0 0-.15-.014m.249 54.591c-5.05 0-9.035-1.97-11.08-5.537-1.366-2.384-1.443-4.822-1.488-6.28-.2-6.601-.363-13.255-.488-19.779-.11-5.886-.19-11.801-.241-17.58-.008-.878-.036-1.764-.065-2.655-.07-2.12-.139-4.313.028-6.598.35-4.789 3.521-8.128 8.277-8.715a19.355 19.355 0 0 1 2.36-.141c5.328 0 10.759 2.027 14.377 3.726 5.167 2.427 9.675 5.947 13.039 10.182 7.472 9.406 9.373 22.462 4.843 33.26-4.612 10.99-15.807 19.045-27.857 20.044-.58.05-1.15.073-1.705.073m-2.696-68.776c-.872 0-1.727.052-2.543.152-5.505.68-9.177 4.546-9.582 10.087-.173 2.363-.101 4.596-.031 6.755.028.879.056 1.754.064 2.62.05 5.783.132 11.703.242 17.594.124 6.53.288 13.19.488 19.792.05 1.602.132 4.274 1.685 6.98 2.57 4.482 7.733 6.75 14.202 6.21 12.588-1.045 24.285-9.465 29.107-20.953 4.738-11.294 2.756-24.94-5.05-34.764-3.506-4.414-8.198-8.08-13.57-10.604-3.757-1.765-9.41-3.869-15.012-3.869" style="fill:#fff;fill-opacity:1;fill-rule:nonzero;stroke:none;stroke-width:.993801"/></g><g style="filter:url(#b)" transform="matrix(1.33333 0 0 -1.33333 -190 459.374)"><path d="M0 0c-.577-4.958-1.652-8.602-3.383-11.471-1.856-3.078-4.718-5.329-7.654-6.023-3.034-.715-6.681.077-9.525 2.066-2.758 1.929-4.908 4.993-6.052 8.626-1.065 3.378-1.34 7.395-.819 11.936.632 5.496 2.262 9.738 4.843 12.607a12.314 12.314 0 0 0 5.336 3.442c3.897 1.24 6.6 1.531 8.031.865 3.627-1.691 6.521-4.562 7.937-7.879C.267 10.536.687 5.9 0 0m-3.309 34.737c-6.375 2.972-13.436 1.302-18.194-.215a26.147 26.147 0 0 1-11.495-7.417c-4.565-5.075-7.372-11.929-8.343-20.374-.747-6.506-.285-12.475 1.373-17.738 2.067-6.561 6.109-12.205 11.383-15.894 4.521-3.162 9.951-4.847 15.267-4.847 1.86 0 3.707.206 5.496.628 6.622 1.563 12.61 6.089 16.427 12.418 2.799 4.641 4.484 10.069 5.301 17.082.977 8.389.219 15.353-2.317 21.289-2.795 6.542-8.086 11.894-14.898 15.068" style="fill:#df801a;fill-opacity:1;fill-rule:nonzero;stroke:none" transform="matrix(1.00845 0 0 1.00845 259.683 293.773)" clip-path="url(#c)"/><path d="M0 0c-.577-4.958-1.652-8.602-3.383-11.471-1.856-3.078-4.718-5.329-7.654-6.023-3.034-.715-6.681.077-9.525 2.066-2.758 1.929-4.908 4.993-6.052 8.626-1.065 3.378-1.34 7.395-.819 11.936.632 5.496 2.262 9.738 4.843 12.607a12.314 12.314 0 0 0 5.336 3.442c3.897 1.24 6.6 1.531 8.031.865 3.627-1.691 6.521-4.562 7.937-7.879C.267 10.536.687 5.9 0 0m-3.309 34.737c-6.375 2.971-13.436 1.302-18.194-.215a26.147 26.147 0 0 1-11.495-7.417v-.001c-4.565-5.074-7.372-11.928-8.343-20.373-.747-6.506-.285-12.475 1.373-17.738 2.067-6.561 6.109-12.205 11.383-15.894 4.521-3.162 9.951-4.847 15.267-4.847 1.86 0 3.707.206 5.496.628 6.622 1.563 12.61 6.089 16.427 12.418 2.799 4.641 4.484 10.069 5.301 17.082.977 8.389.219 15.353-2.317 21.289-2.795 6.542-8.086 11.893-14.898 15.068" style="fill:#fda032;fill-opacity:1;fill-rule:nonzero;stroke:none" transform="matrix(1.00845 0 0 1.00845 256.655 295.79)" clip-path="url(#d)"/><path d="M0 0c-.577-4.958-1.652-8.602-3.383-11.471-1.856-3.078-4.718-5.329-7.654-6.023-3.034-.715-6.681.077-9.525 2.066-2.758 1.929-4.908 4.993-6.052 8.626-1.065 3.378-1.34 7.395-.819 11.936.632 5.496 2.262 9.738 4.843 12.607a12.314 12.314 0 0 0 5.336 3.442c3.897 1.24 6.6 1.531 8.031.865 3.627-1.691 6.521-4.562 7.937-7.879C.267 10.536.687 5.9 0 0m-3.309 34.737c-6.375 2.971-13.436 1.302-18.194-.215a26.147 26.147 0 0 1-11.495-7.417v-.001c-4.565-5.074-7.372-11.928-8.343-20.373-.747-6.506-.285-12.475 1.373-17.738 2.067-6.561 6.109-12.205 11.383-15.894 4.521-3.162 9.951-4.847 15.267-4.847 1.86 0 3.707.206 5.496.628 6.622 1.563 12.61 6.089 16.427 12.418 2.799 4.641 4.484 10.069 5.301 17.082.977 8.389.219 15.353-2.317 21.289-2.795 6.542-8.086 11.893-14.898 15.068" style="fill:#ffc586;fill-opacity:1;fill-rule:nonzero;stroke:none" transform="matrix(1.00845 0 0 1.00845 253.628 297.809)" clip-path="url(#e)"/><path d="M0 0c-.847-4.927-1.959-10.115-4.373-14.541-1.154-2.117-2.667-4.077-4.612-5.526-1.87-1.394-4.061-2.3-6.348-2.735-4.727-.9-9.579.302-13.52 3.003-8.765 6.007-11.469 17.249-10.514 27.312.489 5.163 1.998 10.33 5 14.608 1.538 2.191 3.49 4.093 5.753 5.527 2.641 1.672 5.365 2.282 8.382 2.927.925.198 1.854.396 2.797.452 3.09.184 6.374-.943 8.943-2.61 4.134-2.682 6.808-7.144 8.138-11.81C1.186 11.206.943 5.484 0 0m1.328 13.641C.514 18.654-1.63 23.6-5.325 27.164c-3.506 3.381-8.544 5.376-13.436 4.808a14.15 14.15 0 0 1-2.608-.551c-4.259-.55-8.219-2.691-11.269-5.713-3.805-3.77-6.064-8.841-7.119-14.04-2.12-10.443-.353-22.695 7.772-30.229 3.612-3.349 8.265-5.472 13.228-5.534 4.968-.062 9.815 1.92 13.025 5.763C-2.452-14.404-.979-9.329.129-4.427 1.463 1.475 2.307 7.616 1.328 13.641" style="fill:#feac53;fill-opacity:1;fill-rule:nonzero;stroke:none" transform="matrix(1.00845 0 0 1.00845 259.66 295.522)" clip-path="url(#f)"/><path d="M0 0c-1.206 0-3.044-.289-5.845-1.181a11.55 11.55 0 0 1-5.006-3.229c-2.475-2.751-4.042-6.853-4.655-12.191-.51-4.436-.244-8.347.788-11.624 1.096-3.477 3.144-6.401 5.768-8.237 2.675-1.87 6.09-2.617 8.923-1.951 2.744.649 5.429 2.772 7.183 5.681 1.674 2.774 2.716 6.324 3.281 11.17.671 5.767.269 10.277-1.231 13.787-1.345 3.149-4.102 5.88-7.563 7.494C1.302-.123.785 0 0 0m-2.15-40.15c-2.614 0-5.384.866-7.66 2.459-2.893 2.024-5.144 5.225-6.338 9.015-1.096 3.479-1.381 7.6-.848 12.246.65 5.654 2.343 10.036 5.03 13.024A13.074 13.074 0 0 0-6.3.249c4.139 1.317 6.945 1.591 8.575.83 3.794-1.768 6.823-4.781 8.31-8.265 1.605-3.756 2.045-8.517 1.342-14.55-.59-5.066-1.698-8.806-3.486-11.771-1.959-3.246-4.995-5.626-8.125-6.365a10.734 10.734 0 0 0-2.466-.278m2.142 54.132c-3.738 0-7.312-.939-10.086-1.823a25.41 25.41 0 0 1-11.165-7.204c-4.459-4.957-7.203-11.672-8.155-19.958-.735-6.402-.283-12.265 1.344-17.427 2.016-6.404 5.958-11.911 11.096-15.505 4.344-3.038 9.613-4.711 14.837-4.711 1.823 0 3.614.204 5.325.607 6.426 1.517 12.243 5.918 15.957 12.077 2.742 4.545 4.393 9.878 5.198 16.78.961 8.256.221 15.095-2.262 20.908C19.358 4.097 14.2 9.312 7.557 12.409c-2.467 1.149-5.053 1.573-7.565 1.573m-2.129-68.128c-5.529 0-11.103 1.77-15.696 4.982-5.408 3.783-9.553 9.565-11.669 16.283-1.689 5.365-2.161 11.437-1.402 18.048.989 8.604 3.858 15.598 8.53 20.79a26.898 26.898 0 0 0 11.825 7.631c4.875 1.554 12.122 3.264 18.738.18C15.17 10.515 20.593 5.027 23.46-1.685c2.589-6.059 3.365-13.148 2.373-21.671-.83-7.122-2.547-12.645-5.403-17.382-3.921-6.501-10.08-11.151-16.899-12.76a24.721 24.721 0 0 0-5.668-.648" style="fill:#fff;fill-opacity:1;fill-rule:nonzero;stroke:none" transform="matrix(1.00845 0 0 1.00845 242.352 319.64)" clip-path="url(#g)"/></g><g style="filter:url(#h)" transform="matrix(1.33333 0 0 -1.33333 -190 459.374)"><path d="M0 0c-.577-4.958-1.652-8.602-3.383-11.471-1.856-3.078-4.718-5.329-7.654-6.023-3.034-.715-6.681.077-9.525 2.066-2.758 1.929-4.908 4.993-6.052 8.626-1.065 3.378-1.34 7.395-.819 11.936.632 5.496 2.262 9.738 4.843 12.607a12.314 12.314 0 0 0 5.336 3.442c3.897 1.24 6.6 1.531 8.031.865 3.627-1.691 6.521-4.562 7.937-7.879C.267 10.536.687 5.9 0 0m-3.309 34.737c-6.375 2.972-13.436 1.302-18.194-.215a26.147 26.147 0 0 1-11.495-7.417c-4.565-5.075-7.372-11.929-8.343-20.374-.747-6.506-.285-12.475 1.373-17.738 2.067-6.561 6.109-12.205 11.383-15.894 4.521-3.162 9.951-4.847 15.267-4.847 1.86 0 3.707.206 5.496.628 6.622 1.563 12.61 6.089 16.427 12.418 2.799 4.641 4.484 10.069 5.301 17.082.977 8.389.219 15.353-2.317 21.289-2.795 6.542-8.086 11.894-14.898 15.068" style="fill:#df801a;fill-opacity:1;fill-rule:nonzero;stroke:none" transform="matrix(1.00845 0 0 1.00845 330.471 293.773)" clip-path="url(#i)"/><path d="M0 0c-.577-4.958-1.652-8.602-3.383-11.471-1.856-3.078-4.718-5.329-7.654-6.023-3.034-.715-6.681.077-9.525 2.066-2.758 1.929-4.908 4.993-6.052 8.626-1.065 3.378-1.34 7.395-.819 11.936.632 5.496 2.262 9.738 4.843 12.607a12.314 12.314 0 0 0 5.336 3.442c3.897 1.24 6.6 1.531 8.031.865 3.627-1.691 6.521-4.562 7.937-7.879C.267 10.536.687 5.9 0 0m-3.309 34.737c-6.375 2.971-13.436 1.302-18.194-.215a26.147 26.147 0 0 1-11.495-7.417v-.001c-4.565-5.074-7.372-11.928-8.343-20.373-.747-6.506-.285-12.475 1.373-17.738 2.067-6.561 6.109-12.205 11.383-15.894 4.521-3.162 9.951-4.847 15.267-4.847 1.86 0 3.707.206 5.496.628 6.622 1.563 12.61 6.089 16.427 12.418 2.799 4.641 4.484 10.069 5.301 17.082.977 8.389.219 15.353-2.317 21.289-2.795 6.542-8.086 11.893-14.898 15.068" style="fill:#fda032;fill-opacity:1;fill-rule:nonzero;stroke:none" transform="matrix(1.00845 0 0 1.00845 327.444 295.79)" clip-path="url(#j)"/><path d="M0 0c-.577-4.958-1.652-8.602-3.383-11.471-1.856-3.078-4.718-5.329-7.654-6.023-3.034-.715-6.681.077-9.525 2.066-2.758 1.929-4.908 4.993-6.052 8.626-1.065 3.378-1.34 7.395-.819 11.936.632 5.496 2.262 9.738 4.843 12.607a12.314 12.314 0 0 0 5.336 3.442c3.897 1.24 6.6 1.531 8.031.865 3.627-1.691 6.521-4.562 7.937-7.879C.267 10.536.687 5.9 0 0m-3.309 34.737c-6.375 2.971-13.436 1.302-18.194-.215a26.147 26.147 0 0 1-11.495-7.417v-.001c-4.565-5.074-7.372-11.928-8.343-20.373-.747-6.506-.285-12.475 1.373-17.738 2.067-6.561 6.109-12.205 11.383-15.894 4.521-3.162 9.951-4.847 15.267-4.847 1.86 0 3.707.206 5.496.628 6.622 1.563 12.61 6.089 16.427 12.418 2.799 4.641 4.484 10.069 5.301 17.082.977 8.389.219 15.353-2.317 21.289-2.795 6.542-8.086 11.893-14.898 15.068" style="fill:#ffc586;fill-opacity:1;fill-rule:nonzero;stroke:none" transform="matrix(1.00845 0 0 1.00845 324.417 297.809)" clip-path="url(#k)"/><path d="M0 0c-.847-4.927-1.959-10.115-4.373-14.541-1.154-2.117-2.667-4.077-4.612-5.526-1.87-1.394-4.061-2.3-6.348-2.735-4.727-.9-9.579.302-13.52 3.003-8.765 6.007-11.469 17.249-10.514 27.312.489 5.163 1.998 10.33 5 14.608 1.538 2.191 3.49 4.093 5.753 5.527 2.641 1.672 5.365 2.282 8.382 2.927.925.198 1.854.396 2.797.452 3.09.184 6.374-.943 8.943-2.61 4.134-2.682 6.808-7.144 8.138-11.81C1.186 11.206.943 5.484 0 0m1.328 13.641C.514 18.654-1.63 23.6-5.325 27.164c-3.506 3.381-8.544 5.376-13.436 4.808a14.15 14.15 0 0 1-2.608-.551c-4.259-.55-8.219-2.691-11.269-5.713-3.805-3.77-6.064-8.841-7.119-14.04-2.12-10.443-.353-22.695 7.772-30.229 3.612-3.349 8.265-5.472 13.228-5.534 4.968-.062 9.815 1.92 13.025 5.763C-2.452-14.404-.979-9.329.129-4.427 1.463 1.475 2.307 7.616 1.328 13.641" style="fill:#feac53;fill-opacity:1;fill-rule:nonzero;stroke:none" transform="matrix(1.00845 0 0 1.00845 330.448 295.522)" clip-path="url(#l)"/><path d="M0 0c-1.206 0-3.044-.289-5.845-1.181a11.55 11.55 0 0 1-5.006-3.229c-2.475-2.751-4.042-6.853-4.655-12.191-.51-4.436-.244-8.347.788-11.624 1.096-3.477 3.144-6.401 5.768-8.237 2.675-1.87 6.09-2.617 8.923-1.951 2.744.649 5.429 2.772 7.183 5.681 1.674 2.774 2.716 6.324 3.281 11.17.671 5.767.269 10.277-1.231 13.787-1.345 3.149-4.102 5.88-7.563 7.494C1.302-.123.785 0 0 0m-2.15-40.15c-2.614 0-5.384.866-7.66 2.459-2.893 2.024-5.144 5.225-6.338 9.015-1.096 3.479-1.381 7.6-.848 12.246.65 5.654 2.343 10.036 5.03 13.024A13.074 13.074 0 0 0-6.3.249c4.139 1.317 6.945 1.591 8.575.83 3.794-1.768 6.823-4.781 8.31-8.265 1.605-3.756 2.045-8.517 1.342-14.55-.59-5.066-1.698-8.806-3.486-11.771-1.959-3.246-4.995-5.626-8.125-6.365a10.734 10.734 0 0 0-2.466-.278m2.142 54.132c-3.738 0-7.312-.939-10.086-1.823a25.41 25.41 0 0 1-11.165-7.204c-4.459-4.957-7.203-11.672-8.155-19.958-.735-6.402-.283-12.265 1.344-17.427 2.016-6.404 5.958-11.911 11.096-15.505 4.344-3.038 9.613-4.711 14.837-4.711 1.823 0 3.614.204 5.325.607 6.426 1.517 12.243 5.918 15.957 12.077 2.742 4.545 4.393 9.878 5.198 16.78.961 8.256.221 15.095-2.262 20.908C19.358 4.097 14.2 9.312 7.557 12.409c-2.467 1.149-5.053 1.573-7.565 1.573m-2.129-68.128c-5.529 0-11.103 1.77-15.696 4.982-5.408 3.783-9.553 9.565-11.669 16.283-1.689 5.365-2.161 11.437-1.402 18.048.989 8.604 3.858 15.598 8.53 20.79a26.898 26.898 0 0 0 11.825 7.631c4.875 1.554 12.122 3.264 18.738.18C15.17 10.515 20.593 5.027 23.46-1.685c2.589-6.059 3.365-13.148 2.373-21.671-.83-7.122-2.547-12.645-5.403-17.382-3.921-6.501-10.08-11.151-16.899-12.76a24.721 24.721 0 0 0-5.668-.648" style="fill:#fff;fill-opacity:1;fill-rule:nonzero;stroke:none" transform="matrix(1.00845 0 0 1.00845 313.14 319.64)" clip-path="url(#m)"/></g><g transform="matrix(1.33333 0 0 -1.33333 -175.217 459.374)" style="filter:url(#n)"><path d="M0 0c1.708 2.135 4.133 3.448 6.157 3.337 1.962-.105 4.187-1.593 5.67-3.791 1.521-2.255 2.521-5.254 3.245-9.725.266-1.646.454-3.313.61-4.988l-20.739-.594A62.64 62.64 0 0 0-4.002-9.67C-3.007-5.241-1.735-2.168 0 0m-9.188-51.917a7 7 0 0 1 6.668 9.138 63.185 63.185 0 0 0-2.693 13.008l21.248.609c-.125-4.437-.403-8.882-.686-13.267a6.998 6.998 0 0 1 6.534-7.436c3.863-.258 7.187 2.676 7.436 6.534.743 11.502 1.512 23.395-.427 35.388-.716 4.425-1.983 10.165-5.458 15.318-3.97 5.884-10.149 9.602-16.531 9.942-6.587.349-13.258-2.851-17.834-8.57-4.09-5.11-5.8-11.207-6.731-15.349a77.2 77.2 0 0 1 1.81-40.449 7.002 7.002 0 0 1 6.664-4.866" style="fill:#df801a;fill-opacity:1;fill-rule:nonzero;stroke:none" transform="matrix(.99309 0 0 .99309 240.85 228.373)" clip-path="url(#o)"/><path d="M0 0c1.708 2.135 4.133 3.448 6.157 3.337 1.962-.105 4.187-1.593 5.67-3.791 1.521-2.255 2.521-5.254 3.245-9.725.266-1.646.454-3.313.61-4.988l-20.739-.594A62.64 62.64 0 0 0-4.002-9.67C-3.007-5.241-1.735-2.168 0 0m-9.188-51.917a7 7 0 0 1 6.668 9.138 63.185 63.185 0 0 0-2.693 13.008l21.248.609c-.125-4.437-.403-8.882-.686-13.267a6.998 6.998 0 0 1 6.534-7.436c3.863-.258 7.187 2.676 7.436 6.534.743 11.502 1.512 23.395-.427 35.388-.716 4.425-1.983 10.165-5.458 15.318-3.97 5.884-10.149 9.602-16.531 9.942-6.587.349-13.258-2.851-17.834-8.57-4.09-5.11-5.8-11.207-6.731-15.349a77.2 77.2 0 0 1 1.81-40.449 7.002 7.002 0 0 1 6.664-4.866" style="fill:#fda032;fill-opacity:1;fill-rule:nonzero;stroke:none" transform="matrix(.99309 0 0 .99309 237.87 230.36)" clip-path="url(#p)"/><path d="M0 0c1.708 2.135 4.133 3.448 6.157 3.337 1.962-.105 4.187-1.593 5.67-3.791 1.521-2.255 2.521-5.254 3.245-9.725.266-1.646.454-3.313.61-4.988l-20.739-.594A62.64 62.64 0 0 0-4.002-9.67C-3.007-5.241-1.735-2.168 0 0m-9.188-51.917a7 7 0 0 1 6.668 9.138 63.185 63.185 0 0 0-2.693 13.008l21.248.609c-.125-4.437-.403-8.882-.686-13.267a6.998 6.998 0 0 1 6.534-7.436c3.863-.258 7.187 2.676 7.436 6.534.743 11.502 1.512 23.395-.427 35.388-.716 4.425-1.983 10.165-5.458 15.318-3.97 5.884-10.149 9.602-16.531 9.942-6.587.349-13.258-2.851-17.834-8.57-4.09-5.11-5.8-11.207-6.731-15.349a77.2 77.2 0 0 1 1.81-40.449 7.002 7.002 0 0 1 6.664-4.866" style="fill:#ffc586;fill-opacity:1;fill-rule:nonzero;stroke:none" transform="matrix(.99309 0 0 .99309 234.889 232.347)" clip-path="url(#q)"/><path d="m0 0-7.994-.374a71.656 71.656 0 0 0 .004 3.11c.187 7.909 1.697 16.309 7.131 22.399 2.351 2.635 5.356 4.723 8.794 5.635 3.476.921 7.347.688 10.552-1.015 7.472-3.971 8.62-13.786 9.404-21.3.247-2.368.411-4.745.503-7.125L0 0m29.126 5.913c-.366 4.534-.853 9.201-2.119 13.584-1.076 3.725-2.946 7.383-6.042 9.824-2.892 2.279-6.635 3.224-10.279 2.926-3.676-.3-7.079-1.81-9.912-4.147-6.298-5.195-8.845-13.357-9.539-21.227-.785-8.9.221-18.013 2.743-26.575.322-1.091.67-2.174 1.041-3.249.209-.605 1.175-.345.965.266A72.933 72.933 0 0 0-7.955-1.373L20.404-.045l8.017.376a108.113 108.113 0 0 0-1.047-18.66 114.382 114.382 0 0 0-.52-3.241c-.11-.63.853-.9.964-.266 1.6 9.15 2.055 18.488 1.308 27.749" style="fill:#feac53;fill-opacity:1;fill-rule:nonzero;stroke:none" transform="matrix(.99309 0 0 .99309 230.311 210.864)" clip-path="url(#r)"/><path d="M0 0h.01zm5.919 2.593c-1.734 0-3.85-1.207-5.334-3.062-1.661-2.075-2.886-5.051-3.856-9.366a62.337 62.337 0 0 1-.929-5.151l19.058.546a68.645 68.645 0 0 1-.526 4.142c-.706 4.358-1.67 7.265-3.127 9.424-1.356 2.011-3.353 3.37-5.088 3.462a3.27 3.27 0 0 1-.198.005M-5.058-16.511a.749.749 0 0 0-.744.842 64.043 64.043 0 0 0 1.068 6.163C-3.712-4.961-2.394-1.791-.585.469 1.272 2.79 3.944 4.204 6.198 4.086c2.187-.117 4.641-1.734 6.251-4.121 1.584-2.349 2.621-5.441 3.363-10.024.238-1.472.434-3.073.617-5.038a.752.752 0 0 0-.725-.819l-20.74-.594-.022-.001M5.923 16.593c-6.043 0-12.064-3.06-16.269-8.315-3.992-4.988-5.67-10.975-6.584-15.044a76.451 76.451 0 0 1 1.792-40.056 6.23 6.23 0 0 1 5.95-4.345c.646 0 1.288.101 1.909.3a6.212 6.212 0 0 1 3.65 3.092 6.21 6.21 0 0 1 .395 4.767 64.051 64.051 0 0 0-2.725 13.163.748.748 0 0 0 .724.824l21.249.608a.747.747 0 0 0 .771-.77c-.123-4.352-.385-8.595-.688-13.294a6.206 6.206 0 0 1 1.542-4.528 6.211 6.211 0 0 1 4.292-2.112 6.139 6.139 0 0 1 4.521 1.531 6.217 6.217 0 0 1 2.119 4.303c.741 11.462 1.506 23.312-.419 35.22-.704 4.349-1.946 9.986-5.34 15.018-3.839 5.691-9.801 9.285-15.949 9.613-.313.017-.627.025-.94.025m-15.111-69.26a7.724 7.724 0 0 0-7.378 5.387 77.954 77.954 0 0 0-1.828 40.843c.948 4.214 2.691 10.421 6.877 15.653 4.724 5.903 11.64 9.208 18.46 8.85 6.615-.353 13.012-4.193 17.112-10.272 3.558-5.274 4.849-11.117 5.577-15.618 1.953-12.075 1.181-24.011.436-35.554a7.707 7.707 0 0 0-2.627-5.336 7.703 7.703 0 0 0-5.608-1.9 7.702 7.702 0 0 0-5.321 2.619A7.702 7.702 0 0 0 14.6-42.38c.284 4.397.531 8.393.661 12.445l-19.643-.562A62.536 62.536 0 0 1-1.806-42.55c1.304-4.07-.945-8.441-5.015-9.745a7.733 7.733 0 0 0-2.367-.372" style="fill:#fff;fill-opacity:1;fill-rule:nonzero;stroke:none" transform="matrix(.99309 0 0 .99309 234.889 232.347)" clip-path="url(#s)"/></g><g transform="matrix(1.33333 0 0 -1.33333 -175.217 459.374)" style="filter:url(#t)"><path d="M174.306 192.593c.032.993.063 1.983.072 2.962.05 5.757.13 11.627.24 17.447.117 6.161.269 12.432.454 18.652l.052-.005c7.173-.594 14.083-5.536 16.801-12.015 2.7-6.434 1.519-14.275-3.01-19.975-2.108-2.654-4.987-4.886-8.326-6.454-2.283-1.072-4.476-1.83-6.33-2.206.012.52.03 1.053.047 1.594m-4.948-15.631c.813-.102 1.63-.147 2.453-.147 5.385 0 10.846 1.99 14.693 3.797 5.27 2.475 9.87 6.069 13.305 10.393 7.64 9.615 9.581 22.966 4.947 34.012-4.716 11.24-16.163 19.476-28.483 20.498-6.153.512-11.073-1.617-13.493-5.837-1.459-2.545-1.538-5.099-1.586-6.626v-.004a1759.9 1759.9 0 0 1-.488-19.785c-.11-5.866-.19-11.784-.241-17.587-.008-.872-.036-1.752-.065-2.637-.07-2.141-.14-4.357.03-6.677.377-5.165 3.798-8.767 8.928-9.4" style="fill:#df801a;fill-opacity:1;fill-rule:nonzero;stroke:none;stroke-width:.993801"/><path d="M171.323 194.582c.032.993.063 1.983.072 2.961.05 5.758.13 11.628.24 17.448.116 6.161.268 12.432.454 18.652l.052-.005c7.173-.594 14.083-5.536 16.801-12.015 2.7-6.435 1.519-14.275-3.01-19.975-2.108-2.655-4.987-4.886-8.326-6.454-2.283-1.072-4.476-1.83-6.33-2.206.012.52.03 1.053.047 1.594m-4.948-15.632c.813-.101 1.63-.147 2.453-.147 5.385 0 10.846 1.99 14.693 3.798 5.27 2.475 9.87 6.069 13.305 10.393 7.64 9.615 9.581 22.966 4.947 34.012-4.716 11.24-16.163 19.476-28.483 20.498-6.153.512-11.073-1.617-13.493-5.837-1.459-2.545-1.538-5.099-1.586-6.626v-.004a1759.9 1759.9 0 0 1-.488-19.785c-.11-5.866-.19-11.785-.242-17.587-.008-.872-.035-1.752-.064-2.637-.07-2.142-.14-4.357.03-6.677.377-5.165 3.798-8.768 8.928-9.4" style="fill:#fda032;fill-opacity:1;fill-rule:nonzero;stroke:none;stroke-width:.993801"/><path d="M168.34 196.57c.032.994.062 1.983.071 2.962.05 5.757.13 11.628.24 17.447.117 6.162.27 12.433.455 18.653l.052-.005c7.173-.594 14.083-5.536 16.801-12.015 2.7-6.435 1.518-14.275-3.01-19.975-2.108-2.655-4.987-4.886-8.326-6.454-2.283-1.072-4.476-1.83-6.33-2.206.012.52.029 1.053.047 1.594m-4.948-15.632c.813-.101 1.63-.147 2.452-.147 5.386 0 10.847 1.99 14.694 3.797 5.269 2.476 9.87 6.07 13.305 10.394 7.64 9.615 9.581 22.965 4.947 34.011-4.717 11.24-16.163 19.477-28.483 20.499-6.153.511-11.073-1.617-13.493-5.837-1.46-2.545-1.539-5.1-1.586-6.627v-.004a1759.9 1759.9 0 0 1-.488-19.784c-.11-5.867-.191-11.785-.242-17.588-.008-.871-.036-1.752-.064-2.636-.07-2.142-.14-4.357.03-6.677.377-5.165 3.798-8.768 8.928-9.4" style="fill:#ffc586;fill-opacity:1;fill-rule:nonzero;stroke:none;stroke-width:.993801"/><path d="M191.426 209.542c-2.534-8.297-8.613-15.289-16.344-19.174-1.969-.989-4.11-1.9-6.294-2.264-2.25-.373-4.91.15-6.02 2.367-.512 1.023-.622 2.204-.661 3.332-.044 1.24-.026 2.482-.03 3.723a605.925 605.925 0 0 0 .876 33.606c.095 1.73.21 3.457.32 5.186.09 1.416.04 2.888.247 4.288.049.33.126.666.305.948.311.49.966.634 1.496.762a18.82 18.82 0 0 0 3.36.491c2.25.128 4.505-.11 6.682-.685 4.287-1.129 8.124-3.542 11.058-6.859 6.19-6.997 7.694-16.918 5.005-25.721m-3.614 25.61c-2.942 3.637-6.923 6.352-11.405 7.708a22.498 22.498 0 0 1-6.917.972 19.264 19.264 0 0 1-4.909-.719c-1.544-.445-2.047-.853-2.137-2.467-.047-.836.002-1.674-.053-2.51a625.3 625.3 0 0 1-.556-9.594 604.607 604.607 0 0 1-.69-21.387 596.96 596.96 0 0 1-.061-8.642c0-1.435-.01-2.87.018-4.306.023-1.168.097-2.38.49-3.491.754-2.125 2.638-3.393 4.834-3.665 2.472-.307 4.963.611 7.204 1.558 8.325 3.52 15.075 10.51 18.194 19.005 3.384 9.212 2.24 19.814-4.012 27.539" style="fill:#feac53;fill-opacity:1;fill-rule:nonzero;stroke:none;stroke-width:.993801"/><path d="M168.34 196.57h.01zm1.487 38.238a1716.48 1716.48 0 0 1-.67-35.282c-.01-.986-.04-1.981-.072-2.98l-.004-.1c-.006-.176-.01-.352-.017-.527 1.608.411 3.4 1.073 5.241 1.938 3.237 1.52 6.023 3.68 8.06 6.244 4.362 5.49 5.503 13.035 2.907 19.223-2.523 6.013-8.802 10.65-15.446 11.484m-1.534-40.577a.745.745 0 0 0-.745.764c.012.49.027.991.044 1.5l.003.1c.032.987.063 1.97.072 2.944.05 5.77.13 11.643.24 17.454.118 6.192.27 12.47.455 18.66a.746.746 0 0 0 .81.721c7.488-.62 14.654-5.749 17.476-12.474 2.803-6.681 1.58-14.817-3.115-20.726-2.177-2.743-5.15-5.049-8.591-6.666-2.31-1.084-4.556-1.866-6.5-2.262a.692.692 0 0 0-.149-.015m.249 54.592c-5.051 0-9.035-1.97-11.08-5.538-1.367-2.383-1.443-4.822-1.488-6.279-.2-6.601-.364-13.255-.488-19.78-.11-5.885-.19-11.8-.242-17.578-.008-.879-.035-1.765-.064-2.656-.07-2.12-.14-4.313.028-6.598.35-4.789 3.52-8.128 8.276-8.715a19.355 19.355 0 0 1 2.361-.142c5.327 0 10.758 2.028 14.377 3.727 5.166 2.427 9.674 5.947 13.038 10.182 7.473 9.406 9.374 22.462 4.843 33.26-4.611 10.99-15.806 19.044-27.856 20.044-.58.049-1.15.073-1.706.073m-2.696-68.776c-.871 0-1.727.051-2.543.152-5.505.68-9.177 4.545-9.581 10.087-.173 2.363-.101 4.596-.032 6.755.029.878.057 1.754.065 2.62.05 5.782.132 11.702.241 17.594.124 6.53.288 13.19.488 19.792.05 1.602.132 4.274 1.686 6.98 2.569 4.482 7.732 6.75 14.201 6.209 12.589-1.045 24.286-9.464 29.107-20.952 4.739-11.294 2.756-24.94-5.05-34.765-3.505-4.413-8.198-8.08-13.57-10.603-3.757-1.765-9.41-3.87-15.012-3.87" style="fill:#fff;fill-opacity:1;fill-rule:nonzero;stroke:none;stroke-width:.993801"/></g><g transform="matrix(1.33333 0 0 -1.33333 -175.217 459.374)" style="filter:url(#u)"><path d="M0 0c-.075-9.079-.048-18.956-.023-28.507.025-9.502.051-19.327-.023-28.319a7 7 0 0 1 6.942-7.057h.059a7 7 0 0 1 6.999 6.942c.055 6.812.055 14.073.04 21.308a140.776 140.776 0 0 1 12.603-1.33 209.684 209.684 0 0 1 2.715-23.557 7.002 7.002 0 0 1 8.093-5.701 6.999 6.999 0 0 1 5.701 8.093 195.608 195.608 0 0 0-2.48 21.01c3.149.122 6.298.336 9.442.668a7.001 7.001 0 0 1 6.226 7.698c-.406 3.844-3.856 6.626-7.696 6.225a127.987 127.987 0 0 0-8.355-.589c.061 7.08.507 14.159 1.34 21.21A7 7 0 1 1 27.68-.262 208.998 208.998 0 0 1 26.244-22.9c-4.113.291-8.211.772-12.284 1.463-.015 7.251-.016 14.524.04 21.322a7 7 0 0 1-6.942 7.057h-.059A7 7 0 0 1 0 0" style="fill:#df801a;fill-opacity:1;fill-rule:nonzero;stroke:none" transform="translate(340.465 239.297) scale(.94207)" clip-path="url(#v)"/><path d="M0 0c-.075-9.079-.048-18.956-.023-28.507.025-9.502.051-19.327-.023-28.319a7 7 0 0 1 6.942-7.057h.059a7 7 0 0 1 6.999 6.942c.055 6.812.055 14.073.04 21.308a140.776 140.776 0 0 1 12.603-1.33 209.684 209.684 0 0 1 2.715-23.557 7.002 7.002 0 0 1 8.093-5.701 6.999 6.999 0 0 1 5.701 8.093 195.608 195.608 0 0 0-2.48 21.01c3.149.122 6.298.336 9.442.668a7.001 7.001 0 0 1 6.226 7.698c-.406 3.844-3.856 6.626-7.696 6.225a127.987 127.987 0 0 0-8.355-.589c.061 7.08.507 14.159 1.34 21.21A7 7 0 1 1 27.68-.262 208.998 208.998 0 0 1 26.244-22.9c-4.113.291-8.211.772-12.284 1.463-.015 7.251-.016 14.524.04 21.322a7 7 0 0 1-6.942 7.057h-.059A7 7 0 0 1 0 0" style="fill:#fda032;fill-opacity:1;fill-rule:nonzero;stroke:none" transform="translate(337.637 241.183) scale(.94207)" clip-path="url(#w)"/><path d="M0 0c-.075-9.079-.048-18.956-.023-28.507.025-9.502.051-19.327-.023-28.319a7 7 0 0 1 6.942-7.057h.059a7 7 0 0 1 6.999 6.942c.055 6.812.055 14.073.04 21.308a140.776 140.776 0 0 1 12.603-1.33 209.684 209.684 0 0 1 2.715-23.557 7.002 7.002 0 0 1 8.093-5.701 6.999 6.999 0 0 1 5.701 8.093 195.608 195.608 0 0 0-2.48 21.01c3.149.122 6.298.336 9.442.668a7.001 7.001 0 0 1 6.226 7.698c-.406 3.844-3.856 6.626-7.696 6.225a127.987 127.987 0 0 0-8.355-.589c.061 7.08.507 14.159 1.34 21.21A7 7 0 1 1 27.68-.262 208.998 208.998 0 0 1 26.244-22.9c-4.113.291-8.211.772-12.284 1.463-.015 7.251-.016 14.524.04 21.322a7 7 0 0 1-6.942 7.057h-.059A7 7 0 0 1 0 0" style="fill:#ffc586;fill-opacity:1;fill-rule:nonzero;stroke:none" transform="translate(334.81 243.068) scale(.94207)" clip-path="url(#x)"/><path d="M0 0a222.44 222.44 0 0 0-14.355-.367c-.083 5.571.077 11.147.52 16.703.36 4.52.897 9.024 1.606 13.503.099.629-.864.9-.965.266a178.27 178.27 0 0 1-2.163-24.237 174.792 174.792 0 0 1-.015-6.229c-5.696.061-11.389.336-17.063.84-2.875.255-5.744.572-8.607.939l.008 16.808.007 12.973c.001.644-.999.645-1 0l-.024-46.404-.007-12.974c-.001-.643.999-.644 1 0l.015 28.596A221.353 221.353 0 0 1-15.341-1.36c.116-5.702.491-11.398 1.157-17.062a178.82 178.82 0 0 1 2.126-13.58c.124-.631 1.088-.364.965.266A176.704 176.704 0 0 0-14.349-1.37a219.16 219.16 0 0 1 5.255.021C-6.06-1.295-3.029-1.177 0-1 .64-.963.644.038 0 0" style="fill:#feac53;fill-opacity:1;fill-rule:nonzero;stroke:none" transform="translate(380.086 215.147) scale(.94207)" clip-path="url(#y)"/><path d="M0 0a.859.859 0 0 0 .113-.008c4.077-.62 8.295-1.066 12.535-1.324a.75.75 0 0 0 .704-.705 209.58 209.58 0 0 1 2.705-23.472 6.233 6.233 0 0 1 6.15-5.183c.359 0 .721.031 1.076.092a6.213 6.213 0 0 1 4.042 2.559 6.212 6.212 0 0 1 1.049 4.667 196.985 196.985 0 0 0-2.491 21.091.75.75 0 0 0 .72.797c3.238.125 6.398.349 9.392.665a6.21 6.21 0 0 1 4.203 2.285 6.211 6.211 0 0 1 1.356 4.588 6.257 6.257 0 0 1-6.872 5.558 127.316 127.316 0 0 0-8.403-.593.751.751 0 0 0-.78.756c.061 7.093.514 14.256 1.346 21.292a6.209 6.209 0 0 1-1.3 4.604 6.207 6.207 0 0 1-4.173 2.337c-3.422.392-6.537-2.056-6.941-5.473A208.8 208.8 0 0 1 13 11.977a.75.75 0 0 0-.241-.544.738.738 0 0 0-.562-.198c-4.184.295-8.342.79-12.357 1.472a.75.75 0 0 0-.625.737c-.013 6.52-.018 14.153.04 21.33a6.257 6.257 0 0 1-6.198 6.301c-3.47 0-6.273-2.781-6.301-6.199-.074-9.018-.049-18.831-.024-28.321v-.177c.026-9.487.052-19.297-.023-28.327a6.258 6.258 0 0 1 6.199-6.301c3.47 0 6.273 2.78 6.301 6.198.06 7.228.054 14.823.041 21.301A.751.751 0 0 0 0 0m22.207-32.192a7.73 7.73 0 0 0-7.627 6.427 210.845 210.845 0 0 0-2.686 22.978A142.19 142.19 0 0 0 .751-1.62C.764-7.905.766-15.152.709-22.064.674-26.302-2.802-29.75-7.04-29.75c-4.337.035-7.786 3.541-7.751 7.813.075 9.022.049 18.828.023 28.311v.177c-.025 9.494-.05 19.311.024 28.338.035 4.238 3.511 7.686 7.749 7.686 2.135-.017 4.074-.839 5.526-2.315a7.703 7.703 0 0 0 2.224-5.499C.699 27.822.702 20.455.714 14.081a126.461 126.461 0 0 1 10.795-1.291c.094 7.298.575 14.668 1.432 21.918.501 4.238 4.354 7.282 8.605 6.788a7.7 7.7 0 0 0 5.177-2.898 7.7 7.7 0 0 0 1.611-5.709 195.356 195.356 0 0 1-1.327-20.34c2.68.12 5.146.302 7.517.553 4.262.447 8.074-2.649 8.522-6.893A7.7 7.7 0 0 0 41.364.521a7.697 7.697 0 0 0-5.211-2.834c-2.789-.294-5.72-.509-8.723-.64a195.63 195.63 0 0 1 2.421-20.165 7.699 7.699 0 0 0-1.3-5.787 7.696 7.696 0 0 0-5.012-3.172 7.73 7.73 0 0 0-1.332-.115" style="fill:#fff;fill-opacity:1;fill-rule:nonzero;stroke:none" transform="translate(347.993 210.206) scale(.94207)" clip-path="url(#z)"/></g><g transform="matrix(1.33333 0 0 -1.33333 -175.217 459.374)" style="filter:url(#A)"><path d="M0 0c5.424 0 10.852 1.992 14.837 5.747 6.245 5.884 8.383 15.558 5.197 23.524-2.283 5.709-6.726 9.73-10.773 12.911-.533.419-1.072.835-1.611 1.251-2.695 2.081-5.241 4.046-6.858 6.296-1.336 1.857-1.896 4.155-1.303 5.343.491.984 2.17 1.658 3.619 1.443 1.924-.29 3.924-1.813 5.219-3.976a7 7 0 1 1 12.012 7.191c-3.44 5.747-9.104 9.72-15.149 10.628-7.509 1.131-15.006-2.584-18.227-9.033-2.971-5.954-2.027-13.529 2.463-19.77 2.81-3.909 6.454-6.722 9.669-9.204.507-.392 1.013-.783 1.515-1.177 2.716-2.134 5.373-4.472 6.424-7.1 1.068-2.668.295-6.166-1.798-8.137-2.09-1.971-5.628-2.534-8.228-1.309-2.6 1.225-4.42 4.309-4.234 7.177a7 7 0 0 1-6.531 7.439c-3.849.242-7.188-2.674-7.439-6.531-.556-8.563 4.477-17.096 12.241-20.752C-6.146.64-3.074-.001 0 0" style="fill:#df801a;fill-opacity:1;fill-rule:nonzero;stroke:none" transform="matrix(.97593 0 0 .97593 305.576 176.815)" clip-path="url(#B)"/><path d="M0 0c5.424 0 10.852 1.992 14.837 5.747 6.245 5.884 8.383 15.558 5.197 23.524-2.283 5.709-6.726 9.73-10.773 12.911-.533.419-1.072.835-1.611 1.251-2.695 2.081-5.241 4.046-6.858 6.296-1.336 1.857-1.896 4.155-1.303 5.343.491.984 2.17 1.658 3.619 1.443 1.924-.29 3.924-1.813 5.219-3.976a7 7 0 1 1 12.012 7.191c-3.44 5.747-9.104 9.72-15.149 10.628-7.509 1.131-15.006-2.584-18.227-9.033-2.971-5.954-2.027-13.529 2.463-19.77 2.81-3.909 6.454-6.722 9.669-9.204.507-.392 1.013-.783 1.515-1.177 2.716-2.134 5.373-4.472 6.424-7.1 1.068-2.668.295-6.166-1.798-8.136-2.09-1.972-5.628-2.535-8.228-1.31-2.6 1.225-4.42 4.309-4.234 7.177a7 7 0 0 1-6.531 7.439c-3.849.242-7.188-2.674-7.439-6.531-.556-8.563 4.477-17.096 12.241-20.752C-6.146.64-3.074-.001 0 0" style="fill:#fda032;fill-opacity:1;fill-rule:nonzero;stroke:none" transform="matrix(.97593 0 0 .97593 302.646 178.767)" clip-path="url(#C)"/><path d="M0 0c5.424 0 10.852 1.992 14.837 5.747 6.245 5.884 8.383 15.558 5.197 23.524-2.283 5.709-6.726 9.73-10.773 12.911-.533.419-1.072.835-1.611 1.251-2.695 2.081-5.241 4.046-6.858 6.296-1.336 1.857-1.896 4.155-1.303 5.343.491.984 2.17 1.658 3.619 1.443 1.924-.29 3.924-1.813 5.219-3.976a7 7 0 1 1 12.012 7.191c-3.44 5.747-9.104 9.72-15.149 10.628-7.509 1.131-15.006-2.584-18.227-9.033-2.971-5.954-2.027-13.529 2.463-19.77 2.81-3.909 6.454-6.722 9.669-9.204.507-.392 1.013-.783 1.515-1.177 2.716-2.134 5.373-4.472 6.424-7.1 1.068-2.668.295-6.166-1.798-8.136-2.09-1.972-5.628-2.535-8.228-1.31-2.6 1.225-4.42 4.309-4.234 7.177a7 7 0 0 1-6.531 7.439c-3.849.242-7.188-2.674-7.439-6.531-.556-8.563 4.477-17.096 12.241-20.752C-6.146.64-3.074-.001 0 0" style="fill:#ffc586;fill-opacity:1;fill-rule:nonzero;stroke:none" transform="matrix(.97593 0 0 .97593 299.717 180.72)" clip-path="url(#D)"/><path d="M0 0c3.855-.342 7.208-2.765 9.535-5.743a20.584 20.584 0 0 0 1.582-2.364c.322-.557 1.187-.054.863.504-1.874 3.233-4.589 6.098-8.061 7.6C.7 1.389-3.088 1.435-6.251-.154c-3.275-1.645-5.11-4.972-5.382-8.555-.295-3.874 1.24-7.578 3.504-10.649 5.085-6.895 13.523-10.879 17.261-18.837 1.784-3.796 2.151-8.309.088-12.069-1.742-3.174-4.847-5.531-8.374-6.345-3.891-.898-8.097.041-11.38 2.265-3.237 2.193-5.503 5.663-6.538 9.404a18.249 18.249 0 0 0-.549 2.856c-.069.633-1.07.64-1 0 .851-7.735 6.408-14.609 14.343-15.708 3.687-.51 7.466.344 10.463 2.584 2.837 2.121 4.871 5.272 5.339 8.811.567 4.287-1.012 8.541-3.47 12-2.544 3.581-5.943 6.365-9.218 9.243-3.132 2.753-6.232 5.726-8.074 9.53-1.661 3.431-2.082 7.704-.168 11.132C-7.539-1.152-3.697.328 0 0" style="fill:#feac53;fill-opacity:1;fill-rule:nonzero;stroke:none" transform="matrix(.97593 0 0 .97593 302.924 242.644)" clip-path="url(#E)"/><path d="M0 0c-3.268 0-6.03-2.545-6.245-5.844-.536-8.261 4.321-16.496 11.813-20.024 2.628-1.236 5.611-1.89 8.628-1.89h.007c5.363 0 10.584 2.021 14.322 5.543 6.028 5.678 8.09 15.013 5.016 22.7C31.323 6.03 26.968 9.966 23 13.084c-.531.418-1.067.832-1.604 1.247-2.745 2.119-5.331 4.115-7.01 6.453-1.511 2.1-2.085 4.672-1.365 6.115.643 1.286 2.614 2.114 4.401 1.85 2.141-.323 4.346-1.983 5.752-4.333a6.26 6.26 0 0 1 8.573-2.151 6.21 6.21 0 0 1 2.851 3.84c.407 1.62.158 3.3-.7 4.732-3.326 5.557-8.79 9.396-14.616 10.272-7.197 1.081-14.367-2.463-17.445-8.627-2.846-5.704-1.926-12.983 2.401-18.998 2.745-3.818 6.343-6.595 9.516-9.047l.167-.127c.454-.351.907-.702 1.356-1.054 2.796-2.197 5.539-4.616 6.657-7.411 1.175-2.939.324-6.791-1.98-8.961-2.303-2.172-6.199-2.792-9.062-1.443-2.864 1.349-4.868 4.747-4.663 7.905A6.258 6.258 0 0 1 0 0m14.196-29.258c-3.237 0-6.44.702-9.267 2.032-8.036 3.785-13.246 12.618-12.671 21.48.277 4.256 3.991 7.5 8.235 7.23 4.266-.277 7.51-3.971 7.233-8.236-.167-2.576 1.468-5.349 3.805-6.449 2.338-1.103 5.516-.596 7.394 1.177 1.881 1.77 2.575 4.914 1.616 7.312-.986 2.466-3.559 4.72-6.191 6.788-.446.351-.896.698-1.346 1.046l-.165.127c-3.256 2.515-6.945 5.363-9.819 9.36C-1.633 19.077-2.6 26.948.495 33.152c3.365 6.738 11.181 10.62 19.01 9.44 6.266-.941 12.127-5.047 15.681-10.985a7.7 7.7 0 0 0 .867-5.868 7.698 7.698 0 0 0-3.536-4.761c-3.667-2.194-8.436-.997-10.63 2.668-1.183 1.975-2.979 3.362-4.687 3.62-1.218.177-2.523-.41-2.837-1.037-.403-.808-.044-2.785 1.241-4.569 1.552-2.161 4.053-4.092 6.701-6.137.548-.421 1.088-.839 1.622-1.259 4.125-3.242 8.657-7.348 11.007-13.222 3.296-8.246 1.085-18.258-5.379-24.349-4.015-3.782-9.611-5.951-15.352-5.951z" style="fill:#fff;fill-opacity:1;fill-rule:nonzero;stroke:none" transform="matrix(.97593 0 0 .97593 285.856 208.543)" clip-path="url(#F)"/></g><g style="filter:url(#G)" transform="matrix(1.33333 0 0 -1.33333 -190 459.374)"><path d="M0 0c.621 9.328-4.975 18.612-13.923 23.102-8.035 4.03-18.263 3.983-26.692-.127a6.998 6.998 0 0 1-3.933-6.32l.204-52.82c.015-3.865 3.176-7.014 7.027-6.973a7 7 0 0 1 6.973 7.028l-.185 47.841c3.563.737 7.324.364 10.328-1.143 3.855-1.934 6.476-5.996 6.232-9.658-.238-3.583-3.432-7.057-7.121-7.745a7 7 0 0 1-2.366-12.854c5.655-3.456 9.147-9.94 8.689-16.137a7.001 7.001 0 0 1 6.989-7.515 7 7 0 0 1 6.973 6.484c.574 7.77-2.006 15.52-6.892 21.645C-3.321-11.308-.388-5.835 0 0" style="fill:#df801a;fill-opacity:1;fill-rule:nonzero;stroke:none" transform="matrix(.99105 0 0 .99105 403.253 304.69)" clip-path="url(#H)"/><path d="M0 0c.621 9.328-4.975 18.612-13.923 23.102-8.035 4.03-18.263 3.983-26.692-.127a6.998 6.998 0 0 1-3.933-6.32l.204-52.82c.015-3.865 3.176-7.014 7.027-6.973a7 7 0 0 1 6.973 7.028l-.185 47.841c3.563.737 7.324.364 10.328-1.143 3.855-1.934 6.476-5.996 6.232-9.658-.238-3.583-3.432-7.057-7.121-7.745a7 7 0 0 1-2.366-12.854c5.655-3.456 9.147-9.94 8.689-16.137a7.001 7.001 0 0 1 6.989-7.515 7 7 0 0 1 6.973 6.484c.574 7.77-2.006 15.52-6.892 21.645C-3.321-11.308-.388-5.835 0 0" style="fill:#fda032;fill-opacity:1;fill-rule:nonzero;stroke:none" transform="matrix(.99105 0 0 .99105 400.278 306.673)" clip-path="url(#I)"/><path d="M0 0c.621 9.328-4.975 18.612-13.923 23.102-8.035 4.03-18.263 3.983-26.692-.127a6.998 6.998 0 0 1-3.933-6.32l.204-52.82c.015-3.865 3.176-7.014 7.027-6.973a7 7 0 0 1 6.973 7.028l-.185 47.841c3.563.737 7.324.364 10.328-1.143 3.855-1.934 6.476-5.996 6.232-9.658-.238-3.583-3.432-7.057-7.121-7.745a7 7 0 0 1-2.366-12.854c5.655-3.456 9.147-9.94 8.689-16.137a7.001 7.001 0 0 1 6.989-7.515 7 7 0 0 1 6.973 6.484c.574 7.77-2.006 15.52-6.892 21.645C-3.321-11.308-.388-5.835 0 0" style="fill:#ffc586;fill-opacity:1;fill-rule:nonzero;stroke:none" transform="matrix(.99105 0 0 .99105 397.303 308.657)" clip-path="url(#J)"/><path d="M0 0c2.553 0 5.027-.54 7.113-1.587 4.113-2.062 6.907-6.428 6.644-10.378-.259-3.902-3.728-7.685-7.732-8.432a6.286 6.286 0 0 1-5-5.012 6.286 6.286 0 0 1 2.888-6.465c5.888-3.599 9.524-10.362 9.046-16.832a6.256 6.256 0 0 1 5.772-6.693c3.432-.262 6.442 2.371 6.694 5.773.553 7.486-1.838 14.988-6.731 21.121a.75.75 0 0 0 .088 1.028c4.371 3.88 7.085 9.232 7.447 14.682.602 9.031-4.828 18.025-13.511 22.382-7.833 3.928-17.805 3.878-26.027-.131a6.284 6.284 0 0 1-3.512-5.643l.204-52.82a6.227 6.227 0 0 1 1.872-4.439c1.187-1.169 2.779-1.816 4.397-1.786a6.257 6.257 0 0 1 6.231 6.274l-.185 47.842a.75.75 0 0 0 .598.737A18.35 18.35 0 0 0 0 0m19.199-56.916c-.191 0-.383.007-.577.02-4.263.316-7.474 4.04-7.159 8.301.437 5.923-2.911 12.128-8.333 15.442a7.796 7.796 0 0 0-3.581 8.015 7.796 7.796 0 0 0 6.201 6.215c3.373.63 6.293 3.796 6.51 7.058.225 3.375-2.223 7.134-5.82 8.938C3.809-1.608.472-1.18-2.799-1.735l.182-47.217c.016-4.274-3.447-7.764-7.72-7.78a7.63 7.63 0 0 0-5.461 2.217 7.718 7.718 0 0 0-2.319 5.502l-.204 52.821a7.79 7.79 0 0 0 4.355 6.996c8.633 4.211 19.116 4.256 27.357.123C22.605 6.305 28.366-3.27 27.726-12.895c-.373-5.62-3.07-11.131-7.427-15.227 4.838-6.325 7.186-13.974 6.622-21.615-.298-4.026-3.69-7.179-7.722-7.179" style="fill:#fff;fill-opacity:1;fill-rule:nonzero;stroke:none" transform="matrix(.99105 0 0 .99105 370.567 321.387)" clip-path="url(#K)"/><path d="M0 0a19.19 19.19 0 0 1-4.295 2.182C1.565 5.643 7.48 10.484 8.094 17.731c.56 6.619-3.558 12.996-9.231 16.136-3.131 1.732-6.68 2.607-10.24 2.794a29.15 29.15 0 0 1-5.428-.237c-1.581-.214-3.36-.441-4.657-1.455-1.381-1.079-1.602-2.801-1.619-4.445-.021-2.181-.009-4.362-.013-6.543l-.026-13.248-.052-26.494-.007-3.25c-.001-.643.999-.644 1 0l.049 24.995.025 12.498c.008 4.11-.068 8.23.029 12.339.019.813.073 1.674.446 2.413.401.796 1.141 1.279 1.96 1.574 1.565.564 3.337.724 4.987.831 3.376.218 6.802-.148 10.002-1.274 6.095-2.144 11.096-7.483 11.752-14.077.375-3.759-.916-7.344-3.239-10.28C1.28 6.781-2.209 4.504-5.747 2.494c-.382-.216-.285-.792.12-.913C-1.587.372 2.005-2.242 4.346-5.76c2.555-3.841 3.547-8.632 2.765-13.175-.108-.629.855-.899.965-.265C9.35-11.799 6.207-4.244 0 0" style="fill:#feac53;fill-opacity:1;fill-rule:nonzero;stroke:none" transform="matrix(.99105 0 0 .99105 382.463 291.804)" clip-path="url(#L)"/></g></svg>