<svg viewBox="0 0 512 512" xml:space="preserve" xmlns="http://www.w3.org/2000/svg"><path fill="#ae6a55" d="M38.538 193.61h434.92v304.08H38.538z"/><path fill="#9c5f4c" d="M38.538 185.25h434.92v41.067H38.538z"/><path fill="#9e9e9e" d="M512 193.61H0l45.891-96.558L62.84 61.398h386.32z"/><path fill="#8f8f8f" d="M105.51 61.398 91.843 120.92 45.891 97.052 62.84 61.398z"/><path fill="#8b5444" d="M91.843 26.143h82.381v94.775H91.843z"/><path fill="#794a3b" d="M91.843 26.143h82.381v42.838H91.843z"/><path fill="#ae6a55" d="M86.355 14.308h93.357v32.856H86.355z"/><path fill="#4ebfed" d="M167.936 367.165h71.48v62.39h-71.48z"/><path fill="#92ddf4" d="m189.546 429.56 20.95-62.39h28.92v62.39z"/><path d="M163.396 362.62v71.48h80.565v-71.48zm71.48 32.105h-27.562v-23.019h27.562zm-34.83-23.019v23.018h-27.562v-23.018zm-27.562 30.287h27.562v23.018h-27.562zm34.83 23.018v-23.018h27.562v23.018zM159.356 440.155h88.645v15.144h-88.645z" fill="#9c5f4c"/><path fill="#4ebfed" d="M64.356 367.165h71.48v62.39h-71.48z"/><path fill="#92ddf4" d="m85.961 429.56 20.955-62.39h28.92v62.39z"/><path d="M59.813 434.1h80.564v-71.48H59.813v71.48zm9.086-32.105H96.46v23.019H68.9zm34.83 23.019v-23.018h27.562v23.018zm27.562-30.287h-27.562v-23.018h27.562zm-34.83-23.018v23.018H68.899v-23.018zM55.773 440.155h88.644v15.144H55.773z" fill="#9c5f4c"/><g fill="#8b5444"><path d="M159.356 434.1h88.645v15.144h-88.645zM55.773 434.1h88.644v15.144H55.773z"/></g><path fill="#4ebfed" d="M376.16 367.165h71.48v62.39h-71.48z"/><path fill="#92ddf4" d="M418.72 367.17h28.92v62.39h-49.87z"/><path d="M371.62 362.62v71.48h80.565v-71.48zm71.48 32.105h-27.561v-23.019H443.1zm-34.83-23.019v23.018h-27.562v-23.018zm-27.561 30.287h27.561v23.018h-27.561zm34.83 23.018v-23.018H443.1v23.018zM367.58 440.155h88.645v15.144H367.58z" fill="#9c5f4c"/><path fill="#4ebfed" d="M272.58 367.165h71.48v62.39h-71.48z"/><path fill="#92ddf4" d="M315.14 367.17h28.92v62.39h-49.875z"/><path d="M268.036 434.1h80.565v-71.48h-80.565v71.48zm9.087-32.105h27.561v23.019h-27.561zm34.83 23.019v-23.018h27.562v23.018zm27.561-30.287h-27.561v-23.018h27.561zm-34.83-23.018v23.018h-27.561v-23.018zM263.997 440.155h88.644v15.144h-88.644z" fill="#9c5f4c"/><g fill="#8b5444"><path d="M367.58 434.1h88.645v15.144H367.58zM263.997 434.1h88.644v15.144h-88.644z"/></g><path fill="#4ebfed" d="M165.951 254.485h71.48v62.39h-71.48z"/><path fill="#92ddf4" d="M208.511 254.49h28.92v62.39h-49.87z"/><path d="M161.411 249.94v71.48h80.565v-71.48zm71.48 32.105H205.33v-23.019h27.561zm-34.83-23.019v23.018h-27.562v-23.018zM170.5 289.313h27.561v23.018H170.5zm34.83 23.018v-23.018h27.561v23.018zM157.371 327.475h88.645v15.144h-88.645z" fill="#9c5f4c"/><path fill="#4ebfed" d="M62.371 254.485h71.48v62.39h-71.48z"/><path fill="#92ddf4" d="M104.931 254.49h28.92v62.39H83.976z"/><path d="M57.828 321.42h80.564v-71.48H57.827v71.48zm9.086-32.105h27.561v23.019H66.915zm34.83 23.019v-23.019h27.562v23.019zm27.562-30.287h-27.562v-23.019h27.561zm-34.83-23.019v23.019H66.913v-23.019zM53.788 327.475h88.645v15.144H53.788z" fill="#9c5f4c"/><g fill="#8b5444"><path d="M157.371 321.42h88.645v15.143h-88.645zM53.788 321.42h88.645v15.143H53.788z"/></g><path fill="#4ebfed" d="M374.18 254.485h71.48v62.39h-71.48z"/><path fill="#92ddf4" d="m395.79 316.88 20.95-62.39h28.92v62.39z"/><path d="M369.64 249.94v71.48h80.565v-71.48zm71.48 32.105h-27.561v-23.019h27.561zm-34.83-23.019v23.018h-27.562v-23.018zm-27.562 30.287h27.562v23.018h-27.561zm34.83 23.018v-23.018h27.562v23.018zM365.6 327.475h88.645v15.144H365.6z" fill="#9c5f4c"/><path fill="#4ebfed" d="M270.6 254.485h71.48v62.39H270.6z"/><path fill="#92ddf4" d="m292.205 316.88 20.955-62.39h28.92v62.39z"/><path d="M266.056 321.42h80.565v-71.48h-80.565v71.48zm9.087-32.105h27.561v23.019h-27.561zm34.83 23.019v-23.019h27.562v23.019zm27.561-30.287h-27.561v-23.019h27.561zm-34.83-23.019v23.019h-27.561v-23.019zM262.017 327.475h88.644v15.144h-88.644z" fill="#9c5f4c"/><g fill="#8b5444"><path d="M365.6 321.42h88.645v15.143H365.6zM262.017 321.42h88.644v15.143h-88.644z"/></g></svg>