<svg xmlns="http://www.w3.org/2000/svg" width="433.66" height="266.48"><path d="M246.637 113.336h52.375V98.664h26.233V0H0v98.664h26.247v14.672h52.394l83.998 35.984 83.998-35.984" style="fill:#cdb084;fill-opacity:1;fill-rule:nonzero;stroke:none;stroke-width:.1" transform="matrix(1.33333 0 0 -1.33333 0 199.093)"/><path d="m240.204 87.1-.007-15.948 10.321-.017 2.15 15.96-12.464.005M296.233 71.368c.668 0 1.269.052 1.269.86 0 .638-.591.759-1.134.759h-1.081v-1.62zm-.946-2.93h-.786v5.221h1.985c1.224 0 1.838-.46 1.838-1.486 0-.939-.578-1.342-1.346-1.437l1.478-2.297h-.883l-1.375 2.261h-.911zm.957-1.161c2.053 0 3.659 1.6 3.659 3.78 0 2.141-1.606 3.759-3.659 3.759-2.072 0-3.686-1.618-3.686-3.759 0-2.18 1.614-3.78 3.686-3.78zm-4.594 3.78c0 2.602 2.105 4.511 4.594 4.511 2.466 0 4.573-1.909 4.573-4.51 0-2.62-2.107-4.536-4.573-4.536-2.489 0-4.594 1.917-4.594 4.535M51.886 32.749V87.1H37.017V19.801h37.87V32.75H51.884M201.532 19.801h35.382v12.961h-20.442v8.447h20.442v12.477h-20.442v8.494h20.442v13.013h-35.382V19.801M108.86 62.18H95.787V32.82h13.073Zm14.892-35.3c0-3.907-3.163-7.079-7.068-7.079h-28.72c-3.905 0-7.066 3.172-7.066 7.08v41.241a7.068 7.068 0 0 0 7.067 7.071h28.719a7.07 7.07 0 0 0 7.068-7.07V26.88M178.137 75.193V32.75h-8.976v42.444h-13.076V32.75h-8.97v42.444H132.22V26.88a7.079 7.079 0 0 1 7.074-7.079h17.602c2.969 0 5.731 2.046 5.731 5.019 0-2.973 2.763-5.019 5.729-5.019h17.604c3.907 0 7.071 3.172 7.071 7.08v48.312h-14.894M289.118 40.734h.008l-.096.188c-.056.116-.112.233-.176.35l-.089.182c-2.359 4.724-7.632 8.674-16.127 12.065l-.295.117c-1.69.662-6.803 2.664-7.367 5.917-.16.908.21 2.339 1.224 3.206 1.072 1.093 2.717 1.65 4.878 1.65 3.46 0 7.403-1.418 9.437-2.258 4.299-1.783 8.063-3.375 8.102-3.391l.372-.154v12.086l-.123.08c-.08.055-8.204 5.171-16.411 6.35-.944.078-1.879.12-2.773.12-7.552 0-13.272-2.747-17.007-8.158-3.128-4.449-3.472-11.481-.81-16.737 3.421-5.937 8.908-8.416 14.214-10.817 2.189-.984 4.456-2.009 6.567-3.273l.026-.013c2.396-1.438 3.617-3.638 3.111-5.595-.525-2.025-2.843-3.39-5.773-3.39-.399 0-.809.03-1.202.079l-.14.021c-5.632.783-17.059 5.04-17.178 5.083l-.365.137V21.322l.189-.065c.105-.038 11.167-3.698 20.98-3.698h.007c5.359 0 9.406 1.08 12.023 3.202.063.05 6.06 4.87 6.324 13.075.077 2.272-.44 4.592-1.53 6.898" style="fill:#fff;fill-opacity:1;fill-rule:nonzero;stroke:none;stroke-width:.1" transform="matrix(1.33333 0 0 -1.33333 0 199.093)"/><text xml:space="preserve" x="37.211" y="49.618" style="font-style:normal;font-weight:400;font-size:46.0382px;line-height:1.25;font-family:sans-serif;fill:#cdb084;fill-opacity:1;stroke:none;stroke-width:1.15096" transform="matrix(1.33333 0 0 1.33333 0 199.093)"><tspan x="37.211" y="49.618" style="font-style:normal;font-variant:normal;font-weight:700;font-stretch:normal;font-size:46.0382px;font-family:Helvetica;-inkscape-font-specification:'Helvetica, Bold';font-variant-ligatures:normal;font-variant-caps:normal;font-variant-numeric:normal;font-variant-east-asian:normal;fill:#cdb084;fill-opacity:1;stroke-width:1.15096">GIFT CARD</tspan></text></svg>