<svg height="800" width="496.938" viewBox="0 0 318.04 512" xml:space="preserve" xmlns="http://www.w3.org/2000/svg"><path d="M175.365 0a8.263 8.263 0 0 0-8.264 8.264V41.32c0 4.565 3.7 8.264 8.264 8.264a8.263 8.263 0 0 0 8.264-8.264V8.264c0-4.565-3.7-8.264-8.264-8.264ZM134.46 59.076 111.087 35.7a8.265 8.265 0 0 0-11.686 11.688l23.374 23.375a8.237 8.237 0 0 0 5.843 2.421 8.265 8.265 0 0 0 5.842-14.108zM251.331 35.701a8.265 8.265 0 0 0-11.686 0l-23.374 23.375a8.264 8.264 0 0 0 11.686 11.687l23.374-23.375a8.264 8.264 0 0 0 0-11.687zM373.701 215.414c-10.495 0-20.083 3.939-27.378 10.409-5.854-15.714-21.006-26.937-38.734-26.937-10.495 0-20.083 3.939-27.378 10.409-5.854-15.714-21.006-26.937-38.734-26.937a41.096 41.096 0 0 0-24.792 8.287v-83.214c0-22.784-18.536-41.32-41.32-41.32s-41.32 18.536-41.32 41.32V265.83c-18.837 3.839-33.056 20.533-33.056 40.488v49.584c0 80.163 60.006 147.249 139.58 156.046a8.265 8.265 0 0 0 1.816-16.426c-71.186-7.872-124.868-67.894-124.868-139.619v-49.584c0-10.773 6.91-19.959 16.528-23.371v56.426c0 4.565 3.7 8.264 8.264 8.264a8.263 8.263 0 0 0 8.264-8.264V107.432c0-13.67 11.121-24.792 24.792-24.792 13.671 0 24.792 11.122 24.792 24.792v165.831c0 4.565 3.7 8.264 8.264 8.264a8.263 8.263 0 0 0 8.264-8.264v-49.584c0-13.67 11.121-24.792 24.792-24.792 13.671 0 24.792 11.122 24.792 24.792v49.584c0 4.565 3.7 8.264 8.264 8.264a8.263 8.263 0 0 0 8.264-8.264v-33.056c0-13.67 11.121-24.792 24.792-24.792 13.671 0 24.792 11.122 24.792 24.792v33.056c0 4.565 3.7 8.264 8.264 8.264a8.263 8.263 0 0 0 8.264-8.264v-16.528c0-13.67 11.121-24.792 24.792-24.792 13.671 0 24.792 11.122 24.792 24.792v99.168c0 71.726-53.682 131.748-124.868 139.619a8.262 8.262 0 0 0-7.305 9.121 8.265 8.265 0 0 0 9.121 7.306c79.573-8.798 139.58-75.884 139.58-156.047v-99.168c-.001-22.784-18.536-41.32-41.32-41.32z" style="fill:#4c4e52;fill-opacity:1" transform="translate(-96.98)"/></svg>