<svg width="384.44" height="784.87" aria-hidden="true" preserveAspectRatio="xMidYMid" viewBox="0 0 17.3 35.319" xmlns="http://www.w3.org/2000/svg"><path d="M7.609 11.589c.927.96 3.062 2.89 3.109 3.121.251 1.223.614 2.606.52 3.454-.068.615.376 1.298.551 1.583.218.354.781.898 1.141.86.224-.023.567-.43.384-.636-.357-.4-.298-1.009-.522-1.559-.449-1.105-.045-3.194-.661-4.563-.256-.567-.733-1.693-2.824-3.626-.511.462-1.698 1.366-1.698 1.366z" fill="#484339"/><path d="m6.3 34.306-.052.016c.018-.068.042-.19.042-.383 0-.303-.156-.869-.2-.95s-.09-.139-.193-.11c-.08.022-.685.326-1.072.341-.72.027-1.066-.618-1.066-.618s-.4.228-.716.413c-.318.185-.687.462-.96.627-.231.141-.496.208-.77.243s-.497.023-.563.029-.621-.061-.641.488l.003.127-.054-.026s-.048.17-.052.202c-.004.033-.024.052.046.096s.378.176.77.274c.392.098 1.028.243 1.519.243s.909-.098 1.15-.156c.244-.058.764-.169.814-.146s.116.191.173.243c.058.052 1.61-.081 1.72-.104a.177.177 0 0 0 .147-.162v-.649c.002-.027-.021-.045-.045-.038zm10.947-3.752-.504-.429a.038.038 0 0 0-.06.012l-.021.051a1.523 1.523 0 0 0-.27-.285c-.234-.2-.776-.454-.867-.473-.091-.02-.167-.022-.213.077-.035.076-.2.746-.444 1.056-.454.575-1.184.418-1.184.418l-.153.828c-.067.368-.096.838-.148 1.158a1.954 1.954 0 0 1-.322.758c-.154.236-.31.4-.35.456-.04.055-.457.441-.045.82l.1.081-.054.025s.1.149.122.174.025.053.104.028.386-.177.72-.416c.337-.24.869-.637 1.193-1.018.325-.381.524-.77.64-.996s.373-.703.424-.727.224.036.303.026c.078-.01 1-1.302 1.057-1.403s.005-.193-.028-.221z"/><path d="M11.762 19.759c.218.354.814.896 1.174.858.224-.023.567-.444.384-.65-.23-.474-.336-.89-.486-1.195-.152-.309-1.02-.366-1.288.028-.135.199.078.83.216.959z" fill="#CC9B7A"/><path d="M7.294.715C5.7.088 3.217.897 2.929 2.758c-.287 1.848.239 4.747 1.863 4.572 1.702-.184 3.448-.554 4.138-2.307S8.887 1.343 7.294.715z" fill="#D4AB88"/><path d="M8.478 5.474c2.318-2.723-3.266-2.458-3.266-2.458-1.057.038-.33 1.8-.827 2.761-.341.665 1.095 1.018 1.095 1.018s.659-.01.694.79v.007c.008.204-.013.445-.108.77-.473 1.6 1.677 2.581 2.149.977.187-.635.114-1.193.02-1.708l-.01-.046c-.143-.766-.321-1.437.253-2.11z" fill="#D4AB88"/><path d="M9.114 1.357c-1.061-1.242-2.58-1.9-5.02-.79-.993.451-1.438.284-1.58.483-.678.953.247 2.01.609 1.8 1.148-.67 2.183-.47 2.447.013s.02 1.354.234 1.36c.579.014.485-.553.714-.879.375-.534.946-.232 1.07.362.1.471 0 1.271-.77 1.412.524 1.151 1.56 1.502 1.56 1.502s.338.132.913-1c.576-1.135.877-3.03-.177-4.263z" fill="#963B22"/><path d="M4.35 33.534c-1.265.109-1.852-.233-1.72-.416.165-.228.128-.397.13-.536.028-2.441-.471-5.991-.471-5.991 0-.348.003-.813.312-1.562.778-1.883 3.95-7.69 3.95-7.69a2 2 0 0 1 2.73-.744c.959.548 1.122 1.405.744 2.729-.715 2.508-2.965 5.602-3.903 7.477.224 2.121-.174 3.853.035 5.857.03.288-.54.767-1.806.876z" fill="#484339"/><path d="M15.086 31.262c-.364.553-.97.942-1.598.838-1.269-1.924-4.955-5.321-4.955-5.321-.241-.25-.562-.587-.86-1.341-.748-1.895-2.498-8.277-2.498-8.277a1.999 1.999 0 0 1 1.446-2.43c1.07-.272 1.783.232 2.43 1.446 1.227 2.301 1.757 6.09 2.384 8.09 1.87 1.568 2.383 3.603 4.275 5.151-.065.857-.26 1.291-.624 1.844z" fill="#565044"/><path d="M11.289 19.331s0 1-2 1H4.391c-.415-2-.027-5.004.006-7.765.043-3.623 2.298-5.609 3.71-5.155 1.846.594 2.693 2.641 2.932 5.858s.25 6.062.25 6.062z" fill="#565044"/><path d="M7.404 7.729s-.737.35-.91.425c-.081.035-.718.444-.718.444s-.06-.087-.015-.163c.53-.887 1.422-1.15 2.12-1.098.028.002.028-.006.054-.013l.048-.007c.067-.014.197-.062.197-.062s.011.097.019.187c0 .005-.351.086-.351.086-.054.016-.442.203-.444.201z" fill="#fff"/><path d="m5.59 9.1-.285.55-.84 1.995s.034-.612.224-1.158c.134-.382.241-.725.27-.787.189-.418.496-.876.702-1.156.017-.022.04-.038.054-.06.004-.006.025-.03.03-.038.041-.056.113-.165.113-.165s.098.122.187.137c.06.01-.223.268-.223.268-.03.047-.219.397-.222.396z" fill="#355e3b"/><path d="M6.077 11.036c-.167 1.399-.322 4.433-.48 4.625-.832 1.021-1.721 2.24-2.478 2.729-.55.354-.811 1.174-.927 1.507-.144.414-.213 1.238.057 1.507.169.168.73.177.776-.11.09-.559.626-.917.927-1.467.604-1.104 2.583-2.167 3.292-3.584.294-.588.896-1.729 1.083-4.729-.72-.11-2.25-.478-2.25-.478z" fill="#484339"/><path d="M2.927 18.533c-.463.448-.657 1.119-.773 1.452-.144.414-.213 1.238.057 1.507.169.168.748.177.794-.11.208-.77.539-.886.745-1.222.54-.884.84-1.027.755-1.186-.152-.3-.514-.894-.832-.89-.105.002-.175.051-.291.112-.124.066-.295.148-.455.337z" fill="#D4AB88"/></svg>