<svg width="378.59" height="792.68" aria-hidden="true" preserveAspectRatio="xMidYMid" viewBox="0 0 17.037 35.671" xmlns="http://www.w3.org/2000/svg"><path d="M16.976 32.448a.196.196 0 0 0 .007-.276l-.996-1.045a1.323 1.323 0 0 1-.373-.76.196.196 0 1 0-.388.048c.044.361.21.7.478.982l.996 1.045a.196.196 0 0 0 .276.006z"/><path d="m14.045 35.246 1.212-1.156a1.653 1.653 0 0 0 .503-1.125l-.143-2.586a.592.592 0 0 0-.163-.38l-.182-.192c-.405-.425-.97-.481-1.345-.133a.2.2 0 0 0-.033.25c.04.064.082.124.128.183a.834.834 0 0 1 .13.445c.141.904.18 1.98.011 2.141l-.06.058a.188.188 0 0 1-.265-.006.198.198 0 0 0-.339.17c.06.356-.102.81-.245 1.211-.112.315-.21.588-.197.803.01.192.132.353.324.43.227.09.5.043.664-.113z"/><path d="M14.659 32.294c.001.253-.053.477-.125.555-.248.27-.31.336-.619.37-.067.006-.312-.111-.45-.344-.03-.05-.045-.102-.07-.157-.048-.097-.09-.207-.144-.341a5.741 5.741 0 0 1-.215-.659 6.994 6.994 0 0 0-.305-.833c-.375-.645-.406-.643-1.202-1.261-1.26-.978-2.415-2.203-2.415-2.203-.24-.252-.559-.59-.852-1.346-.736-1.9-3.137-7.74-3.137-7.74a2 2 0 0 1 1.462-2.422c1.072-.265 1.781.243 2.421 1.462 1.214 2.309 1.167 6.575 1.782 8.58.892.756 1.843 1.336 2.32 1.938.232.292.417.55.577.863.11.218.184.499.414.778.537.567.548 1.48.55 1.9z" fill="#7C533E"/><path d="M4.662 35.668a.196.196 0 0 0 .196-.196V34.03c0-.309.085-.58.254-.808a.196.196 0 1 0-.314-.233 1.728 1.728 0 0 0-.332 1.04v1.444c0 .108.088.196.196.196z"/><path d="M.61 35.67h1.675a1.653 1.653 0 0 0 1.14-.467l1.68-1.97a.592.592 0 0 0 .146-.388v-.265c0-.587-.371-1.017-.882-1.024a.2.2 0 0 0-.197.16 2.119 2.119 0 0 0-.033.219.834.834 0 0 1-.213.412c-.522.752-1.237 1.557-1.47 1.557h-.083a.188.188 0 0 1-.188-.186.198.198 0 0 0-.362-.111c-.202.3-.633.516-1.013.708-.299.15-.557.28-.697.444a.489.489 0 0 0-.061.535.644.644 0 0 0 .557.377z"/><path d="M6.86 11.511c.927.96 3.062 2.89 3.11 3.121.25 1.223.613 2.606.52 3.454-.069.615.375 1.298.55 1.583.218.354.781.898 1.141.86.224-.023.567-.43.384-.636-.357-.4-.298-1.009-.522-1.559-.449-1.105-.045-3.194-.66-4.563-.257-.567-.734-1.693-2.825-3.626-.51.462-1.698 1.366-1.698 1.366z" fill="#664131"/><path d="M6.565.652C4.972.025 2.488.834 2.2 2.695c-.287 1.848.24 4.747 1.863 4.572 1.702-.184 3.448-.554 4.138-2.307S8.158 1.279 6.565.652z" fill="#7C533E"/><path d="M7.75 5.41c2.317-2.722-3.267-2.457-3.267-2.457-1.057.038-.329 1.799-.827 2.76-.34.666 1.095 1.019 1.095 1.019s.66-.01.694.79v.007c.008.204-.013.445-.108.769-.473 1.6 1.677 2.582 2.15.978.186-.635.113-1.193.02-1.708l-.01-.046c-.144-.766-.322-1.437.252-2.111z" fill="#7C533E"/><path d="M8.385 1.294C7.325.052 5.865-.463 3.366.503c-2.183.844-1.48 2.579-.972 2.282 1.402-.817 2.332-.12 3.046 1.02.208-.56 1.122-.903 1.307-.084.208.92-.647 1.322-.533 1.573.038.084-.043-.076 0 0 .547.96 1.437 1.262 1.437 1.262s.337.132.912-1.001.876-3.028-.178-4.261z" fill="#0B0200"/><path d="M7.811 2.6c2.163.467-.51 2.61-.299 3.852.764.942 1.538-.51 1.538-.51s.506.051.637-1.062c-.319-.51.715-1.087-.626-2.315C7.706.641 6.466 2.31 7.811 2.6z" fill="#0B0200"/><path d="M3.09 33.957c-.172.184-.366.309-.473.316-.365.024-.456.03-.702-.16-.054-.042-.15-.295-.089-.559.014-.058.038-.105.057-.162.033-.103.078-.212.132-.347.112-.281.28-.6.298-.625.132-.241.241-.518.355-.813.174-.726.15-.746 0-1.742-.236-1.577-.227-3.261-.227-3.261 0-.348.003-.813.312-1.562.778-1.883 3.07-7.767 3.07-7.767a2 2 0 0 1 2.73-.744c.958.548 1.121 1.405.743 2.73-.715 2.507-3.692 5.563-4.63 7.438.123 1.163.411 2.24.342 3.004a5.027 5.027 0 0 1-.179 1.022c-.07.235-.211.489-.237.85-.002.78-.625 1.448-.912 1.754z" fill="#7C533E"/><path d="M10.308 17.527s.06.44-.153 2.429c-.451 4.21 4.325 5.741 3.703 7.49-2.1 5.916-10.876 1.3-11.83-.46-.35-.645 2.488-8.302 2.29-8.302-.414-2-.103-2.234-.759-4.916-.538-2.196.397-4.193 1.643-5.375.322-.306.009.636.322.48.386-.192 1.712-1.438 1.996-1.346 1.846.594 2.55 2.462 2.79 5.679s-.002 4.321-.002 4.321z" fill="#013220"/><path d="M5.31 11.06c-.167 1.399-.322 4.433-.479 4.625-.833 1.021-1.722 2.24-2.479 2.729-.549.354-.81 1.174-.927 1.507-.144.414-.213 1.238.057 1.507.17.168.73.177.776-.11.09-.559.626-.917.927-1.467.604-1.104 2.583-2.167 3.292-3.584.294-.588.896-1.729 1.083-4.729-.054-.1.077-1.161-.161-1.602-.217-.402-1.098-.315-1.218-.28-.582.168-.87 1.404-.87 1.404z" fill="#7C533E"/><circle cx="6.23" cy="5.237" r=".286" fill="#736056"/></svg>