<svg width="2821" height="235.64" viewBox="0 0 1805.4 150.81" xml:space="preserve" xmlns="http://www.w3.org/2000/svg"><path d="M1804.9.313C1204.57 1.015 600.5.759.1.916l.604 149.59 1804.5.297c-.235.147-.329-150.49-.329-150.49z" fill="#fff"/><path d="M490.82 21.344H21.52C9.786 21.344.185 30.937.185 42.687V69.28c11.289 10 26.14 16.062 42.413 16.062 22.179 0 41.717-11.281 53.201-28.438 11.484 17.156 31.03 28.438 53.209 28.438 22.343 0 42.006-11.469 53.459-28.812 11.445 17.344 31.108 28.812 53.451 28.812 22.351 0 42.007-11.469 53.46-28.812 11.452 17.344 31.107 28.812 53.451 28.812 22.357 0 42.029-11.469 53.467-28.812 11.438 17.344 31.123 28.812 53.467 28.812 16.266 0 31.124-6.062 42.404-16.062V42.687c0-11.75-9.594-21.343-21.343-21.343z" fill="#ff6a88"/><path d="M922.23 21.344h-469.3c-11.734 0-21.335 9.593-21.335 21.343V69.28c11.289 10 26.14 16.062 42.413 16.062 22.179 0 41.717-11.281 53.201-28.438 11.484 17.156 31.03 28.438 53.209 28.438 22.343 0 42.006-11.469 53.459-28.812 11.445 17.344 31.108 28.812 53.451 28.812 22.351 0 42.007-11.469 53.46-28.812 11.452 17.344 31.107 28.812 53.451 28.812 22.357 0 42.029-11.469 53.467-28.812 11.438 17.344 31.123 28.812 53.467 28.812 16.266 0 31.124-6.062 42.404-16.062V42.687c0-11.75-9.594-21.343-21.343-21.343z" fill="#ff6a88"/><path d="M1352.2 21.306H882.9c-11.734 0-21.335 9.593-21.335 21.343v26.593c11.289 10 26.14 16.062 42.413 16.062 22.179 0 41.717-11.281 53.201-28.438 11.484 17.156 31.03 28.438 53.209 28.438 22.343 0 42.006-11.469 53.459-28.812 11.445 17.344 31.108 28.812 53.451 28.812 22.351 0 42.007-11.469 53.46-28.812 11.452 17.344 31.107 28.812 53.451 28.812 22.357 0 42.029-11.469 53.467-28.812 11.438 17.344 31.123 28.812 53.467 28.812 16.266 0 31.124-6.062 42.404-16.062V42.649c0-11.75-9.594-21.343-21.343-21.343z" fill="#ff6a88"/><path d="M1783.6 21.306h-469.3c-11.734 0-21.335 9.593-21.335 21.343v26.593c11.289 10 26.14 16.062 42.413 16.062 22.179 0 41.717-11.281 53.201-28.438 11.484 17.156 31.03 28.438 53.209 28.438 22.343 0 42.006-11.469 53.459-28.812 11.445 17.344 31.108 28.812 53.451 28.812 22.351 0 42.007-11.469 53.46-28.812 11.452 17.344 31.107 28.812 53.451 28.812 22.357 0 42.029-11.469 53.467-28.812 11.438 17.344 31.123 28.812 53.467 28.812 16.266 0 31.124-6.062 42.404-16.062V42.649c0-11.75-9.594-21.343-21.343-21.343z" fill="#ff6a88"/><path d="M490.82 0H21.52L.004.116l.18 21.228v26.592c11.29 10 26.14 16.062 42.414 16.062 22.179 0 41.717-11.281 53.2-28.405 11.485 17.124 31.03 28.405 53.21 28.405 22.343 0 42.006-11.438 53.459-28.812 11.445 17.374 31.108 28.812 53.45 28.812 22.352 0 42.008-11.438 53.46-28.812 11.453 17.374 31.108 28.812 53.452 28.812 22.357 0 42.029-11.438 53.467-28.812 11.438 17.374 31.123 28.812 53.467 28.812 16.266 0 31.124-6.062 42.404-16.062V21.344L512.43.202z" fill="#ff99ac"/><path d="M922.17.2h-469.3l-21.516.116.18 21.228v26.592c11.29 10 26.14 16.062 42.414 16.062 22.179 0 41.717-11.28 53.2-28.405 11.485 17.124 31.03 28.405 53.21 28.405 22.343 0 42.006-11.438 53.459-28.812 11.445 17.374 31.108 28.812 53.45 28.812 22.352 0 42.008-11.438 53.46-28.812 11.453 17.374 31.108 28.812 53.452 28.812 22.357 0 42.029-11.438 53.467-28.812 11.438 17.374 31.123 28.812 53.467 28.812 16.266 0 31.124-6.062 42.404-16.062V21.544L943.78.402z" fill="#ff99ac"/><path d="M1352.1.457H882.8l-21.516.115.18 21.228v26.592c11.29 10 26.14 16.062 42.414 16.062 22.179 0 41.717-11.28 53.2-28.405 11.485 17.124 31.03 28.405 53.21 28.405 22.343 0 42.006-11.438 53.459-28.812 11.445 17.374 31.108 28.812 53.45 28.812 22.352 0 42.008-11.438 53.46-28.812 11.453 17.374 31.108 28.812 53.452 28.812 22.357 0 42.029-11.438 53.467-28.812 11.438 17.374 31.123 28.812 53.467 28.812 16.266 0 31.124-6.062 42.404-16.062V21.8l.263-21.142z" fill="#ff99ac"/><path d="M1783.8.715h-469.3l-21.516.115.18 21.228V48.65c11.29 10 26.14 16.062 42.414 16.062 22.179 0 41.717-11.28 53.2-28.405 11.485 17.124 31.03 28.405 53.21 28.405 22.343 0 42.006-11.438 53.459-28.812 11.445 17.374 31.108 28.812 53.45 28.812 22.352 0 42.008-11.438 53.46-28.812 11.453 17.374 31.108 28.812 53.452 28.812 22.357 0 42.029-11.438 53.467-28.812 11.438 17.374 31.123 28.812 53.467 28.812 16.266 0 31.124-6.062 42.404-16.062V22.058l.263-21.142z" fill="#ff99ac"/></svg>