<svg width="471.418" height="250.199" viewBox="0 0 124.729 66.198" xmlns="http://www.w3.org/2000/svg"><defs><clipPath clipPathUnits="userSpaceOnUse" id="ac"><path d="M-346.012 284.621h500v-500h-500z" style="stroke-width:.999998"/></clipPath><clipPath clipPathUnits="userSpaceOnUse" id="ab"><path d="M-348.369 285.195h500v-500h-500z" style="stroke-width:.999998"/></clipPath><clipPath clipPathUnits="userSpaceOnUse" id="aa"><path d="M-350.064 306.924h500v-500h-500z" style="stroke-width:.999998"/></clipPath><clipPath clipPathUnits="userSpaceOnUse" id="Z"><path d="M-343.912 288.163h500v-500h-500z" style="stroke-width:.999998"/></clipPath><clipPath clipPathUnits="userSpaceOnUse" id="Y"><path d="M-340.91 291.165h500v-500h-500z" style="stroke-width:.999998"/></clipPath><clipPath clipPathUnits="userSpaceOnUse" id="X"><path d="M-337.908 293.166h500v-500h-500z" style="stroke-width:.999998"/></clipPath><clipPath clipPathUnits="userSpaceOnUse" id="V"><path d="M-437.933 276.308h500v-500h-500z" style="stroke-width:.999998"/></clipPath><clipPath clipPathUnits="userSpaceOnUse" id="U"><path d="M-398.674 303.024h500v-500h-500z" style="stroke-width:.999998"/></clipPath><clipPath clipPathUnits="userSpaceOnUse" id="T"><path d="M-423.813 296.614h500v-500h-500z" style="stroke-width:.999998"/></clipPath><clipPath clipPathUnits="userSpaceOnUse" id="S"><path d="M-420.811 299.616h500v-500h-500z" style="stroke-width:.999998"/></clipPath><clipPath clipPathUnits="userSpaceOnUse" id="R"><path d="M-417.81 301.617h500v-500h-500z" style="stroke-width:.999998"/></clipPath><clipPath clipPathUnits="userSpaceOnUse" id="x"><path d="M-246.525 172.769h500v-500h-500z" style="stroke-width:.999998"/></clipPath><clipPath clipPathUnits="userSpaceOnUse" id="w"><path d="M-208.444 204.225h500v-500h-500z" style="stroke-width:.999998"/></clipPath><clipPath clipPathUnits="userSpaceOnUse" id="v"><path d="M-233.088 178.516h500v-500h-500z" style="stroke-width:.999998"/></clipPath><clipPath clipPathUnits="userSpaceOnUse" id="u"><path d="M-230.086 181.518h500v-500h-500z" style="stroke-width:.999998"/></clipPath><clipPath clipPathUnits="userSpaceOnUse" id="t"><path d="M-227.084 183.519h500v-500h-500z" style="stroke-width:.999998"/></clipPath><clipPath clipPathUnits="userSpaceOnUse" id="r"><path d="M-320.824 93.773h500v-500h-500z" style="stroke-width:.999998"/></clipPath><clipPath clipPathUnits="userSpaceOnUse" id="q"><path d="M-294.807 118.794h500v-500h-500z" style="stroke-width:.999998"/></clipPath><clipPath clipPathUnits="userSpaceOnUse" id="p"><path d="M-317.785 88.975h500v-500h-500z" style="stroke-width:.999998"/></clipPath><clipPath clipPathUnits="userSpaceOnUse" id="o"><path d="M-314.783 91.977h500v-500h-500z" style="stroke-width:.999998"/></clipPath><clipPath clipPathUnits="userSpaceOnUse" id="n"><path d="M-311.782 93.978h500v-500h-500z" style="stroke-width:.999998"/></clipPath><clipPath clipPathUnits="userSpaceOnUse" id="l"><path d="M-213.744 87.585h500v-500h-500z" style="stroke-width:.999998"/></clipPath><clipPath clipPathUnits="userSpaceOnUse" id="k"><path d="M-177.35 117.623h500v-500h-500z" style="stroke-width:.999998"/></clipPath><clipPath clipPathUnits="userSpaceOnUse" id="j"><path d="M-214.898 89.218h500v-500h-500z" style="stroke-width:.999998"/></clipPath><clipPath clipPathUnits="userSpaceOnUse" id="i"><path d="M-211.896 92.22h500v-500h-500z" style="stroke-width:.999998"/></clipPath><clipPath clipPathUnits="userSpaceOnUse" id="h"><path d="M-208.894 94.221h500v-500h-500z" style="stroke-width:.999998"/></clipPath><clipPath clipPathUnits="userSpaceOnUse" id="f"><path d="M-81.635 72.353h500v-500h-500z" style="stroke-width:.999998"/></clipPath><clipPath clipPathUnits="userSpaceOnUse" id="e"><path d="M-79.497 97.468h500v-500h-500z" style="stroke-width:.999998"/></clipPath><clipPath clipPathUnits="userSpaceOnUse" id="d"><path d="M-77.828 102.27h500v-500h-500z" style="stroke-width:.999998"/></clipPath><clipPath clipPathUnits="userSpaceOnUse" id="c"><path d="M-74.827 105.272h500v-500h-500z" style="stroke-width:.999998"/></clipPath><clipPath clipPathUnits="userSpaceOnUse" id="b"><path d="M-71.825 107.273h500v-500h-500z" style="stroke-width:.999998"/></clipPath><clipPath clipPathUnits="userSpaceOnUse" id="z"><path d="M-71.825 107.273h500v-500h-500z" style="stroke-width:.999998"/></clipPath><clipPath clipPathUnits="userSpaceOnUse" id="A"><path d="M-74.827 105.272h500v-500h-500z" style="stroke-width:.999998"/></clipPath><clipPath clipPathUnits="userSpaceOnUse" id="B"><path d="M-77.828 102.27h500v-500h-500z" style="stroke-width:.999998"/></clipPath><clipPath clipPathUnits="userSpaceOnUse" id="C"><path d="M-79.497 97.468h500v-500h-500z" style="stroke-width:.999998"/></clipPath><clipPath clipPathUnits="userSpaceOnUse" id="D"><path d="M-81.635 72.353h500v-500h-500z" style="stroke-width:.999998"/></clipPath><clipPath clipPathUnits="userSpaceOnUse" id="F"><path d="M-208.894 94.221h500v-500h-500z" style="stroke-width:.999998"/></clipPath><clipPath clipPathUnits="userSpaceOnUse" id="G"><path d="M-211.896 92.22h500v-500h-500z" style="stroke-width:.999998"/></clipPath><clipPath clipPathUnits="userSpaceOnUse" id="H"><path d="M-214.898 89.218h500v-500h-500z" style="stroke-width:.999998"/></clipPath><clipPath clipPathUnits="userSpaceOnUse" id="I"><path d="M-177.35 117.623h500v-500h-500z" style="stroke-width:.999998"/></clipPath><clipPath clipPathUnits="userSpaceOnUse" id="J"><path d="M-213.744 87.585h500v-500h-500z" style="stroke-width:.999998"/></clipPath><clipPath clipPathUnits="userSpaceOnUse" id="L"><path d="M-227.084 183.519h500v-500h-500z" style="stroke-width:.999998"/></clipPath><clipPath clipPathUnits="userSpaceOnUse" id="M"><path d="M-230.086 181.518h500v-500h-500z" style="stroke-width:.999998"/></clipPath><clipPath clipPathUnits="userSpaceOnUse" id="N"><path d="M-233.088 178.516h500v-500h-500z" style="stroke-width:.999998"/></clipPath><clipPath clipPathUnits="userSpaceOnUse" id="O"><path d="M-208.444 204.225h500v-500h-500z" style="stroke-width:.999998"/></clipPath><clipPath clipPathUnits="userSpaceOnUse" id="P"><path d="M-246.525 172.769h500v-500h-500z" style="stroke-width:.999998"/></clipPath><filter style="color-interpolation-filters:sRGB" id="K" x="-.335" y="-.307" width="1.716" height="1.656"><feFlood flood-opacity=".498" flood-color="#000" result="flood"/><feComposite in="flood" in2="SourceGraphic" operator="in" result="composite1"/><feGaussianBlur in="composite1" stdDeviation="3" result="blur"/><feOffset dx="1" dy="1" result="offset"/><feComposite in="SourceGraphic" in2="offset" result="composite2"/></filter><filter style="color-interpolation-filters:sRGB" id="E" x="-.372" y="-.309" width="1.796" height="1.661"><feFlood flood-opacity=".498" flood-color="#000" result="flood"/><feComposite in="flood" in2="SourceGraphic" operator="in" result="composite1"/><feGaussianBlur in="composite1" stdDeviation="3" result="blur"/><feOffset dx="1" dy="1" result="offset"/><feComposite in="SourceGraphic" in2="offset" result="composite2"/></filter><filter style="color-interpolation-filters:sRGB" id="Q" x="-.301" y="-.299" width="1.644" height="1.641"><feFlood flood-opacity=".498" flood-color="#000" result="flood"/><feComposite in="flood" in2="SourceGraphic" operator="in" result="composite1"/><feGaussianBlur in="composite1" stdDeviation="3" result="blur"/><feOffset dx="1" dy="1" result="offset"/><feComposite in="SourceGraphic" in2="offset" result="composite2"/></filter><filter style="color-interpolation-filters:sRGB" id="y" x="-.309" y="-.303" width="1.661" height="1.648"><feFlood flood-opacity=".498" flood-color="#000" result="flood"/><feComposite in="flood" in2="SourceGraphic" operator="in" result="composite1"/><feGaussianBlur in="composite1" stdDeviation="3" result="blur"/><feOffset dx="1" dy="1" result="offset"/><feComposite in="SourceGraphic" in2="offset" result="composite2"/></filter><filter style="color-interpolation-filters:sRGB" id="W" x="-.376" y="-.301" width="1.804" height="1.645"><feFlood flood-opacity=".498" flood-color="#000" result="flood"/><feComposite in="flood" in2="SourceGraphic" operator="in" result="composite1"/><feGaussianBlur in="composite1" stdDeviation="3" result="blur"/><feOffset dx="1" dy="1" result="offset"/><feComposite in="SourceGraphic" in2="offset" result="composite2"/></filter><filter style="color-interpolation-filters:sRGB" id="g" x="-.372" y="-.309" width="1.796" height="1.661"><feFlood flood-opacity=".498" flood-color="#000" result="flood"/><feComposite in="flood" in2="SourceGraphic" operator="in" result="composite1"/><feGaussianBlur in="composite1" stdDeviation="3" result="blur"/><feOffset dx="1" dy="1" result="offset"/><feComposite in="SourceGraphic" in2="offset" result="composite2"/></filter><filter style="color-interpolation-filters:sRGB" id="a" x="-.309" y="-.303" width="1.661" height="1.648"><feFlood flood-opacity=".498" flood-color="#000" result="flood"/><feComposite in="flood" in2="SourceGraphic" operator="in" result="composite1"/><feGaussianBlur in="composite1" stdDeviation="3" result="blur"/><feOffset dx="1" dy="1" result="offset"/><feComposite in="SourceGraphic" in2="offset" result="composite2"/></filter><filter style="color-interpolation-filters:sRGB" id="s" x="-.335" y="-.307" width="1.716" height="1.656"><feFlood flood-opacity=".498" flood-color="#000" result="flood"/><feComposite in="flood" in2="SourceGraphic" operator="in" result="composite1"/><feGaussianBlur in="composite1" stdDeviation="3" result="blur"/><feOffset dx="1" dy="1" result="offset"/><feComposite in="SourceGraphic" in2="offset" result="composite2"/></filter><filter style="color-interpolation-filters:sRGB" id="m" x="-.373" y="-.302" width="1.797" height="1.646"><feFlood flood-opacity=".498" flood-color="#000" result="flood"/><feComposite in="flood" in2="SourceGraphic" operator="in" result="composite1"/><feGaussianBlur in="composite1" stdDeviation="3" result="blur"/><feOffset dx="1" dy="1" result="offset"/><feComposite in="SourceGraphic" in2="offset" result="composite2"/></filter></defs><g style="filter:url(#a)" transform="translate(7.2 7.2)"><g transform="matrix(.35278 0 0 -.35278 43.79 13.636)" clip-path="url(#b)"><path d="M0 0c-1.85-1.95-8.64-3.25-9.85-1.02-1.36 2.51-.28 9.11 3.63 9.94C-2.32 9.76 1.86 1.95 0 0m25.38-17.72c-1.04 4.41-2.24 8.78-3.52 13.12-2.88 9.8-5.94 20-10.66 29.1-1.52 2.94-3.53 6.34-6.81 7.33a43 43 0 0 1-8.71 1.69c-5.54.48-12.04-.19-15.74-4.86-5.53-6.95-16.06-51.89-12.67-55.46 3.39-3.57 15.34-1.07 15.34-1.07 4.46 4.1 3.03 10.34 7.85 11.59 4.81 1.25 9.63 1.78 11.41-1.6 1.79-3.39.72-9.28 5.35-10.17 4.64-.89 19.26-1.61 19.44 3.21.09 2.33-.76 4.88-1.28 7.12" style="fill:#f4d1d5;fill-opacity:1;fill-rule:nonzero;stroke:none"/></g><g transform="matrix(.35278 0 0 -.35278 44.849 12.93)" clip-path="url(#c)"><path d="M0 0c-1.85-1.95-8.64-3.25-9.85-1.02-1.36 2.51-.28 9.11 3.63 9.94C-2.32 9.76 1.86 1.95 0 0m25.38-17.72c-1.04 4.41-2.24 8.78-3.52 13.12-2.88 9.8-5.94 20-10.66 29.1-1.52 2.94-3.53 6.34-6.81 7.33a43 43 0 0 1-8.71 1.69c-5.54.48-12.04-.19-15.74-4.86-5.53-6.95-16.06-51.89-12.67-55.46 3.39-3.57 15.34-1.07 15.34-1.07 4.46 4.1 3.03 10.34 7.85 11.59 4.81 1.25 9.63 1.78 11.41-1.6 1.79-3.39.72-9.28 5.35-10.17 4.64-.89 19.26-1.61 19.44 3.21.09 2.33-.76 4.88-1.28 7.12" style="fill:#fff;fill-opacity:1;fill-rule:nonzero;stroke:none"/></g><g transform="matrix(.35278 0 0 -.35278 45.908 11.871)" clip-path="url(#d)"><path d="M0 0c-1.85-1.95-8.64-3.25-9.85-1.02-1.36 2.51-.28 9.11 3.63 9.94C-2.32 9.76 1.86 1.95 0 0m25.38-17.72c-1.04 4.41-2.24 8.78-3.52 13.12-2.88 9.8-5.94 20-10.66 29.1-1.52 2.94-3.53 6.34-6.81 7.33a43 43 0 0 1-8.71 1.69c-5.54.48-12.04-.19-15.74-4.86-5.53-6.95-16.06-51.89-12.67-55.46 3.39-3.57 15.34-1.07 15.34-1.07 4.46 4.1 3.03 10.34 7.85 11.59 4.81 1.25 9.63 1.78 11.41-1.6 1.79-3.39.72-9.28 5.35-10.17 4.64-.89 19.26-1.61 19.44 3.21.09 2.33-.76 4.88-1.28 7.12" style="fill:#ff7998;fill-opacity:1;fill-rule:nonzero;stroke:none"/></g><g transform="matrix(.35278 0 0 -.35278 46.496 10.177)" clip-path="url(#e)"><path d="M0 0c1.118-2.61 1.037-4.863-.217-6.178-1.735-1.828-5.505-2.815-8.171-2.815-3.046 0-4.339 1.206-4.888 2.218-1.046 1.93-1.041 5.177-.062 7.882A273.043 273.043 0 0 1-28.396-1.14c-3.176-12.976-5.464-26.693-4.464-29.17.47-.422 1.86-1.213 5.673-1.213 2.945 0 5.945.482 7.159.702 1.385 1.465 2.027 3.283 2.65 5.047.939 2.662 2.003 5.678 5.667 6.628 2.689.699 4.784 1.024 6.594 1.024 3.436 0 5.821-1.22 7.087-3.626.735-1.391 1.047-2.972 1.349-4.5.604-3.057 1.009-4.332 2.61-4.639 1.584-.304 4.613-.611 7.81-.611h.001c7.004 0 9.234 1.415 9.253 1.934.059 1.524-.398 3.304-.84 5.025-.137.533-.272 1.057-.388 1.558-.929 3.938-2.071 8.195-3.492 13.015-1.179 4.012-2.502 8.481-4.041 13.03a286.533 286.533 0 0 1-15.499-.768C-.763 1.563-.334.781 0 0" style="fill:#ff598f;fill-opacity:1;fill-rule:nonzero;stroke:none"/></g><g transform="matrix(.35278 0 0 -.35278 47.25 1.317)" clip-path="url(#f)"><path d="M0 0a40.851 40.851 0 0 1-8.299 1.61c-.947.082-1.873.124-2.753.124-5.238 0-9.021-1.424-11.249-4.236-1.42-1.785-3.073-5.879-4.713-11.037 11.061 2.737 22.325 4.476 33.685 5.043-.348.724-.688 1.455-1.054 2.161C4.141-3.48 2.439-.736 0 0" style="fill:#fd9ea9;fill-opacity:1;fill-rule:nonzero;stroke:none"/></g></g><g style="filter:url(#g)" transform="translate(7.2 7.2)"><g transform="matrix(.35278 0 0 -.35278 26.394 8.84)" clip-path="url(#h)"><path d="M0 0c3.821 2.697 2.852 18.152-4.149 19.449-7.002 1.296-29.821 2.593-36.953-19.838-7.131-22.431 2.853-38.119 21.135-40.064 18.281-1.945 23.857 1.815 25.024 5.316 1.167 3.5-.389 17.504-6.224 17.504S-23.079-20.356-18.8-9.984C-14.522.389-4.408-3.112 0 0" style="fill:#f4d1d5;fill-opacity:1;fill-rule:nonzero;stroke:none"/></g><g transform="matrix(.35278 0 0 -.35278 27.453 8.134)" clip-path="url(#i)"><path d="M0 0c3.821 2.697 2.852 18.152-4.149 19.449-7.002 1.296-29.821 2.593-36.953-19.838-7.131-22.431 2.853-38.119 21.135-40.064 18.281-1.945 23.857 1.815 25.024 5.316 1.167 3.5-.389 17.504-6.224 17.504S-23.079-20.356-18.8-9.984C-14.522.389-4.408-3.112 0 0" style="fill:#fff;fill-opacity:1;fill-rule:nonzero;stroke:none"/></g><g transform="matrix(.35278 0 0 -.35278 28.512 7.075)" clip-path="url(#j)"><path d="M0 0c3.821 2.697 2.852 18.152-4.149 19.449-7.002 1.296-29.821 2.593-36.953-19.838-7.131-22.431 2.853-38.119 21.135-40.064 18.281-1.945 23.857 1.815 25.024 5.316 1.167 3.5-.389 17.504-6.224 17.504S-23.079-20.356-18.8-9.984C-14.522.389-4.408-3.112 0 0" style="fill:#ff7998;fill-opacity:1;fill-rule:nonzero;stroke:none"/></g><g transform="matrix(.35278 0 0 -.35278 15.267 17.095)" clip-path="url(#k)"><path d="M0 0c3.75-5.742 9.902-9.221 17.791-10.061 3.246-.345 6.225-.52 8.855-.52 11.342 0 13.611 3.133 14.06 4.48.727 2.179.022 10.171-2.44 13.585-.927 1.287-1.649 1.287-1.886 1.287-.833 0-1.911-.061-3.159-.131-1.606-.09-3.427-.192-5.26-.192-3.99 0-8.842.407-10.97 3.587-.703 1.05-1.006 2.277-.937 3.657-6.583.521-13.17 1.083-19.765 1.694C-4.293 10.652-3.049 4.669 0 0" style="fill:#ff598f;fill-opacity:1;fill-rule:nonzero;stroke:none"/></g><g transform="matrix(.35278 0 0 -.35278 28.105 6.499)" clip-path="url(#l)"><path d="M0 0c1.045.738 1.946 4.949.923 9.615-.778 3.551-2.38 5.881-4.283 6.233-1.155.214-3.566.573-6.736.573-7.954 0-21.892-2.347-27.495-17.736 8.241-.785 16.463-1.483 24.672-2.103 2.643 1.349 5.477 1.754 7.866 2.092C-3.012-1.038-1.084-.765 0 0" style="fill:#fd9ea9;fill-opacity:1;fill-rule:nonzero;stroke:none"/></g></g><g style="filter:url(#m)" transform="translate(7.2 7.2)"><g transform="matrix(.35278 0 0 -.35278 88.271 9.07)" clip-path="url(#n)"><path d="M0 0s14.355-.968 17.097 1.774c2.742 2.742 2.904 15.162-.484 16.775-3.387 1.613-35.323 4.355-40.001-.968-4.677-5.323-4.194-56.131 2.581-58.389 6.774-2.258 40.163-.806 42.098 2.742 1.936 3.549.968 17.42-2.258 18.065-3.226.646-18.388-.484-18.388-.484v3.388s7.259-1.775 8.388.322c1.129 2.097-.162 13.227-2.259 13.71-2.096.484-7.258.162-7.258.162z" style="fill:#f4d1d5;fill-opacity:1;fill-rule:nonzero;stroke:none"/></g><g transform="matrix(.35278 0 0 -.35278 89.33 8.364)" clip-path="url(#o)"><path d="M0 0s14.355-.968 17.097 1.774c2.742 2.742 2.904 15.162-.484 16.775-3.387 1.613-35.323 4.355-40.001-.968-4.677-5.322-4.194-56.131 2.581-58.389 6.774-2.258 40.163-.806 42.098 2.742 1.936 3.549.968 17.42-2.258 18.065-3.226.646-18.388-.484-18.388-.484v3.388s7.259-1.775 8.388.322c1.129 2.097-.162 13.227-2.259 13.71-2.096.484-7.258.162-7.258.162z" style="fill:#fff;fill-opacity:1;fill-rule:nonzero;stroke:none"/></g><g transform="matrix(.35278 0 0 -.35278 90.39 7.305)" clip-path="url(#p)"><path d="M0 0s14.355-.968 17.097 1.774c2.742 2.742 2.904 15.162-.484 16.775-3.387 1.613-35.323 4.355-40.001-.968-4.677-5.322-4.194-56.131 2.581-58.389 6.774-2.258 40.163-.806 42.098 2.742 1.936 3.549.968 17.42-2.258 18.065-3.226.646-18.388-.484-18.388-.484v3.388s7.259-1.775 8.388.322c1.129 2.097-.162 13.227-2.259 13.71-2.096.484-7.258.162-7.258.162z" style="fill:#ff7998;fill-opacity:1;fill-rule:nonzero;stroke:none"/></g><g transform="matrix(.35278 0 0 -.35278 82.283 17.824)" clip-path="url(#q)"><path d="M0 0c1.281-8.062 2.818-9.091 2.804-9.091 1.839-.614 6.533-.979 12.557-.979 13.194 0 25.309 1.56 27.228 2.93 1.474 3.108.409 13.494-1.13 15.024-.396.059-1.254.134-3.069.134-5.454 0-14.528-.671-14.619-.678a1.997 1.997 0 0 0-1.508.529c-.409.378-.64.909-.64 1.465v3.388a2 2 0 0 0 .139.699 969.831 969.831 0 0 0-23.045-.399C-1.052 8.493-.64 4.024 0 0" style="fill:#ff598f;fill-opacity:1;fill-rule:nonzero;stroke:none"/></g><g transform="matrix(.35278 0 0 -.35278 91.461 8.997)" clip-path="url(#r)"><path d="M0 0c-1.748 0-3.382-.101-3.397-.102a2 2 0 0 0-2.098 2.325l.483 2.903a2 2 0 0 0 2.107 1.667c.024-.001 2.434-.161 5.4-.161 8.695 0 10.094 1.299 10.15 1.354.918.92 1.872 5.47 1.303 9.871-.344 2.662-1.064 3.585-1.233 3.684-1.444.672-11.665 1.963-21.852 1.963-12.981 0-15.428-2.037-15.788-2.445-1.409-1.603-2.488-11.068-2.594-22.142 10.287-.12 20.571-.138 30.857-.067-.135.413-.278.761-.427 1.003C2.417-.076 1.533 0 0 0" style="fill:#fd9ea9;fill-opacity:1;fill-rule:nonzero;stroke:none"/></g></g><g style="filter:url(#s)" transform="translate(7.2 7.2)"><g transform="matrix(.35278 0 0 -.35278 66.015 5.273)" clip-path="url(#t)"><path d="M0 0s.746 6.343-.871 7.96-21.019 4.229-24.75-1.741c-3.732-5.97-.871-53.109 3.98-56.218 4.85-3.11 17.039-1.12 18.905.995 1.865 2.114 1.243 6.467 1.243 6.467s15.547-10.323 19.652-8.457c4.104 1.865 11.443 17.786 8.955 20.895-2.488 3.109-14.303 8.458-14.303 8.458S26.243-8.582 26.243-5.099c0 3.482-9.95 13.432-13.184 12.81C9.826 7.089 0 0 0 0" style="fill:#f4d1d5;fill-opacity:1;fill-rule:nonzero;stroke:none"/></g><g transform="matrix(.35278 0 0 -.35278 67.074 4.567)" clip-path="url(#u)"><path d="M0 0s.746 6.343-.871 7.96-21.019 4.229-24.75-1.741c-3.732-5.97-.871-53.109 3.98-56.218 4.85-3.11 17.039-1.12 18.905.995 1.865 2.114 1.243 6.467 1.243 6.467s15.547-10.323 19.652-8.457c4.104 1.865 11.443 17.786 8.955 20.895-2.488 3.109-14.303 8.458-14.303 8.458S26.243-8.582 26.243-5.099c0 3.482-9.95 13.432-13.184 12.81C9.826 7.089 0 0 0 0" style="fill:#fff;fill-opacity:1;fill-rule:nonzero;stroke:none"/></g><g transform="matrix(.35278 0 0 -.35278 68.133 3.508)" clip-path="url(#v)"><path d="M0 0s.746 6.343-.871 7.96-21.019 4.229-24.75-1.741c-3.732-5.97-.871-53.109 3.98-56.218 4.85-3.11 17.039-1.12 18.905.995 1.865 2.114 1.243 6.467 1.243 6.467s15.547-10.323 19.652-8.457c4.104 1.865 11.443 17.786 8.955 20.895-2.488 3.109-14.303 8.458-14.303 8.458S26.243-8.582 26.243-5.099c0 3.482-9.95 13.432-13.184 12.81C9.826 7.089 0 0 0 0" style="fill:#ff7998;fill-opacity:1;fill-rule:nonzero;stroke:none"/></g><g transform="matrix(.35278 0 0 -.35278 59.439 12.577)" clip-path="url(#w)"><path d="M0 0c1.094-13.921 3.02-21.594 4.081-22.607 1.301-.833 3.605-1.293 6.486-1.293 4.843 0 9.133 1.259 9.84 1.928.937 1.062.919 3.737.764 4.861a2.002 2.002 0 0 0 3.086 1.949c4.862-3.228 13.858-8.349 17.305-8.349.299 0 .413.046.413.046 1.569.713 5.086 6.16 7.099 11.855 1.386 3.918 1.247 5.701 1.121 5.97-.598.748-2.041 1.765-3.842 2.85-.089.005-.179.009-.268.015C30.756-1.969 15.386-.959 0 0" style="fill:#ff598f;fill-opacity:1;fill-rule:nonzero;stroke:none"/></g><g transform="matrix(.35278 0 0 -.35278 72.873 1.48)" clip-path="url(#x)"><path d="M0 0c-1.929-.371-8.335-4.533-12.268-7.37a1.995 1.995 0 0 0-2.183-.102 2 2 0 0 0-.973 1.958c.298 2.532.164 5.487-.251 6.239-1.04.484-5.635 1.471-11.135 1.471-5.518 0-9.463-1.041-10.553-2.785-.951-1.521-1.578-8.537-1.349-18.612 14.658.186 29.305.478 43.947.817 3.095 3.472 5.419 6.476 5.571 7.534C10.713-8.44 2.278-.031 0 0" style="fill:#fd9ea9;fill-opacity:1;fill-rule:nonzero;stroke:none"/></g></g><g style="filter:url(#y)" transform="translate(7.2 7.2)"><g transform="matrix(.35278 0 0 -.35278 54.31 40.665)" clip-path="url(#z)"><path d="M0 0c-1.85-1.95-8.64-3.25-9.85-1.02-1.36 2.51-.28 9.11 3.63 9.94C-2.32 9.76 1.86 1.95 0 0m25.38-17.72c-1.04 4.41-2.24 8.78-3.52 13.12-2.88 9.8-5.94 20-10.66 29.1-1.52 2.94-3.53 6.34-6.81 7.33a43 43 0 0 1-8.71 1.69c-5.54.48-12.04-.19-15.74-4.86-5.53-6.95-16.06-51.89-12.67-55.46 3.39-3.57 15.34-1.07 15.34-1.07 4.46 4.1 3.03 10.34 7.85 11.59 4.81 1.25 9.63 1.78 11.41-1.6 1.79-3.39.72-9.28 5.35-10.17 4.64-.89 19.26-1.61 19.44 3.21.09 2.33-.76 4.88-1.28 7.12" style="fill:#f4d1d5;fill-opacity:1;fill-rule:nonzero;stroke:none"/></g><g transform="matrix(.35278 0 0 -.35278 55.368 39.959)" clip-path="url(#A)"><path d="M0 0c-1.85-1.95-8.64-3.25-9.85-1.02-1.36 2.51-.28 9.11 3.63 9.94C-2.32 9.76 1.86 1.95 0 0m25.38-17.72c-1.04 4.41-2.24 8.78-3.52 13.12-2.88 9.8-5.94 20-10.66 29.1-1.52 2.94-3.53 6.34-6.81 7.33a43 43 0 0 1-8.71 1.69c-5.54.48-12.04-.19-15.74-4.86-5.53-6.95-16.06-51.89-12.67-55.46 3.39-3.57 15.34-1.07 15.34-1.07 4.46 4.1 3.03 10.34 7.85 11.59 4.81 1.25 9.63 1.78 11.41-1.6 1.79-3.39.72-9.28 5.35-10.17 4.64-.89 19.26-1.61 19.44 3.21.09 2.33-.76 4.88-1.28 7.12" style="fill:#fff;fill-opacity:1;fill-rule:nonzero;stroke:none"/></g><g transform="matrix(.35278 0 0 -.35278 56.427 38.9)" clip-path="url(#B)"><path d="M0 0c-1.85-1.95-8.64-3.25-9.85-1.02-1.36 2.51-.28 9.11 3.63 9.94C-2.32 9.76 1.86 1.95 0 0m25.38-17.72c-1.04 4.41-2.24 8.78-3.52 13.12-2.88 9.8-5.94 20-10.66 29.1-1.52 2.94-3.53 6.34-6.81 7.33a43 43 0 0 1-8.71 1.69c-5.54.48-12.04-.19-15.74-4.86-5.53-6.95-16.06-51.89-12.67-55.46 3.39-3.57 15.34-1.07 15.34-1.07 4.46 4.1 3.03 10.34 7.85 11.59 4.81 1.25 9.63 1.78 11.41-1.6 1.79-3.39.72-9.28 5.35-10.17 4.64-.89 19.26-1.61 19.44 3.21.09 2.33-.76 4.88-1.28 7.12" style="fill:#ff7998;fill-opacity:1;fill-rule:nonzero;stroke:none"/></g><g transform="matrix(.35278 0 0 -.35278 57.016 37.206)" clip-path="url(#C)"><path d="M0 0c1.118-2.61 1.037-4.863-.217-6.178-1.735-1.828-5.505-2.815-8.171-2.815-3.046 0-4.339 1.206-4.888 2.218-1.046 1.93-1.041 5.177-.062 7.882A273.043 273.043 0 0 1-28.396-1.14c-3.176-12.976-5.464-26.693-4.464-29.17.47-.422 1.86-1.213 5.673-1.213 2.945 0 5.945.482 7.159.702 1.385 1.465 2.027 3.283 2.65 5.047.939 2.662 2.003 5.678 5.667 6.628 2.689.699 4.784 1.024 6.594 1.024 3.436 0 5.821-1.22 7.087-3.626.735-1.391 1.047-2.972 1.349-4.5.604-3.057 1.009-4.332 2.61-4.639 1.584-.304 4.613-.611 7.81-.611h.001c7.004 0 9.234 1.415 9.253 1.934.059 1.524-.398 3.304-.84 5.025-.137.533-.272 1.057-.388 1.558-.929 3.938-2.071 8.195-3.492 13.015-1.179 4.012-2.502 8.481-4.041 13.03a286.533 286.533 0 0 1-15.499-.768C-.763 1.563-.334.781 0 0" style="fill:#ff598f;fill-opacity:1;fill-rule:nonzero;stroke:none"/></g><g transform="matrix(.35278 0 0 -.35278 57.77 28.346)" clip-path="url(#D)"><path d="M0 0a40.851 40.851 0 0 1-8.299 1.61c-.947.082-1.873.124-2.753.124-5.238 0-9.021-1.424-11.249-4.236-1.42-1.785-3.073-5.879-4.713-11.037 11.061 2.737 22.325 4.476 33.685 5.043-.348.724-.688 1.455-1.054 2.161C4.141-3.48 2.439-.736 0 0" style="fill:#fd9ea9;fill-opacity:1;fill-rule:nonzero;stroke:none"/></g></g><g style="filter:url(#E)" transform="translate(7.2 7.2)"><g transform="matrix(.35278 0 0 -.35278 82.21 36.339)" clip-path="url(#F)"><path d="M0 0c3.821 2.697 2.852 18.152-4.149 19.449-7.002 1.296-29.821 2.593-36.953-19.838-7.131-22.431 2.853-38.119 21.135-40.064 18.281-1.945 23.857 1.815 25.024 5.316 1.167 3.5-.389 17.504-6.224 17.504S-23.079-20.356-18.8-9.984C-14.522.389-4.408-3.112 0 0" style="fill:#f4d1d5;fill-opacity:1;fill-rule:nonzero;stroke:none"/></g><g transform="matrix(.35278 0 0 -.35278 83.269 35.633)" clip-path="url(#G)"><path d="M0 0c3.821 2.697 2.852 18.152-4.149 19.449-7.002 1.296-29.821 2.593-36.953-19.838-7.131-22.431 2.853-38.119 21.135-40.064 18.281-1.945 23.857 1.815 25.024 5.316 1.167 3.5-.389 17.504-6.224 17.504S-23.079-20.356-18.8-9.984C-14.522.389-4.408-3.112 0 0" style="fill:#fff;fill-opacity:1;fill-rule:nonzero;stroke:none"/></g><g transform="matrix(.35278 0 0 -.35278 84.328 34.574)" clip-path="url(#H)"><path d="M0 0c3.821 2.697 2.852 18.152-4.149 19.449-7.002 1.296-29.821 2.593-36.953-19.838-7.131-22.431 2.853-38.119 21.135-40.064 18.281-1.945 23.857 1.815 25.024 5.316 1.167 3.5-.389 17.504-6.224 17.504S-23.079-20.356-18.8-9.984C-14.522.389-4.408-3.112 0 0" style="fill:#ff7998;fill-opacity:1;fill-rule:nonzero;stroke:none"/></g><g transform="matrix(.35278 0 0 -.35278 71.082 44.594)" clip-path="url(#I)"><path d="M0 0c3.75-5.742 9.902-9.221 17.791-10.061 3.246-.345 6.225-.52 8.855-.52 11.342 0 13.611 3.133 14.06 4.48.727 2.179.022 10.171-2.44 13.585-.927 1.287-1.649 1.287-1.886 1.287-.833 0-1.911-.061-3.159-.131-1.606-.09-3.427-.192-5.26-.192-3.99 0-8.842.407-10.97 3.587-.703 1.05-1.006 2.277-.937 3.657-6.583.521-13.17 1.083-19.765 1.694C-4.293 10.652-3.049 4.669 0 0" style="fill:#ff598f;fill-opacity:1;fill-rule:nonzero;stroke:none"/></g><g transform="matrix(.35278 0 0 -.35278 83.92 33.997)" clip-path="url(#J)"><path d="M0 0c1.045.738 1.946 4.949.923 9.615-.778 3.551-2.38 5.881-4.283 6.233-1.155.214-3.566.573-6.736.573-7.954 0-21.892-2.347-27.495-17.736 8.241-.785 16.463-1.483 24.672-2.103 2.643 1.349 5.477 1.754 7.866 2.092C-3.012-1.038-1.084-.765 0 0" style="fill:#fd9ea9;fill-opacity:1;fill-rule:nonzero;stroke:none"/></g></g><g style="filter:url(#K)" transform="translate(7.2 7.2)"><g transform="matrix(.35278 0 0 -.35278 97.468 32.59)" clip-path="url(#L)"><path d="M0 0s.746 6.343-.871 7.96-21.019 4.229-24.75-1.741c-3.732-5.97-.871-53.109 3.98-56.218 4.85-3.11 17.039-1.12 18.905.995 1.865 2.114 1.243 6.467 1.243 6.467s15.547-10.323 19.652-8.457c4.104 1.865 11.443 17.786 8.955 20.895-2.488 3.109-14.303 8.458-14.303 8.458S26.243-8.582 26.243-5.099c0 3.482-9.95 13.432-13.184 12.81C9.826 7.089 0 0 0 0" style="fill:#f4d1d5;fill-opacity:1;fill-rule:nonzero;stroke:none"/></g><g transform="matrix(.35278 0 0 -.35278 98.527 31.885)" clip-path="url(#M)"><path d="M0 0s.746 6.343-.871 7.96-21.019 4.229-24.75-1.741c-3.732-5.97-.871-53.109 3.98-56.218 4.85-3.11 17.039-1.12 18.905.995 1.865 2.114 1.243 6.467 1.243 6.467s15.547-10.323 19.652-8.457c4.104 1.865 11.443 17.786 8.955 20.895-2.488 3.109-14.303 8.458-14.303 8.458S26.243-8.582 26.243-5.099c0 3.482-9.95 13.432-13.184 12.81C9.826 7.089 0 0 0 0" style="fill:#fff;fill-opacity:1;fill-rule:nonzero;stroke:none"/></g><g transform="matrix(.35278 0 0 -.35278 99.586 30.826)" clip-path="url(#N)"><path d="M0 0s.746 6.343-.871 7.96-21.019 4.229-24.75-1.741c-3.732-5.97-.871-53.109 3.98-56.218 4.85-3.11 17.039-1.12 18.905.995 1.865 2.114 1.243 6.467 1.243 6.467s15.547-10.323 19.652-8.457c4.104 1.865 11.443 17.786 8.955 20.895-2.488 3.109-14.303 8.458-14.303 8.458S26.243-8.582 26.243-5.099c0 3.482-9.95 13.432-13.184 12.81C9.826 7.089 0 0 0 0" style="fill:#ff7998;fill-opacity:1;fill-rule:nonzero;stroke:none"/></g><g transform="matrix(.35278 0 0 -.35278 90.892 39.895)" clip-path="url(#O)"><path d="M0 0c1.094-13.921 3.02-21.594 4.081-22.607 1.301-.833 3.605-1.293 6.486-1.293 4.843 0 9.133 1.259 9.84 1.928.937 1.062.919 3.737.764 4.861a2.002 2.002 0 0 0 3.086 1.949c4.862-3.228 13.858-8.349 17.305-8.349.299 0 .413.046.413.046 1.569.713 5.086 6.16 7.099 11.855 1.386 3.918 1.247 5.701 1.121 5.97-.598.748-2.041 1.765-3.842 2.85-.089.005-.179.009-.268.015C30.756-1.969 15.386-.959 0 0" style="fill:#ff598f;fill-opacity:1;fill-rule:nonzero;stroke:none"/></g><g transform="matrix(.35278 0 0 -.35278 104.326 28.798)" clip-path="url(#P)"><path d="M0 0c-1.929-.371-8.335-4.533-12.268-7.37a1.995 1.995 0 0 0-2.183-.102 2 2 0 0 0-.973 1.958c.298 2.532.164 5.487-.251 6.239-1.04.484-5.635 1.471-11.135 1.471-5.518 0-9.463-1.041-10.553-2.785-.951-1.521-1.578-8.537-1.349-18.612 14.658.186 29.305.478 43.947.817 3.095 3.472 5.419 6.476 5.571 7.534C10.713-8.44 2.278-.031 0 0" style="fill:#fd9ea9;fill-opacity:1;fill-rule:nonzero;stroke:none"/></g></g><g style="filter:url(#Q)" transform="translate(7.2 7.2)"><g transform="matrix(.35278 0 0 -.35278 35.139 38.059)" clip-path="url(#R)"><path d="M0 0s10.756-1.229 13.522 1.383 4.763 21.665.307 23.663c-4.456 1.998-52.55 3.995-56.853-1.998-4.302-5.992-2.151-20.282 2.92-22.126C-35.034-.922-27.044 0-27.044 0s-1.075-30.885 4.917-34.265c5.993-3.381 18.286-1.691 19.976 1.69C-.461-29.195 0 0 0 0" style="fill:#f4d1d5;fill-opacity:1;fill-rule:nonzero;stroke:none"/></g><g transform="matrix(.35278 0 0 -.35278 36.198 37.353)" clip-path="url(#S)"><path d="M0 0s10.756-1.229 13.522 1.383 4.763 21.665.307 23.663c-4.456 1.998-52.55 3.995-56.853-1.998-4.302-5.992-2.151-20.282 2.92-22.126C-35.034-.922-27.044 0-27.044 0s-1.075-30.885 4.917-34.265c5.993-3.381 18.286-1.691 19.976 1.69C-.461-29.195 0 0 0 0" style="fill:#fff;fill-opacity:1;fill-rule:nonzero;stroke:none"/></g><g transform="matrix(.35278 0 0 -.35278 37.257 36.294)" clip-path="url(#T)"><path d="M0 0s10.756-1.229 13.522 1.383 4.763 21.665.307 23.663c-4.456 1.998-52.55 3.995-56.853-1.998-4.302-5.992-2.151-20.282 2.92-22.126C-35.034-.922-27.044 0-27.044 0s-1.075-30.885 4.917-34.265c5.993-3.381 18.286-1.691 19.976 1.69C-.461-29.195 0 0 0 0" style="fill:#ff7998;fill-opacity:1;fill-rule:nonzero;stroke:none"/></g><g transform="matrix(.35278 0 0 -.35278 28.388 38.555)" clip-path="url(#U)"><path d="M0 0c.05-12.467 1.473-24.691 3.995-26.114 1.812-1.021 4.545-1.584 7.699-1.584h.001c5.364 0 9.092 1.603 9.502 2.422.752 1.618 1.409 12.123 1.752 23.474C15.323-.645 7.604-.097 0 0" style="fill:#ff598f;fill-opacity:1;fill-rule:nonzero;stroke:none"/></g><g transform="matrix(.35278 0 0 -.35278 42.238 29.13)" clip-path="url(#V)"><path d="M0 0c-.433 2.479-1.103 2.911-1.109 2.914-1.637.734-13.975 1.823-27.665 1.823-19.36 0-25.959-2.068-26.745-3.161-1.775-2.472-2.218-6.79-1.755-10.699 18.966-.544 37.867-1.884 56.646-4.458C.181-9.786.715-4.098 0 0" style="fill:#fd9ea9;fill-opacity:1;fill-rule:nonzero;stroke:none"/></g></g><g style="filter:url(#W)" transform="translate(7.2 7.2)"><g transform="matrix(.35278 0 0 -.35278 7.295 35.53)" clip-path="url(#X)"><path d="M0 0c1.594 3.454 5.378.307 7.529-1.69C9.68-3.688 23.356 0 23.509 4.61 23.663 9.219 14.29 22.588.615 18.746c-13.676-3.841-22.127-8.758-20.898-20.283.507-4.751 2.39-9.378 5.869-12.728 3.936-3.79 9.631-4.105 14.764-5.046 1.729-.318 3.452-.707 5.103-1.324.926-.346 1.934-.889 2.151-1.853.173-.766-.243-1.568-.842-2.074-1.187-1.003-2.635-1.776-3.979-.775-1.177.876-1.887 2.369-3.17 3.098-1.571.894-4.094.662-5.877.684-2.445.029-4.89-.146-7.319-.401-2.087-.218-4.346-.66-6.042-1.977-2.147-1.672-.519-4.569.521-6.36 1.762-3.034 3.517-6.051 6.235-8.339 3.243-2.73 7.206-4.225 11.414-4.541 2.683-.201 5.386-.096 8.062.149 20.129 1.844 23.51 18.746 19.515 27.197C22.127-7.376-1.844-3.995 0 0" style="fill:#f4d1d5;fill-opacity:1;fill-rule:nonzero;stroke:none"/></g><g transform="matrix(.35278 0 0 -.35278 8.354 34.823)" clip-path="url(#Y)"><path d="M0 0c1.594 3.454 5.378.307 7.529-1.69C9.68-3.688 23.356 0 23.509 4.61 23.663 9.219 14.29 22.588.615 18.746c-13.676-3.841-22.127-8.758-20.898-20.283.507-4.751 2.39-9.378 5.869-12.728 3.936-3.79 9.631-4.105 14.764-5.047 1.729-.317 3.452-.706 5.103-1.323.926-.346 1.934-.889 2.151-1.853.173-.766-.243-1.568-.842-2.074-1.187-1.003-2.635-1.776-3.979-.775-1.177.876-1.887 2.369-3.17 3.098-1.571.894-4.094.662-5.877.684-2.445.029-4.89-.146-7.319-.401-2.087-.218-4.346-.66-6.042-1.977-2.147-1.672-.519-4.569.521-6.36 1.762-3.034 3.517-6.051 6.235-8.339 3.243-2.73 7.206-4.225 11.414-4.541 2.683-.201 5.386-.096 8.062.149 20.129 1.844 23.51 18.746 19.515 27.197C22.127-7.376-1.844-3.995 0 0" style="fill:#fff;fill-opacity:1;fill-rule:nonzero;stroke:none"/></g><g transform="matrix(.35278 0 0 -.35278 9.413 33.764)" clip-path="url(#Z)"><path d="M0 0c1.594 3.454 5.378.307 7.529-1.69C9.68-3.688 23.356 0 23.509 4.61 23.663 9.219 14.29 22.588.615 18.746c-13.676-3.841-22.127-8.758-20.898-20.283.507-4.751 2.39-9.378 5.869-12.728 3.936-3.79 9.631-4.105 14.764-5.047 1.729-.317 3.452-.706 5.103-1.323.926-.346 1.934-.889 2.151-1.853.173-.766-.243-1.568-.842-2.074-1.187-1.003-2.635-1.776-3.979-.775-1.177.876-1.887 2.369-3.17 3.098-1.571.894-4.094.662-5.877.684-2.445.029-4.89-.146-7.319-.401-2.087-.218-4.346-.66-6.042-1.977-2.147-1.672-.519-4.569.521-6.36 1.762-3.034 3.517-6.051 6.235-8.339 3.243-2.73 7.206-4.225 11.414-4.541 2.683-.201 5.386-.096 8.062.149 20.129 1.844 23.51 18.746 19.515 27.197C22.127-7.376-1.844-3.995 0 0" style="fill:#ff7998;fill-opacity:1;fill-rule:nonzero;stroke:none"/></g><g transform="matrix(.35278 0 0 -.35278 11.584 40.383)" clip-path="url(#aa)"><path d="M0 0c1.93-.721 3.075-1.827 3.403-3.289C3.726-4.724 3.15-6.271 1.9-7.33.536-8.482-.747-9.043-2.02-9.043c-.918 0-1.774.29-2.543.862-.714.533-1.255 1.175-1.732 1.744-.431.511-.837.996-1.232 1.22-.764.435-2.347.435-3.023.435-.278 0-1.597-.014-1.597-.014l-.805.005c-1.926 0-4.015-.125-6.574-.394-1.618-.169-3.65-.501-5.023-1.567-.565-.439-.26-1.569 1.023-3.775 1.715-2.955 3.337-5.746 5.793-7.814 2.821-2.375 6.375-3.784 10.275-4.077.89-.066 1.829-.101 2.793-.101 1.514 0 3.129.082 4.937.248 10.018.917 14.713 5.649 16.888 9.458C20.2-7.492 19.854-1.499 18.161 2.08c-.087.183-.2.363-.314.543-6.295-.644-12.584-1.45-18.88-2.276C-.689.237-.345.129 0 0" style="fill:#ff598f;fill-opacity:1;fill-rule:nonzero;stroke:none"/></g><g transform="matrix(.35278 0 0 -.35278 10.986 32.717)" clip-path="url(#ab)"><path d="M0 0c1.574-.704 3.083-1.946 4.339-3.106.11-.034.421-.108 1.051-.108 3.441 0 7.992 1.678 10.256 3.263C10.434.08 5.218.061 0 0" style="fill:#fd9ea9;fill-opacity:1;fill-rule:nonzero;stroke:none"/></g><g transform="matrix(.35278 0 0 -.35278 10.154 32.515)" clip-path="url(#ac)"><path d="M0 0c.788 0 1.58-.226 2.357-.574 5.218.062 10.433.08 15.645.049.854.598 1.392 1.183 1.408 1.659.039 1.183-1.249 4.326-4.139 7.314-1.966 2.032-6.127 5.441-11.914 5.441-1.413 0-2.86-.205-4.301-.611-12.854-3.611-18.591-7.703-19.443-14.351 6.071.19 12.142.344 18.21.442A4.11 4.11 0 0 0 0 0" style="fill:#fd9ea9;fill-opacity:1;fill-rule:nonzero;stroke:none"/></g></g></svg>