<svg viewBox="0 0 1066.7 559.67" xmlns="http://www.w3.org/2000/svg"><defs><clipPath id="k"><path d="M0 1070h5000v1972.5H0z"/></clipPath><clipPath id="l"><path d="M3392 4285v715h1126v-715z"/></clipPath><clipPath id="m"><path d="M2449.3 3837.3c12.74-12.73 12.74-33.37 0-46.1l-137.33-137.34c-12.73-12.73-33.37-12.73-46.1 0l-137.35 137.34c-12.73 12.73-12.73 33.37 0 46.1l137.35 137.34c12.73 12.74 33.37 12.74 46.1 0l137.33-137.34"/></clipPath><clipPath id="n"><path d="M3683.3 1495c-8.47 0-15.32 6.15-15.32 13.75s6.85 13.75 15.32 13.75 15.32-6.15 15.32-13.75-6.85-13.75-15.32-13.75"/></clipPath><clipPath id="f"><path d="M0 1070h5000v1972.5H0z"/></clipPath><clipPath id="g"><path d="M0 1070h5000v1972.5H0z"/></clipPath><clipPath id="h"><path d="M0 1070h5000v1972.5H0z"/></clipPath><clipPath id="i"><path d="M0 1070h5000v1972.5H0z"/></clipPath><clipPath id="j"><path d="M0 1070h5000v1972.5H0z"/></clipPath><clipPath id="a"><path d="M0 1070h5000v1972.5H0z"/></clipPath><clipPath id="b"><path d="M0 1070h5000v1972.5H0z"/></clipPath><clipPath id="c"><path d="M0 1070h5000v1972.5H0z"/></clipPath><clipPath id="d"><path d="M0 1070h5000v1972.5H0z"/></clipPath><clipPath id="e"><path d="M0 1070h5000v1972.5H0z"/></clipPath></defs><path d="M1068.923-1.705v261.613h-392.42V-1.705h392.42" fill="#e9e0c8"/><path d="M819.49 14.263H676.504V-1.705h142.988v15.968" fill="#f7f3ea"/><path d="M973.853 14.263H830.866V-1.705h142.987v15.968" fill="#f4ede0"/><path d="M1068.824 14.263h-83.59V-1.705h83.59v15.968" fill="#fff"/><path d="M1068.923 23.42v15.969H975.45v-15.97h93.474" fill="#f4ede0"/><path d="M844.323 23.42H965.78v15.968H844.323V23.42" fill="#f7f3ea"/><path d="M763.652 23.42h71.007v15.968h-71.007V23.42" fill="#fff"/><path d="M676.503 23.42h71.007v15.968h-71.007V23.42" fill="#f4ede0"/><path d="M856.598 64.514H676.503V48.546h180.095v15.968" fill="#fff"/><path d="M1008.731 64.514H865.744V48.546h142.987v15.968" fill="#f4ede0"/><path d="M1068.923 48.545v15.97h-51.872v-15.97h51.872M928.814 73.676h102.51v15.969h-102.51v-15.97" fill="#fff"/><path d="M818.146 73.676h102.51v15.969h-102.51v-15.97" fill="#f7f3ea"/><path d="M750.058 73.676h59.93v15.969h-59.93v-15.97" fill="#fff"/><path d="M676.503 73.676h59.93v15.969h-59.93v-15.97m392.42.001v15.969h-27.17v-15.97h27.17" fill="#f7f3ea"/><path d="M819.49 112.541H676.504V96.572h142.988v15.97m154.361-.001H830.866V96.572h142.987v15.97" fill="#f4ede0"/><path d="M1068.824 112.541h-83.59V96.572h83.59v15.97" fill="#fff"/><path d="M951.05 121.698h111.548v15.969H951.05v-15.97" fill="#f4ede0"/><path d="M830.625 121.698h111.547v15.969H830.625v-15.97" fill="#f7f3ea"/><path d="M756.536 121.698h65.21v15.969h-65.21v-15.97" fill="#fff"/><path d="M676.503 121.698h65.21v15.969h-65.21v-15.97m180.095 41.095H676.503v-15.968h180.095v15.968m152.133 0H865.744v-15.968h142.987v15.968" fill="#f4ede0"/><path d="M1068.923 146.823v15.969h-51.872v-15.969h51.872m-148.376 25.131h99.151v15.968h-99.151v-15.968" fill="#fff"/><path d="M813.505 171.954h99.151v15.968h-99.151v-15.968" fill="#f7f3ea"/><path d="M747.646 171.954h57.963v15.968h-57.963v-15.968" fill="#fff"/><path d="M676.503 171.954h57.963v15.968h-57.963v-15.968m392.42 0v15.969h-39.137v-15.97h39.137M819.49 210.816H676.504v-15.968h142.988v15.968" fill="#f7f3ea"/><path d="M973.853 210.816H830.866v-15.968h142.987v15.968" fill="#f4ede0"/><path d="M1068.824 210.816h-83.59v-15.968h83.59v15.968" fill="#fff"/><path d="M1068.923 219.975v15.97h-80.77v-15.97h80.77" fill="#f4ede0"/><path d="M851.455 219.975h126.62v15.968h-126.62v-15.968" fill="#f7f3ea"/><path d="M767.356 219.975h74.021v15.968h-74.02v-15.968" fill="#fff"/><path d="M676.503 219.975h74.021v15.968h-74.02v-15.968" fill="#f4ede0"/><path d="M856.598 259.908H676.503v-15.969h180.095v15.969" fill="#fff"/><path d="M1008.731 259.908H865.744v-15.969h142.987v15.969" fill="#f4ede0"/><path d="M1068.923 243.94v15.968h-51.872V243.94h51.872" fill="#f7f3ea"/><path d="M286.379-1.465v261.613h-392.42V-1.465h392.42" fill="#e9e0c8"/><path d="M36.946 14.503H-106.04V-1.465H36.946v15.968" fill="#f7f3ea"/><path d="M191.309 14.503H48.32V-1.465h142.99v15.968" fill="#f4ede0"/><path d="M286.28 14.503h-83.591V-1.465h83.59v15.968" fill="#fff"/><path d="M286.379 23.66v15.969h-93.475v-15.97h93.475" fill="#f4ede0"/><path d="M61.779 23.66h121.456v15.968H61.78V23.66" fill="#f7f3ea"/><path d="M-18.893 23.66h71.008v15.968h-71.008V23.66" fill="#fff"/><path d="M-106.041 23.66h71.007v15.968h-71.007V23.66" fill="#f4ede0"/><path d="M74.053 64.754H-106.04V48.786H74.053v15.968" fill="#fff"/><path d="M226.187 64.754H83.199V48.786h142.988v15.968" fill="#f4ede0"/><path d="M286.379 48.785v15.97h-51.873v-15.97h51.873M146.27 73.916h102.51v15.969H146.27v-15.97" fill="#fff"/><path d="M35.601 73.916h102.511v15.969H35.602v-15.97" fill="#f7f3ea"/><path d="M-32.486 73.916h59.93v15.969h-59.93v-15.97" fill="#fff"/><path d="M-106.041 73.916h59.93v15.969h-59.93v-15.97m392.42.001v15.969h-27.171v-15.97h27.171" fill="#f7f3ea"/><path d="M36.946 112.781H-106.04V96.812H36.946v15.97m154.363-.001H48.32V96.812h142.99v15.97" fill="#f4ede0"/><path d="M286.28 112.781h-83.591V96.812h83.59v15.97" fill="#fff"/><path d="M168.506 121.938h111.547v15.969H168.506v-15.97" fill="#f4ede0"/><path d="M48.08 121.938h111.547v15.969H48.08v-15.97" fill="#f7f3ea"/><path d="M-26.009 121.938h65.21v15.969h-65.21v-15.97" fill="#fff"/><path d="M-106.041 121.938h65.21v15.969h-65.21v-15.97m180.094 41.095H-106.04v-15.968H74.053v15.968m152.134 0H83.199v-15.968h142.988v15.968" fill="#f4ede0"/><path d="M286.379 147.063v15.969h-51.873v-15.969h51.873m-148.377 25.131h99.152v15.968h-99.152v-15.968" fill="#fff"/><path d="M30.96 172.194h99.152v15.968H30.96v-15.968" fill="#f7f3ea"/><path d="M-34.898 172.194h57.963v15.968h-57.963v-15.968" fill="#fff"/><path d="M-106.041 172.194h57.963v15.968h-57.963v-15.968m392.42 0v15.969h-39.137v-15.97h39.137M36.946 211.056H-106.04v-15.968H36.946v15.968" fill="#f7f3ea"/><path d="M191.309 211.056H48.32v-15.968h142.99v15.968" fill="#f4ede0"/><path d="M286.28 211.056h-83.591v-15.968h83.59v15.968" fill="#fff"/><path d="M286.379 220.215v15.97h-80.77v-15.97h80.77" fill="#f4ede0"/><path d="M68.91 220.215h126.621v15.968H68.911v-15.968" fill="#f7f3ea"/><path d="M-15.188 220.215h74.02v15.968h-74.02v-15.968" fill="#fff"/><path d="M-106.041 220.215h74.02v15.968h-74.02v-15.968" fill="#f4ede0"/><path d="M74.053 260.148H-106.04v-15.969H74.053v15.969" fill="#fff"/><path d="M226.187 260.148H83.199v-15.969h142.988v15.969" fill="#f4ede0"/><path d="M286.379 244.18v15.968h-51.873V244.18h51.873" fill="#f7f3ea"/><path d="M284.483-1.532V260.08h392.42V-1.532h-392.42" fill="#e9e0c8"/><path d="M533.916 14.437h142.987V-1.532H533.916v15.969" fill="#f7f3ea"/><path d="M379.553 14.437h142.988V-1.532H379.553v15.969" fill="#f4ede0"/><path d="M284.582 14.437h83.59V-1.532h-83.59v15.969" fill="#fff"/><path d="M284.483 23.593v15.97h93.474v-15.97h-93.474" fill="#f4ede0"/><path d="M509.083 23.593H387.626v15.969h121.457V23.593" fill="#f7f3ea"/><path d="M589.754 23.593h-71.007v15.969h71.007V23.593" fill="#fff"/><path d="M676.903 23.593h-71.007v15.969h71.007V23.593" fill="#f4ede0"/><path d="M496.808 64.688h180.095V48.719H496.808v15.969" fill="#fff"/><path d="M344.675 64.688h142.987V48.719H344.675v15.969" fill="#f4ede0"/><path d="M284.483 48.719v15.969h51.872v-15.97h-51.872M424.592 73.85h-102.51v15.968h102.51V73.85" fill="#fff"/><path d="M535.26 73.85H432.75v15.968h102.51V73.85" fill="#f7f3ea"/><path d="M603.348 73.85h-59.93v15.968h59.93V73.85" fill="#fff"/><path d="M676.903 73.85h-59.93v15.968h59.93V73.85m-392.42 0v15.968h27.17V73.85h-27.17" fill="#f7f3ea"/><path d="M533.916 112.715h142.987v-15.97H533.916v15.97m-154.363 0h142.988v-15.97H379.553v15.97" fill="#f4ede0"/><path d="M284.582 112.715h83.59v-15.97h-83.59v15.97" fill="#fff"/><path d="M402.355 121.871H290.81v15.969h111.546v-15.97" fill="#f4ede0"/><path d="M522.781 121.871H411.234v15.969h111.547v-15.97" fill="#f7f3ea"/><path d="M596.87 121.871h-65.21v15.969h65.21v-15.97" fill="#fff"/><path d="M676.903 121.871h-65.21v15.969h65.21v-15.97m-180.095 41.095h180.095v-15.968H496.808v15.968m-152.133 0h142.987v-15.968H344.675v15.968" fill="#f4ede0"/><path d="M284.483 146.996v15.97h51.872v-15.97h-51.872m148.377 25.131h-99.152v15.968h99.151v-15.968" fill="#fff"/><path d="M539.901 172.127H440.75v15.968h99.15v-15.968" fill="#f7f3ea"/><path d="M605.76 172.127h-57.963v15.968h57.963v-15.968" fill="#fff"/><path d="M676.903 172.127H618.94v15.968h57.963v-15.968m-392.42 0v15.969h39.137v-15.969h-39.137m249.433 38.863h142.987v-15.97H533.916v15.969" fill="#f7f3ea"/><path d="M379.553 210.99h142.988v-15.97H379.553v15.969" fill="#f4ede0"/><path d="M284.582 210.99h83.59v-15.97h-83.59v15.969" fill="#fff"/><path d="M284.483 220.149v15.969h80.77v-15.97h-80.77" fill="#f4ede0"/><path d="M501.952 220.148H375.33v15.969h126.62v-15.969" fill="#f7f3ea"/><path d="M586.05 220.148h-74.021v15.969h74.02v-15.969" fill="#fff"/><path d="M676.903 220.148h-74.02v15.969h74.02v-15.969" fill="#f4ede0"/><path d="M496.808 260.08h180.095v-15.968H496.808v15.969" fill="#fff"/><path d="M344.675 260.08h142.987v-15.968H344.675v15.969" fill="#f4ede0"/><path d="M284.483 244.113v15.968h51.872v-15.968h-51.872" fill="#f7f3ea"/><path d="M1.084 524.007H1066.95V261.013H1.084Z" fill="#ccdfe0" style="stroke-width:1.3333"/><path transform="matrix(.13669 0 0 -.13333 632.998 666.733)" d="M3054.6 2398.6H1570v371.43h1484.6V2398.6" clip-path="url(#a)" fill="#abd8d8"/><path transform="matrix(.13669 0 0 -.13333 632.998 666.733)" d="M2151.5 2543.2c-18.91 0-34.25 14.23-34.25 31.8 0 17.56 15.34 31.8 34.25 31.8h321.51c18.91 0 34.24-14.24 34.24-31.8 0-17.57-15.33-31.8-34.24-31.8H2151.5" clip-path="url(#b)" fill="#fff"/><path transform="matrix(.13669 0 0 -.13333 632.998 666.733)" d="M3054.6 1952.8H1570v371.44h1484.6V1952.8" clip-path="url(#c)" fill="#abd8d8"/><path transform="matrix(.13669 0 0 -.13333 632.998 666.733)" d="M2151.5 2097.5c-18.91 0-34.25 14.25-34.25 31.81s15.34 31.79 34.25 31.79h321.51c18.91 0 34.24-14.23 34.24-31.79s-15.33-31.81-34.24-31.81H2151.5" clip-path="url(#d)" fill="#fff"/><path transform="matrix(.13669 0 0 -.13333 632.998 666.733)" d="M3054.6 1510H1570v371.43h1484.6V1510" clip-path="url(#e)" fill="#abd8d8"/><path transform="matrix(.13669 0 0 -.13333 -268.34 666.739)" d="M3054.6 2398.6H1570v371.43h1484.6V2398.6" clip-path="url(#f)" fill="#abd8d8"/><path transform="matrix(.13669 0 0 -.13333 -268.34 666.739)" d="M2151.5 2543.2c-18.91 0-34.25 14.23-34.25 31.8 0 17.56 15.34 31.8 34.25 31.8h321.51c18.91 0 34.24-14.24 34.24-31.8 0-17.57-15.33-31.8-34.24-31.8H2151.5" clip-path="url(#g)" fill="#fff"/><path transform="matrix(.13669 0 0 -.13333 -268.34 666.739)" d="M3054.6 1952.8H1570v371.44h1484.6V1952.8" clip-path="url(#h)" fill="#abd8d8"/><path transform="matrix(.13669 0 0 -.13333 -268.34 666.739)" d="M2151.5 2097.5c-18.91 0-34.25 14.25-34.25 31.81s15.34 31.79 34.25 31.79h321.51c18.91 0 34.24-14.23 34.24-31.79s-15.33-31.81-34.24-31.81H2151.5" clip-path="url(#i)" fill="#fff"/><path transform="matrix(.13669 0 0 -.13333 -268.34 666.739)" d="M3054.6 1510H1570v371.43h1484.6V1510" clip-path="url(#j)" fill="#abd8d8"/><path d="M1066.947 284.746H1.08V261.01h1065.867v23.737" fill="#f3ae7a" style="stroke-width:1.3333"/><g clip-path="url(#k)" transform="matrix(.13333 0 0 -.13333 199.995 666.67)"><path d="M-180 1510h1530v970H-180Z" fill="#fff"/><path d="M1194.2 1810c-18.92 0-34.25 15.33-34.25 34.25v321.5c0 18.92 15.33 34.25 34.25 34.25 18.91 0 34.25-15.33 34.25-34.25v-321.5c0-18.92-15.34-34.25-34.25-34.25" fill="#e7e1e1"/><path d="M3054.6 2398.6H1570v371.43h1484.6V2398.6" fill="#abd8d8"/><path d="M2151.5 2543.2c-18.91 0-34.25 14.23-34.25 31.8 0 17.56 15.34 31.8 34.25 31.8h321.51c18.91 0 34.24-14.24 34.24-31.8 0-17.57-15.33-31.8-34.24-31.8H2151.5" fill="#fff"/><path d="M3054.6 1952.8H1570v371.44h1484.6V1952.8" fill="#abd8d8"/><path d="M2151.5 2097.5c-18.91 0-34.25 14.25-34.25 31.81s15.34 31.79 34.25 31.79h321.51c18.91 0 34.24-14.23 34.24-31.79s-15.33-31.81-34.24-31.81H2151.5" fill="#fff"/><path d="M3054.6 1510H1570v371.43h1484.6V1510" fill="#abd8d8"/><path d="M2151.5 1654.6c-18.91 0-34.25 14.24-34.25 31.81 0 17.55 15.34 31.79 34.25 31.79h321.51c18.91 0 34.24-14.24 34.24-31.79 0-17.57-15.33-31.81-34.24-31.81H2151.5" fill="#fff"/><path d="M4705.6 2398.6H3221v371.43h1484.6V2398.6" fill="#abd8d8"/><path d="M3802.5 2543.2c-18.92 0-34.25 14.23-34.25 31.8 0 17.56 15.33 31.8 34.25 31.8H4124c18.92 0 34.25-14.24 34.25-31.8 0-17.57-15.33-31.8-34.25-31.8h-321.5" fill="#fff"/><path d="M4705.6 1952.8H3221v371.44h1484.6V1952.8" fill="#abd8d8"/><path d="M3802.5 2097.5c-18.92 0-34.25 14.25-34.25 31.81s15.33 31.79 34.25 31.79H4124c18.92 0 34.25-14.23 34.25-31.79s-15.33-31.81-34.25-31.81h-321.5" fill="#fff"/><path d="M3221 1510h1484.6v371.43H3221Z" fill="#abd8d8"/><path d="M3802.5 1654.6c-18.92 0-34.25 14.24-34.25 31.81 0 17.55 15.33 31.79 34.25 31.79H4124c18.92 0 34.25-14.24 34.25-31.79 0-17.57-15.33-31.81-34.25-31.81h-321.5" fill="#fff"/></g><path d="M578.759 108.684H448.653v-153.33h130.106v153.33" fill="#fbc7bc" style="stroke-width:1.3333"/><path d="M492.454 98.124c-2.5 0-4.526-1.705-4.526-3.809s2.026-3.81 4.526-3.81h42.489c2.5 0 4.525 1.706 4.525 3.81s-2.025 3.81-4.525 3.81h-42.489" fill="#fff" style="stroke-width:1.3333"/><path d="M442.629 108.684H312.524v-153.33H442.63v153.33" fill="#fbc7bc" style="stroke-width:1.3333"/><path d="M356.338 98.124c-2.502 0-4.527-1.705-4.527-3.809s2.025-3.81 4.527-3.81h42.487c2.501 0 4.528 1.706 4.528 3.81s-2.027 3.81-4.528 3.81h-42.487" fill="#fff" style="stroke-width:1.3333"/><path d="M306.512 108.684H176.406v-153.33h130.106v153.33" fill="#fbc7bc" style="stroke-width:1.3333"/><path d="M220.221 98.124c-2.5 0-4.526-1.705-4.526-3.809s2.026-3.81 4.526-3.81h42.488c2.5 0 4.526 1.706 4.526 3.81s-2.026 3.81-4.526 3.81h-42.488" fill="#fff" style="stroke-width:1.3333"/><path d="M170.542 108.684H40.436v-153.33h130.106v153.33" fill="#fbc7bc" style="stroke-width:1.3333"/><path d="M84.243 98.124c-2.5 0-4.526-1.705-4.526-3.809s2.026-3.81 4.526-3.81h42.489c2.5 0 4.525 1.706 4.525 3.81s-2.026 3.81-4.526 3.81H84.243" fill="#fff" style="stroke-width:1.3333"/><path d="M627.651 110.31h199.328V95.353H627.651Z" fill="#9bd3dd" style="stroke-width:1.3333"/><path d="M652.317 95.351h149.996V-25.313H652.317Z" fill="#83becc" style="stroke-width:1.3333"/><g clip-path="url(#l)" fill="#8fc4d0" transform="matrix(.13333 0 0 -.13333 199.995 666.67)"><path d="M3392.5 4920.1v79.86h144.14l-144.14-79.86m0-507.3v332.68l459.34 254.48h600.48l-1059.8-587.16M3610.9 4285h-111.37l1018 563.98v-61.69L3610.92 4285m720.08 0h-491.78l678.24 375.76V4388.3L4331 4285"/></g><path d="M784.314 190.015a7.62 7.62 0 0 0-4.636 1.57 9.923 9.923 0 0 0-2.955-1.266c-1.268-6.81-7.229-11.97-14.409-11.97-6.12 0-11.36 3.75-13.557 9.076a9.965 9.965 0 0 0-3.776-.743c-3.994 0-7.431 2.348-9.033 5.733a7.98 7.98 0 0 0-.966-.067 7.666 7.666 0 0 0-7.667 7.667 7.666 7.666 0 0 0 7.667 7.666 7.634 7.634 0 0 0 5.327-2.16 9.95 9.95 0 0 0 4.672 1.16 9.961 9.961 0 0 0 7.204-3.074 14.608 14.608 0 0 0 10.13 4.074c1.662 0 3.253-.289 4.743-.798a9.959 9.959 0 0 0 7.256 3.132c3.62 0 6.781-1.93 8.536-4.81a7.666 7.666 0 0 0 9.13-7.524 7.666 7.666 0 0 0-7.666-7.666" fill="#e2dddc" style="stroke-width:1.3333"/><path d="M826.98 261.16H627.65v-11.666h199.328v11.666" fill="#83becc" style="stroke-width:1.3333"/><path d="M819.206 215.508a3.347 3.347 0 0 1-3.348 3.347H790.06a3.347 3.347 0 0 1 0-6.695h25.798c1.85 0 3.348 1.5 3.348 3.348" fill="#ef9e3f" style="stroke-width:1.3333"/><path d="M760.834 203.202h-35.477s1.853 46.237 10.49 46.237h47.203c8.638 0 10.489-46.237 10.489-46.237h-32.705" fill="#f3b562" style="stroke-width:1.3333"/><path d="M795.527 202.922a2.041 2.041 0 0 1-2.04 2.04h-68.088a2.042 2.042 0 0 1 0-4.082h68.088c1.126 0 2.04.915 2.04 2.042" fill="#ef9e3f" style="stroke-width:1.3333"/><path d="M536.84 132.603a2.344 2.344 0 0 1-2.345 2.346H364.872a2.346 2.346 0 1 1 0-4.69h169.623a2.344 2.344 0 0 1 2.345 2.344" fill="#f3ae7a" style="stroke-width:1.3333"/><path d="M506.534 137.297a1.36 1.36 0 0 1-2.719 0v-7.063a1.358 1.358 0 1 1 2.719 0v7.063" fill="#62c5c0" style="stroke-width:1.3333"/><path d="M526.56 155.043a4.344 4.344 0 0 1 0 6.146l-18.31 18.312a4.346 4.346 0 0 1-6.147 0l-18.312-18.312a4.346 4.346 0 0 1 0-6.146l18.312-18.312a4.344 4.344 0 0 1 6.147 0l18.31 18.312" fill="#ef95b8" style="stroke-width:1.3333"/><g clip-path="url(#m)" transform="matrix(.13333 0 0 -.13333 199.995 666.67)"><path d="m2530 3763.5-101.04-101.06-30.35 30.35 65.71 65.71 29.75-29.75 4.98 5.01-29.74 29.74 30.35 30.34zm-136.41-136.41-30.35 30.35 30.35 30.34 30.35-30.34zm-70.68 0-30.36 30.35 30.36 30.34 30.33-30.34zm-70.71-.01-65.72 65.71 30.36 30.34 30.35-30.34-6.57-6.58 5-5 6.57 6.57 30.35-30.34zm-101.06 101.07 30.35 30.34 30.35-30.34-30.35-30.36zm-35.36 35.34 30.36 30.35 30.35-30.34-30.37-30.36zm0 70.71 30.36 30.34 30.35-30.34-30.35-30.35zm65.71 65.7 30.35-30.35-30.37-30.35-30.33 30.35zm35.34 35.35 30.36-30.35-30.36-30.35-30.35 30.35zm35.36 35.35 30.35-30.34-30.35-30.36-30.35 30.36zm35.35 35.35 30.35-30.35-30.34-30.34-30.36 30.35zm35.34 35.35 30.36-30.34-30.33-30.35-30.37 30.35zm65.72-65.7-30.35-30.34-30.36 30.34 30.36 30.35zm70.7-70.7-30.34-30.35-30.37 30.35 29.73 29.73-4.99 5.01-29.72-29.74-30.37 30.36 30.35 30.34zm35.34-35.35-30.32-30.35-30.37 30.35 30.37 30.35zm-60.69-70.7 30.37 30.35 30.32-30.35-30.32-30.35zm-70.71-70.71 30.37 30.35 29.72-29.74 4.99 5.01-29.71 29.73 30.35 30.35 30.34-30.34-65.71-65.71zm-4.99-5.01 30.35-30.34-30.35-30.35-30.36 30.35zm-65.71 5.01 30.36 30.34 30.34-30.34-30.34-30.35zm-5-5.01 30.35-30.34-30.34-30.35-30.36 30.35zm-35.35 35.36 30.35-30.35-30.34-30.35-30.36 30.36zm-35.35 35.35 30.35-30.34-30.35-30.36-30.36 30.36zm-5 5.01-30.35-30.35-30.35 30.35 30.35 30.34zm35.35 35.35-30.36-30.35-30.35 30.35 30.36 30.34zm35.35 35.35-30.35-30.35-30.35 30.35 30.35 30.35zm35.35 35.35-30.35-30.35-30.35 30.35 30.35 30.35zm5.02 5.01-30.37 30.35 30.36 30.34 30.34-30.34zm35.34-35.36-30.36 30.35 30.36 30.35 30.35-30.35zm35.36-35.35-30.37 30.35 30.37 30.35 30.33-30.35zm5-5 30.35 30.34 30.34-30.34-30.34-30.35zm-35.37-35.35 30.37 30.35 30.33-30.35-30.33-30.35zm-4.99-5.01 30.35-30.34-30.35-30.36-30.36 30.35zm-65.71 5.01 30.36 30.34 30.34-30.34-30.34-30.35zm-5-5.01 30.35-30.35-30.35-30.35-30.35 30.35zm-5 5.01-30.35-30.35-30.35 30.35 30.35 30.34zm35.35 35.35-30.35-30.36-30.35 30.36 30.35 30.34zm40.36 30.34 30.35-30.34-30.35-30.35-30.36 30.35zm-35.34-25.34-30.37 30.35 30.36 30.35 30.34-30.35zm207.09-5-30.34-30.35-30.37 30.35 30.37 30.34zm5.02-5.01 100.46-100.44 4.97 5.01-100.44 100.44 29.74 29.73-5.01 5.01-29.72-29.73-30.37 30.34 65.1 65.08-5.01 5.01-65.08-65.09-30.37 30.35 100.46 100.44-5.01 5.01-100.42-100.44-65.73 65.69 29.73 29.74-4.99 5.01-29.72-29.74-30.37 30.35 65.08 65.08-4.99 5.01-65.08-65.08-30.36 30.34 100.43 100.44-4.99 5.01-100.42-100.44-6.58 6.57-5.01-5.02 6.57-6.56-30.35-30.34-41.92 41.92-5-5.02 41.92-41.91-30.35-30.35-77.28 77.28-5-5.02 77.28-77.27-30.35-30.34-112.63 112.63-5-5.02 112.63-112.61-30.37-30.36-6.57 6.58-4.99-5 6.58-6.58-30.37-30.35-41.93 41.93-4.98-5 41.92-41.93-30.36-30.35-77.27 77.28-5-5 77.29-77.28-6.58-6.57 5-5.01 6.58 6.58 30.34-30.35-30.36-30.35-147.97 147.98-5.01-5 147.98-147.99-6.56-6.57 5-5.01 6.56 6.57 30.36-30.34-41.92-41.93 5-5 41.91 41.92 30.35-30.34-77.26-77.28 5-5.01 77.26 77.28 65.72-65.7-6.57-6.57 5-5.01 6.57 6.57 29.73-29.73 5 5-29.73 29.74 30.36 30.35 30.34-30.35-77.27-77.28 5-5 77.29 77.27 29.72-29.73 5.01 5-29.74 29.74 30.35 30.35 30.35-30.35-147.98-147.98 5-5 147.97 147.97 29.74-29.73 4.99 5-29.73 29.74 30.37 30.35 65.07-65.09 5.02 5-65.1 65.1 101.07 101.06 29.76-29.75 4.97 5.01-29.74 29.74 29.74 29.73-5.01 5.01-29.72-29.74-30.35 30.35 30.35 30.34" fill="#ea7fab"/></g><path d="M505.174 135.963c-1.03 0-1.993.4-2.72 1.127l-18.311 18.313a3.81 3.81 0 0 0-1.128 2.717c0 1.027.4 1.992 1.128 2.719l18.311 18.311a3.814 3.814 0 0 0 2.72 1.125c1.025 0 1.99-.398 2.717-1.125l18.31-18.311a3.825 3.825 0 0 0 1.127-2.719 3.82 3.82 0 0 0-1.126-2.717l-18.31-18.313a3.819 3.819 0 0 0-2.718-1.127zm0 45.316a4.817 4.817 0 0 1-3.43-1.42l-18.31-18.312a4.807 4.807 0 0 1-1.42-3.427c0-1.296.502-2.513 1.42-3.43l18.31-18.31a4.822 4.822 0 0 1 3.43-1.42c1.293 0 2.512.505 3.428 1.42l18.309 18.31a4.814 4.814 0 0 1 1.422 3.43 4.81 4.81 0 0 1-1.422 3.427l-18.309 18.312a4.818 4.818 0 0 1-3.428 1.42" fill="#ed699f" style="stroke-width:1.3333"/><path d="M444.176 180.509a1.615 1.615 0 1 1-3.231 0v-49.776a1.614 1.614 0 1 1 3.23 0v49.776" fill="#ef95b8" style="stroke-width:1.3333"/><path d="M442.576 171.642c9.422-.022 17.078 7.598 17.1 17.019.023 9.423-7.595 17.08-17.018 17.102-9.422.023-17.078-7.596-17.102-17.018-.023-9.424 7.599-17.08 17.02-17.103" fill="#ef95b8" style="stroke-width:1.3333"/><path d="M442.576 174.469c7.865-.02 14.255 6.338 14.271 14.205.022 7.862-6.338 14.256-14.202 14.273-7.864.019-14.254-6.341-14.273-14.205-.019-7.863 6.34-14.256 14.204-14.273" fill="#e4eae6" style="stroke-width:1.3333"/><path d="M432.67 181.202a1.88 1.88 0 1 1 .008 3.762 1.88 1.88 0 0 1-.009-3.762m.014 5.64a1.88 1.88 0 1 1-1.875 1.884 1.876 1.876 0 0 1 1.875-1.884m.013 5.64a1.883 1.883 0 0 1 1.886 1.877 1.88 1.88 0 1 1-3.761.008 1.881 1.881 0 0 1 1.875-1.885m5.08-14.12a1.88 1.88 0 0 1 1.884 1.876 1.878 1.878 0 0 1-1.875 1.885 1.878 1.878 0 0 1-1.885-1.874 1.882 1.882 0 0 1 1.876-1.887m.014 5.64a1.88 1.88 0 1 1 .011 3.76 1.88 1.88 0 0 1-.012-3.76m.013 5.653a1.879 1.879 0 1 1-1.876 1.887 1.879 1.879 0 0 1 1.876-1.887m.014 5.64a1.882 1.882 0 0 1 1.885 1.876 1.88 1.88 0 1 1-1.885-1.876m4.76-14.12a1.884 1.884 0 0 1 1.885 1.876 1.884 1.884 0 0 1-1.876 1.887 1.883 1.883 0 0 1-1.887-1.877 1.884 1.884 0 0 1 1.878-1.886m.013 5.64a1.88 1.88 0 1 1 .008 3.762 1.88 1.88 0 0 1-.008-3.762m.013 5.654a1.88 1.88 0 1 1 .008 3.76 1.88 1.88 0 0 1-.008-3.76m.014 5.639a1.88 1.88 0 1 1 .01 3.761 1.88 1.88 0 0 1-.01-3.76m-.054-22.573a1.881 1.881 0 1 1 .006 3.762 1.881 1.881 0 0 1-.006-3.762m9.96 5.626a1.882 1.882 0 1 0 .009 3.763 1.882 1.882 0 0 0-.009-3.763m.013 5.64a1.88 1.88 0 1 0 .008 3.763 1.88 1.88 0 0 0-.008-3.763m.014 5.64a1.88 1.88 0 1 0 .012 3.76 1.88 1.88 0 0 0-.012-3.76m-5.147-14.093a1.877 1.877 0 0 0-1.876 1.882 1.878 1.878 0 0 0 1.884 1.876 1.88 1.88 0 1 0-.008-3.758m.013 5.64a1.878 1.878 0 0 0-1.874 1.884 1.879 1.879 0 1 0 3.757-.01 1.876 1.876 0 0 0-1.883-1.874m.014 5.64a1.879 1.879 0 0 0-1.876 1.885 1.879 1.879 0 0 0 1.885 1.874 1.875 1.875 0 0 0 1.875-1.883 1.88 1.88 0 0 0-1.884-1.876m.013 5.639a1.88 1.88 0 1 0 1.885 1.877 1.882 1.882 0 0 0-1.885-1.877" fill="#c7ddce" style="stroke-width:1.3333"/><path d="m468.588 157.723 9.64.003-.005 29.84s-11.776 3.419-15.393-5.236l.005-24.608h5.753" fill="#ef95b8" style="stroke-width:1.3333"/><path d="M468.042 156.35a2.75 2.75 0 0 1 5.5 0l-.004 22.94a2.75 2.75 0 0 1-5.5-.002l.004-22.939" fill="#ed699f" style="stroke-width:1.3333"/><path d="m467.895 150.203 5.753.003-.003 7.564-5.753-.001.003-7.565" fill="#ef95b8" style="stroke-width:1.3333"/><path d="m467.908 130.977-.014 19.218 5.753.003.013-19.218s.428-2.983-2.873-2.984c-3.303-.003-2.879 2.981-2.879 2.981" fill="#62c5c0" style="stroke-width:1.3333"/><path d="M409.83 183.162a2.536 2.536 0 1 1-5.07 0v-51.777a2.534 2.534 0 1 1 5.07 0v51.777" fill="#ef95b8" style="stroke-width:1.3333"/><path d="M416.096 192.909a8.807 8.807 0 0 1-8.806 8.806 8.806 8.806 0 0 1-8.808-8.806v-8.458a8.806 8.806 0 0 1 8.808-8.806 8.807 8.807 0 0 1 8.806 8.806v8.458" fill="#ef95b8" style="stroke-width:1.3333"/><path d="M414.496 192.135a7.2 7.2 0 0 1-14.398 0v-6.913a7.199 7.199 0 0 1 14.398 0v6.913" fill="#ed699f" style="stroke-width:1.3333"/><path d="M383.257 183.162a2.536 2.536 0 1 1-5.07 0v-51.777a2.535 2.535 0 0 1 5.07 0v51.777" fill="#ef95b8" style="stroke-width:1.3333"/><path d="M380.724 175.642a8.806 8.806 0 0 0-8.808 8.807v13.78c0 .969.71 1.753 1.581 1.753.875 0 1.584-.784 1.584-1.752v-10.467h1.652v10.467c0 .968.708 1.752 1.582 1.752.874 0 1.582-.784 1.582-1.752v-10.467h1.652v10.467c0 .968.708 1.752 1.583 1.752.873 0 1.581-.784 1.581-1.752v-10.467h1.652v10.467c0 .968.71 1.752 1.584 1.752.872 0 1.581-.784 1.581-1.752v-13.781a8.806 8.806 0 0 0-8.806-8.807" fill="#ef95b8" style="stroke-width:1.3333"/><path d="M299.393 193.175v-11.792c0-11.153-9.848-20.227-21.952-20.227-12.105 0-21.953 11.962-21.953 26.666v31.62h-6.482v10.524c-1.784 1.138-3.197 2.603-4.092 4.275h-3.95l1.254-20.889H232.9l1.254 20.889h-1.476a3.777 3.777 0 1 0 0 7.554h11.86c.843 2 2.41 3.75 4.468 5.063v10.08h18.18V246.93c3.224-2.014 5.287-5.081 5.287-8.52 0-3.438-2.063-6.505-5.288-8.518v-10.45h-6.364v-31.621c0-11.764 7.456-21.333 16.62-21.333 9.163 0 16.618 6.681 16.618 14.894v11.792h-1.429v8.592h8.395v-8.592h-1.633" fill="#ccdfe0" style="stroke-width:1.3333"/><path d="M383.99 305.346c0 8.835-7.163 16-16 16H187.996c-8.836 0-16-7.165-16-16v-36.333c0-8.835 7.164-16 16-16h179.996c8.836 0 16 7.165 16 16v36.333" fill="#f7f3f0" style="stroke-width:1.3333"/><path d="M187.995 253.014c-8.836 0-16 7.163-16 16v36.332c0 2.346.518 4.568 1.425 6.576a15.928 15.928 0 0 0 6.576 1.423H359.99c8.836 0 16-7.163 16-16v-36.332a15.93 15.93 0 0 0-1.424-6.575 15.93 15.93 0 0 0-6.576-1.424H187.995" fill="#fff" style="stroke-width:1.3333"/><path d="M521.827 135.057s-.643-26.452 27.273-24.41c27.912 2.045 39.661 22.811 42.764 45.102 3.102 22.293 10.006 30.761 20.338 38.585 0 0-34.81 5.434-51.728-21.318-10.128-16.017-38.647-37.96-38.647-37.96" fill="#d66609" style="stroke-width:1.3333;fill:#47271f;fill-opacity:1"/><path d="M541.28 238.547h-16.064l-16.645 42.911 24.681 28.026 24.674-30.654-16.646-40.283" fill="#fab78a" style="stroke-width:1.3333"/><path d="M577.466 196.028c0-44.31-44.522-42.432-44.534-42.43-.023-.002-44.548-2.794-44.548 42.43 0 0-.066 26.098 6.945 35.862 9.214 12.832 26.085 19.542 37.6 19.542 11.503 0 28.534-5.86 37.591-19.542 7.154-10.792 6.946-35.862 6.946-35.862" fill="#fab78a" style="stroke-width:1.3333"/><path d="M576.332 201.322s2.754-5.402 5.823-1.736c3.076 3.652 2.464 18.563-7.293 18.58 0 0 1.42-13.298 1.47-16.844" fill="#fab78a" style="stroke-width:1.3333"/><path d="M576.372 206.775s1.978-5.31 3.941-2.57c1.967 2.727.966 6.274-1.967 8.678 0 0 1.329-9.648-1.974-6.108" fill="#f4a36c" style="stroke-width:1.3333"/><path d="M488.828 201.322s-2.76-5.402-5.833-1.736c-3.072 3.652-2.087 18.563 7.677 18.58 0 0-1.804-13.298-1.844-16.844" fill="#fab78a" style="stroke-width:1.3333"/><path d="M488.774 206.775s-1.977-5.31-3.94-2.57c-1.96 2.727-.967 6.274 1.973 8.678 0 0-1.328-9.648 1.967-6.108m44.933 17.719c0 1.826-2.34 3.29-5.218 3.29-2.882 0-5.22-1.464-5.22-3.29 0-1.816 2.338-3.286 5.22-3.286 2.878 0 5.218 1.47 5.218 3.286" fill="#f4a36c" style="stroke-width:1.3333"/><path d="M557.373 212.961c0 3.039-1.85 5.512-4.135 5.512-2.28 0-4.137-2.473-4.137-5.512 0-3.052 1.857-5.518 4.137-5.518 2.285 0 4.135 2.466 4.135 5.518m-49.599 0c0 3.039-1.85 5.512-4.13 5.512-2.287 0-4.142-2.473-4.142-5.512 0-3.052 1.855-5.518 4.141-5.518 2.28 0 4.131 2.466 4.131 5.518" fill="#6c312b" style="stroke-width:1.3333;fill:#5d7283;fill-opacity:1"/><path d="M513.987 233.2c8.535 6.837 19.932 6.015 28.7.192 1.318-.88.08-3.022-1.253-2.138-7.75 5.153-18.096 6.29-25.702.198-1.228-.99-2.989.753-1.745 1.749" fill="#fc9c5b" style="stroke-width:1.3333"/><path d="M545.52 196.668s.736-.862 2.166-1.577c.714-.356 1.579-.71 2.558-.912.98-.24 2.062-.284 3.154-.256 1.079.124 2.181.305 3.139.741.96.383 1.784.946 2.384 1.518 1.242 1.108 1.521 2.277 1.56 2.226-.034.044-1.07-.357-2.44-.672a27.116 27.116 0 0 0-2.279-.446c-.399-.102-.844-.071-1.259-.159-.424-.08-.878-.064-1.313-.11-1.77-.135-3.626-.131-5.097-.198-1.47-.036-2.573-.155-2.573-.155m-34.4 0s-.74-.862-2.165-1.577a10.531 10.531 0 0 0-2.561-.912c-.979-.24-2.055-.284-3.15-.256-1.085.124-2.182.305-3.143.741a7.517 7.517 0 0 0-2.383 1.518c-1.248 1.108-1.52 2.277-1.558 2.226.033.044 1.058-.357 2.44-.672a26.69 26.69 0 0 1 2.28-.446c.394-.102.835-.071 1.258-.159.423-.08.873-.064 1.316-.11 1.767-.135 3.62-.131 5.092-.198 1.468-.036 2.575-.155 2.575-.155" fill="#ea750c" style="stroke-width:1.3333;fill:#60352a;fill-opacity:1"/><path d="M488.828 201.322s7.625-19.168 11.855-24.784c0 0 12.988 11.1 35.112 12.395 0 0-5.898-15.248-8.003-18.059 0 0 27.758 26.864 49.604 28.897l4.76-.185s17.193-65.536-49.335-65.536c-66.103 0-49.826 65.536-49.826 65.536l5.833 1.736" fill="#ea750c" style="stroke-width:1.3333;fill:#60352a;fill-opacity:1"/><path d="m588.932 269.88-38.787-9.884c-4.353 19.232-12.878 19.846-16.542 19.758v-.029s-.13.009-.346.02c-.216-.01-.346-.02-.346-.02v.03c-3.664.087-11.648-.527-16.003-19.759l-39.33 9.884 7.398 31.962s-4.443 22.12 6.613 38.264c11.054 16.138 5.105 47.818 5.105 47.818h73.124s-5.95-31.68 5.102-47.818c11.059-16.143 6.612-38.264 6.612-38.264l7.4-31.962" fill="#f1586c" style="stroke-width:1.3333"/><path d="M477.575 269.88s-10.92 5.168-19.364 18.5l26.76 13.462-7.396-31.962m111.277 0s19.4 10.366 20.262 33.61l-27.662-1.648 7.4-31.962" fill="#f1586c" style="stroke-width:1.3333"/><path d="m563.693 376.384-.082-.007 8.85-70.35h.002l6.918-38.82-10.3-2.635-15.18 41.455h-42.35l-14.965-40.935-10.298 2.633 6.7 38.302 11.3 71.083c-5.071 4.684-31.885 32.603-31.885 99.351H596.4c0-73.715-32.709-100.077-32.709-100.077" fill="#f0e6fc" style="stroke-width:1.3333"/><path d="m482.388 359.451 3.416-7.372 9.692 4.493-3.416 7.37-9.692-4.491" fill="#ef95b8" style="stroke-width:1.3333"/><path d="m457.775 348.038 24.618 11.42 1.708-3.686 1.708-3.686-24.618-11.421s-3.57-2.317-5.53 1.916c-1.963 4.23 2.114 5.457 2.114 5.457" fill="#62c5c0" style="stroke-width:1.3333"/><path d="M535.72 378.517c-.532-1.582-2.01-4.028-6.099-6.28-4.325-2.389-16.24-5.798-24.943-8.11zm-.885 1.94-31.057-14.393c7.39 5.147 17.692 12.037 22.31 13.796 4.399 1.674 7.212 1.22 8.747.597zm-1.308 2.568c-1.976.31-4.679.17-8.199-1.17-6.116-2.33-20.951-12.682-28.147-17.83a143.373 143.373 0 0 0 7.274 8.023c7.53 7.668 14.112 12.312 19.03 13.429 4.71 1.065 8.006-.65 10.042-2.452zm3.318-7.158c.06-2.719-.764-6.343-4.618-9.246-4.027-3.03-11.813-5.05-22.514-5.842-4.164-.31-8.03-.376-10.859-.367 8.579 2.163 26.07 6.795 31.798 9.956 3.299 1.819 5.153 3.79 6.193 5.499zm-44.65-14.627.554-.422-.081-.063.49-.66.346-1.001.04.01-.036-.696.616-.032c1.173-.058 28.858-1.382 39.385 6.542 7.348 5.527 5.334 13.451 4.698 15.378l.018.012-.122.296-.044.112-.136.341-.055.008c-.877 1.452-5.703 8.567-14.853 6.49-5.373-1.217-12.038-5.823-19.814-13.692-5.776-5.846-10.15-11.507-10.63-12.133l-.375-.49" fill="#ef95b8" style="stroke-width:1.3333"/><path d="M573.906 351.331a12.42 12.42 0 0 0-8.944 3.793c-2.933-3.294-7.192-5.38-11.95-5.38-5.132 0-9.688 2.425-12.616 6.183a15.93 15.93 0 0 0-8.825-2.659c-8.392 0-15.261 6.463-15.936 14.681-2.338-2.685-5.776-4.39-9.617-4.39-4.41 0-8.297 2.236-10.589 5.636a9.434 9.434 0 0 0-6.15-2.272 9.48 9.48 0 0 0-9.48 9.48 9.48 9.48 0 0 0 9.48 9.482 9.436 9.436 0 0 0 6.222-2.339c2.301 3.343 6.15 5.539 10.517 5.539 6.279 0 11.485-4.537 12.552-10.508 2.902 4.05 7.638 6.697 13 6.697 5.135 0 9.691-2.425 12.62-6.182a15.935 15.935 0 0 0 8.823 2.657c5.825 0 10.908-3.121 13.707-7.772a12.403 12.403 0 0 0 7.186 2.29c6.886 0 12.467-5.583 12.467-12.468 0-6.887-5.58-12.468-12.467-12.468" fill="#fff" style="stroke-width:1.3333"/><path d="m533.387 364.45-.144.028-67.035 11.189c18.188 42.079 57.723 40.925 57.723 40.925l17.523-2.926.146-.022 17.525-2.928s37.767-11.753 41.297-57.455l-67.035 11.19" fill="#ad8dd0" style="stroke-width:1.3333"/><path d="M566.452 409.876c.39 2.326-.766 4.458-2.586 4.762l-43.151 7.203c-1.816.304-3.607-1.338-3.993-3.662-.39-2.324.77-4.457 2.589-4.76l43.148-7.205c1.82-.303 3.606 1.338 3.994 3.662" fill="#956fc6" style="stroke-width:1.3333"/><path d="m605.065 303.24-21.565-1.285c4.46 14.652 8.499 28.695 11.945 43.616a181.34 181.34 0 0 1 1.215 5.716c.133.683.245 1.368.361 2.054.044.318.165 1.13.187 1.367.024.26 0 1.1.042 1.246-.176.657-.41 1.304-.637 1.938-.123.34-1.997 3.342-2.854 4.427-8.059 10.205-20.78 17.797-33.777 19.16-5.418.57-10 4.12-10 10 0 5.02 4.568 10.571 10 10 25.329-2.658 60.955-22.798 56.477-52.586-2.3-15.315-6.754-30.73-11.394-45.654m-140.077 24.693c-6.306-.596-12.758-.102-19.082-.063-.162 0-.324-.005-.486-.005 3.809-3.384 7.77-6.602 11.714-9.818 7.409-6.043 15.652-11.823 22.2-18.956l-.025-.019s-17.009-8.84-18.87-9.607a261.581 261.581 0 0 1-3.345 2.884c-5.001 4.249-10.145 8.329-15.229 12.475-8.22 6.705-20.428 14.687-23.99 25.26-5.42 16.08 16.39 17.71 26.56 17.786 5.8.043 11.602-.221 17.4-.063-.224 1.252-.58 2.49-.954 3.683-3.86 12.343 15.448 17.583 19.284 5.318 1.846-5.896 2.858-13.017.674-18.926-2.723-7.369-8.68-9.27-15.85-9.949" fill="#fab78a" style="stroke-width:1.3333"/><path d="M160.596 431.61c0-1.491-.663-2.815-1.69-3.738 10.918-5.405 17.35-14.748 21.139-23.935-11.285 14.702-27.57 19.42-27.57 19.42 4.442 10.981-7.584 13.288-7.584 13.288h10.67a5.035 5.035 0 0 0 5.035-5.036" fill="#956fc6" style="stroke-width:1.3333"/><path d="M.748 534.31h1067.187V425.342H.748Z" fill="#fbc7bc" style="stroke-width:1.3333"/><path d="M1067.933 534.31H.747v23.63h1067.186v-23.63" fill="#ffdad4" style="stroke-width:1.3333"/><path d="M377.924 471.862c0 4.913-36.353 8.894-81.197 8.894s-81.195-3.981-81.195-8.894c0-4.912 36.351-8.894 81.195-8.894 44.844 0 81.197 3.982 81.197 8.894" fill="#f4b6ab" style="stroke-width:1.3333"/><path d="M290.246 471.728h-55.815v-80.996h55.815v80.996" fill="#abd8d8" style="stroke-width:1.3333"/><path d="M289.113 387.73h-22.41c.37-.732.597-1.549.597-2.425a5.42 5.42 0 0 0-5.423-5.421 5.42 5.42 0 0 0-5.421 5.421c0 .876.227 1.693.595 2.425h-22.41a4.413 4.413 0 0 0 0 8.826h54.472a4.414 4.414 0 0 0 0-8.826" fill="#ed699f" style="stroke-width:1.3333"/><path d="M259.993 425.556c-7.204-2.63-15.078-2.872-21.538-2.353v42.69h47.783V425.19c-8.614 1.966-18.747 3.106-26.244.367" fill="#fff" style="stroke-width:1.3333"/><path d="M360.858 471.728h-55.816v-80.996h55.816v80.996" fill="#abd8d8" style="stroke-width:1.3333"/><path d="M359.724 387.73h-22.408a5.377 5.377 0 0 0 .594-2.425 5.42 5.42 0 0 0-5.42-5.421 5.42 5.42 0 0 0-5.423 5.421c0 .876.227 1.693.596 2.425h-22.41a4.413 4.413 0 0 0 0 8.826h54.47a4.413 4.413 0 0 0 0-8.826" fill="#ed699f" style="stroke-width:1.3333"/><path d="M330.605 439.622c-7.204-2.63-15.078-2.874-21.538-2.354v28.626h47.783v-26.64c-8.615 1.967-18.75 3.104-26.245.368" fill="#cc7962" style="stroke-width:1.3333"/><path d="M160.596 462.875c0-1.492-.663-2.816-1.69-3.734 10.918-5.41 17.35-14.752 21.139-23.936-11.285 14.701-27.57 19.417-27.57 19.417 4.442 10.98-7.584 13.292-7.584 13.292h10.67a5.038 5.038 0 0 0 5.035-5.039" fill="#e03d87" style="stroke-width:1.3333"/><path d="M197.315 493.768c0 4.969-26.591 8.994-59.393 8.994-32.8 0-59.39-4.025-59.39-8.994 0-4.968 26.59-8.997 59.39-8.997 32.802 0 59.393 4.029 59.393 8.997" fill="#f4b6ab"/><path d="M185.475 377.437H90.371s-.295 37.125 26.571 50.435c-1.03.92-1.692 2.244-1.692 3.735a5.035 5.035 0 0 0 5.038 5.035h35.275a5.035 5.035 0 0 0 5.034-5.035c0-1.491-.662-2.815-1.69-3.738 26.866-13.307 26.568-50.432 26.568-50.432" fill="#ad8dd0"/><path d="M188.635 377.557a3.424 3.424 0 0 1-3.425 3.424H90.876a3.424 3.424 0 1 1 0-6.85l94.334.001a3.425 3.425 0 0 1 3.425 3.425" fill="#c9abef"/><path d="M185.475 408.703H90.371s-.295 37.125 26.571 50.434a4.986 4.986 0 0 0-1.692 3.734 5.038 5.038 0 0 0 5.038 5.039h35.275a5.038 5.038 0 0 0 5.034-5.039 4.991 4.991 0 0 0-1.69-3.734c26.866-13.31 26.568-50.434 26.568-50.434" fill="#ed699f"/><path d="M188.635 408.81a3.426 3.426 0 0 1-3.425 3.426H90.876a3.425 3.425 0 0 1 0-6.85h94.334a3.425 3.425 0 0 1 3.425 3.424" fill="#fc97c5"/><path d="M185.475 434.57H90.371s-.295 37.125 26.571 50.434a4.993 4.993 0 0 0-1.692 3.736 5.037 5.037 0 0 0 5.038 5.037h35.275a5.037 5.037 0 0 0 5.034-5.037c0-1.49-.662-2.816-1.69-3.737 26.866-13.308 26.568-50.434 26.568-50.434" fill="#f3b562"/><path d="M188.635 434.676a3.423 3.423 0 0 1-3.425 3.424H90.876a3.422 3.422 0 0 1-3.425-3.424 3.423 3.423 0 0 1 3.425-3.424h94.334a3.424 3.424 0 0 1 3.425 3.424" fill="#f9c78c"/><path d="M160.596 488.741c0-1.49-.663-2.816-1.69-3.737 10.918-5.407 17.35-14.75 21.139-23.934-11.285 14.7-27.57 19.418-27.57 19.418 4.442 10.981-7.584 13.29-7.584 13.29h10.67a5.037 5.037 0 0 0 5.035-5.037" fill="#ed9935"/><path d="M851.912 450.822c0 5.31-41.766 9.61-93.288 9.61s-93.287-4.3-93.287-9.61c0-5.308 41.765-9.612 93.287-9.612 51.522 0 93.288 4.304 93.288 9.612" fill="#f4b6ab" style="stroke-width:1.3333"/><path d="M731.728 394.583a2.493 2.493 0 1 1-4.986 0v-69.796a2.492 2.492 0 0 1 2.493-2.494 2.492 2.492 0 0 1 2.493 2.494v69.796" fill="#ad8dd0" style="stroke-width:1.3333"/><path d="M818.94 330.292c11.47-4.279 19.615-14.62 19.615-26.626 0-15.801-14.102-28.73-31.338-28.73H712.29c-17.236 0-31.338 12.929-31.338 28.73 0 15.802 14.102 28.731 31.338 28.731h41.313c5.972 10.056 12.901 24.23 14.455 37.924 2.05 18.052-4.019 31.462-13.944 41.46H706.29c-11.469 0-20.851 8.603-20.851 19.115 0 10.514 9.382 19.117 20.851 19.117h108.059s41.193-5.252-.711-64.028c-16.854-23.64 5.288-55.672 5.303-55.693" fill="#ed699f" style="stroke-width:1.3333"/><path d="M829.3 308.292c0 .592-.482 1.072-1.074 1.072H707.872a1.074 1.074 0 1 1 0-2.146h120.354c.592 0 1.073.481 1.073 1.074" fill="#dd5794" style="stroke-width:1.3333"/><path d="M816.62 293.16a5.055 5.055 0 1 1-10.11-.001 5.055 5.055 0 0 1 10.11 0" fill="#fced81" style="stroke-width:1.3333"/><path d="M762.34 373.144h-63.017s-.196 24.6 17.607 33.42a3.308 3.308 0 0 0-1.123 2.474 3.34 3.34 0 0 0 3.339 3.338h23.375a3.339 3.339 0 0 0 3.336-3.338 3.32 3.32 0 0 0-1.12-2.476c17.801-8.817 17.604-33.418 17.604-33.418" fill="#f3b562" style="stroke-width:1.3333"/><path d="M764.434 373.224a2.268 2.268 0 0 1-2.269 2.27h-62.51a2.266 2.266 0 0 1-2.267-2.27 2.267 2.267 0 0 1 2.268-2.27h62.509a2.27 2.27 0 0 1 2.27 2.27" fill="#f9c78c" style="stroke-width:1.3333"/><path d="M745.861 409.036c0-.988-.44-1.865-1.12-2.475 7.234-3.583 11.495-9.774 14.007-15.86-7.479 9.741-18.27 12.868-18.27 12.868 2.945 7.275-5.023 8.806-5.023 8.806h7.07a3.339 3.339 0 0 0 3.336-3.339" fill="#ed9935" style="stroke-width:1.3333"/><path d="M771.487 289.653c0 .606.49 1.096 1.096 1.096h24.074a1.093 1.093 0 1 0 0-2.188h-24.074c-.606 0-1.096.49-1.096 1.092m0 3.507c0 .603.49 1.094 1.096 1.094h24.074a1.093 1.093 0 0 0 0-2.188h-24.074c-.606 0-1.096.49-1.096 1.093m0 3.507c0 .604.49 1.096 1.096 1.096h24.074a1.095 1.095 0 0 0 0-2.19h-24.074c-.606 0-1.096.491-1.096 1.094" fill="#e2dddc" style="stroke-width:1.3333"/><path d="M685.716 433.876c1.576 9.108 10.21 16.134 20.569 16.134h108.059s14.843-1.9 17.642-16.134H685.723" fill="#dd5794" style="stroke-width:1.3333"/><path d="M1059.734 480.848c0 4.97-44.72 8.994-99.885 8.994-55.164 0-99.882-4.025-99.882-8.994 0-4.968 44.718-8.997 99.882-8.997s99.885 4.03 99.885 8.997" fill="#f4b6ab" style="stroke-width:1.3333"/><path d="M1038.094 480.848H881.538l-11.11-16.033h178.783l-11.109 16.033" fill="#83becc" style="stroke-width:1.3333"/><path d="M1010.081 419.223c-8.84-6.104-36.152-7.867-50.269-7.867-14.12 0-41.431 1.763-50.273 7.867-8.84 6.102-13.59 45.583-13.59 45.583h127.723s-4.75-39.48-13.59-45.583" fill="#ffca76" style="stroke-width:1.3333"/><path d="M897.59 453.915h124.46a236.997 236.997 0 0 0-1.483-7.873H899.075a240.784 240.784 0 0 0-1.484 7.873" fill="#ffdca9" style="stroke-width:1.3333"/><path d="M901.417 436.142s-1.54 11.948 3.603 10.67c5.144-1.275 10.493-17.521 14.813-17.437 4.32.082 2.881 16.415 10.7 16.162 7.817-.255 8.845-22.2 13.37-21.693 4.53.51 7.817 18.885 14.198 18.12 6.378-.766 9.67-19.157 14.812-18.128 5.144 1.028 12.962 19.873 19.957 16.576 6.994-3.296 6.994-13.503 11.314-11.972 4.32 1.53 11.09 17.676 14.804 10.622 0 0-2.873-16.238-9.25-22.363-6.376-6.125-40.117-7.403-55.753-7.913-15.635-.508-43.737 3.802-48.141 11.997-4.116 7.657-3.123 10.184-4.427 15.36" fill="#cc7962" style="stroke-width:1.3333"/><path d="M962.363 406.996c0 3.576-2.883 6.476-6.439 6.476s-6.438-2.9-6.438-6.476c0-3.577 2.882-6.477 6.438-6.477 3.556 0 6.439 2.9 6.439 6.477" fill="#f93295" style="stroke-width:1.3333"/><path d="M950.07 392.704c3.146 2.633 5.167 6.693 5.082 10.815-.021 1.002 1.521.999 1.543 0 .094-4.5-2.09-9.03-5.533-11.914-.76-.636-1.858.456-1.092 1.099" fill="#5ed39d" style="stroke-width:1.3333"/><path d="M846.979 511.26c0 4.97-44.72 8.995-99.884 8.995s-99.883-4.025-99.883-8.994c0-4.968 44.719-8.998 99.883-8.998 55.164 0 99.884 4.03 99.884 8.998" fill="#f4b6ab" style="stroke-width:1.3333"/><path d="M821.313 511.26H664.757l-11.11-16.032H832.43l-11.11 16.033" fill="#83becc" style="stroke-width:1.3333"/><path d="M793.313 449.649c-8.838-6.104-36.152-7.867-50.269-7.867-14.12 0-41.43 1.763-50.272 7.867-8.841 6.102-13.59 45.583-13.59 45.583h127.722s-4.75-39.48-13.59-45.583" fill="#ffccd9" style="stroke-width:1.3333"/><path d="M689.09 455.249s1.986 3.248 11.986 0c10-3.25 16.889-.975 22.889 0 6 .973 11.04-1.694 18.186-2.583 7.146-.89 20.478 6.275 26.923 4.027 6.445-2.25 14-2.75 18.222-1.832 4.223.916 7.792 3.566 10.23 1.464 0 0 3.569-16.103-54.218-16.103-57.786 0-54.219 15.027-54.219 15.027" fill="#fff" style="stroke-width:1.3333"/><path d="M681.25 481.835h123.573a219.53 219.53 0 0 0-1.574-7.874H682.824a222.647 222.647 0 0 0-1.574 7.874" fill="#ffe6ed" style="stroke-width:1.3333"/><g clip-path="url(#n)" transform="matrix(.13333 0 0 -.13333 199.995 666.67)"><path d="M3668 1495h30.641v27.5H3668Z" fill="#fbbbcb"/></g><path d="M705.289 460.142c-.897 0-1.625-.655-1.625-1.46 0-.807.728-1.46 1.625-1.46.9 0 1.628.653 1.628 1.46 0 .805-.728 1.46-1.628 1.46m3.253 8.293c-.898 0-1.626-.655-1.626-1.46 0-.808.728-1.46 1.626-1.46.9 0 1.628.652 1.628 1.46 0 .805-.728 1.46-1.628 1.46m14.587-4.76c-1.128 0-2.043-.82-2.043-1.833 0-1.014.915-1.833 2.043-1.833 1.129 0 2.044.82 2.044 1.833s-.915 1.833-2.044 1.833m14.119 3.667c-1.13 0-2.042-.82-2.042-1.834 0-1.013.913-1.833 2.042-1.833 1.13 0 2.043.82 2.043 1.833 0 1.014-.913 1.834-2.043 1.834m13.467-5.654c-.9 0-1.627-.654-1.627-1.46 0-.806.728-1.46 1.627-1.46.9 0 1.626.654 1.626 1.46 0 .806-.726 1.46-1.626 1.46m10.119 4.907c-.897 0-1.625-.653-1.625-1.459 0-.808.728-1.46 1.625-1.46.9 0 1.628.652 1.628 1.46 0 .806-.728 1.459-1.628 1.459m17.96-3.453c-.897 0-1.625-.654-1.625-1.459 0-.808.728-1.46 1.625-1.46.9 0 1.628.652 1.628 1.46 0 .805-.728 1.459-1.628 1.459m10.173 7.2c-1.128 0-2.043-.82-2.043-1.834 0-1.013.915-1.833 2.043-1.833 1.13 0 2.044.82 2.044 1.833 0 1.014-.915 1.834-2.044 1.834m-99.917 20.879c-1.13 0-2.043-.82-2.043-1.833 0-1.014.913-1.834 2.042-1.834 1.13 0 2.043.82 2.043 1.834 0 1.013-.913 1.833-2.043 1.833m11.253-2.213c-.898 0-1.625-.654-1.625-1.46 0-.807.727-1.459 1.625-1.459.9 0 1.628.652 1.628 1.459 0 .806-.728 1.46-1.628 1.46m11.347 4.04c-.899 0-1.627-.654-1.627-1.46 0-.807.728-1.459 1.627-1.459.9 0 1.628.652 1.628 1.459 0 .806-.728 1.46-1.628 1.46m14.586-4.747c-1.128 0-2.042-.82-2.042-1.833s.914-1.833 2.042-1.833c1.13 0 2.044.82 2.044 1.833s-.915 1.833-2.044 1.833m14.12 3.667c-1.128 0-2.043-.82-2.043-1.834 0-1.013.915-1.833 2.043-1.833 1.13 0 2.042.82 2.042 1.833 0 1.014-.913 1.834-2.042 1.834m13.466-4.2c-.898 0-1.626-.654-1.626-1.459 0-.808.728-1.46 1.626-1.46.9 0 1.628.652 1.628 1.46 0 .805-.728 1.459-1.628 1.459m17.973 3.826c-.897 0-1.625-.653-1.625-1.458 0-.808.728-1.46 1.625-1.46.9 0 1.628.652 1.628 1.46 0 .805-.728 1.458-1.628 1.458m10.106-3.826c-.897 0-1.625-.654-1.625-1.459 0-.808.728-1.46 1.625-1.46.9 0 1.628.652 1.628 1.46 0 .805-.728 1.459-1.628 1.459m16.893 5.28c-1.128 0-2.042-.82-2.042-1.834 0-1.013.914-1.833 2.042-1.833 1.13 0 2.044.82 2.044 1.833 0 1.014-.914 1.834-2.044 1.834" fill="#fbbbcb" style="stroke-width:1.3333"/></svg>